<svg id="Forge" xmlns="http://www.w3.org/2000/svg" xmlns:xlink="http://www.w3.org/1999/xlink" viewBox="0 0 1643.73 1771.86">
  <defs>
    <style>
      .cls-1 {
        fill: #6e6e6e;
      }

      .cls-2 {
        fill: url(#Безымянный_градиент_1262);
      }

      .cls-3 {
        fill: url(#Безымянный_градиент_272);
      }

      .cls-4 {
        fill: url(#Безымянный_градиент_272-2);
      }

      .cls-5 {
        fill: #ffdc5c;
      }

      .cls-6 {
        fill: url(#Безымянный_градиент_1329);
      }

      .cls-7 {
        fill: #f6f6f6;
      }
    </style>
    <linearGradient id="Безымянный_градиент_1262" data-name="Безымянный градиент 1262" x1="99.42" y1="914.43" x2="1743.1" y2="914.43" gradientUnits="userSpaceOnUse">
      <stop offset="0" stop-color="#edc226"/>
      <stop offset="1" stop-color="#e0b92e"/>
    </linearGradient>
    <linearGradient id="Безымянный_градиент_272" data-name="Безымянный градиент 272" x1="1277.5" y1="1364.52" x2="1772.86" y2="1364.52" gradientTransform="matrix(1.04, -0.63, 0.52, 0.85, -838.29, 1215.41)" gradientUnits="userSpaceOnUse">
      <stop offset="0.1" stop-color="#181716" stop-opacity="0"/>
      <stop offset="0.5" stop-color="#181716" stop-opacity="0.3"/>
      <stop offset="0.85" stop-color="#181716" stop-opacity="0"/>
    </linearGradient>
    <linearGradient id="Безымянный_градиент_272-2" x1="635.59" y1="889.42" x2="1130.95" y2="889.42" gradientTransform="matrix(-1.04, -0.63, -0.52, 0.85, 1768.54, 1215.41)" xlink:href="#Безымянный_градиент_272"/>
    <linearGradient id="Безымянный_градиент_1329" data-name="Безымянный градиент 1329" x1="101.44" y1="720.4" x2="1542.24" y2="720.4" gradientUnits="userSpaceOnUse">
      <stop offset="0" stop-color="#e6c23c"/>
      <stop offset="1" stop-color="#cc9d1d"/>
    </linearGradient>
  </defs>
  <path class="cls-1" d="M1743.1,452.13v1055c0,165.74-134.35,300.09-300.09,300.09H399.51c-165.73,0-300.09-134.35-300.09-300.09v-1055c0-165.74,247.12-423.57,404.44-382.42h834.8C1496,28.56,1743.1,286.39,1743.1,452.13Z" transform="translate(-99.42 -35.33)"/>
  <path class="cls-2" d="M1743.1,430.3v1055c0,165.74-134.35,300.1-300.09,300.1H399.51c-165.73,0-300.09-134.36-300.09-300.1V430.3c0-165.73,247.12-423.57,404.44-382.42h834.8C1496,6.73,1743.1,264.57,1743.1,430.3Z" transform="translate(-99.42 -35.33)"/>
  <path class="cls-3" d="M1743.05,1490.86c.1,4.29.17,10.75,0,18.58,0,0-.23,8.27-1.21,20.22,0,0-1.93,23.07-5.72,42.28-3.41,17.29-15,61.61-47.59,107.81a302.32,302.32,0,0,1-47.3,52.69c-10.42,9.8-85.86,78.33-197.43,65.49-110.59-12.72-168.37-95.2-176.48-107.22q-82.17-248.87-164.35-497.73L1576,1042.71Q1659.54,1266.79,1743.05,1490.86Z" transform="translate(-99.42 -35.33)"/>
  <path class="cls-4" d="M99.51,1490.86c-.09,4.29-.16,10.75,0,18.58,0,0,.22,8.27,1.2,20.22,0,0,1.94,23.07,5.73,42.28,3.41,17.29,15.05,61.61,47.59,107.81a302.2,302.2,0,0,0,47.29,52.69c10.43,9.8,85.87,78.33,197.44,65.49,110.58-12.72,168.37-95.2,176.48-107.22Q657.46,1441.84,739.64,1193L266.55,1042.71Z" transform="translate(-99.42 -35.33)"/>
  <path class="cls-5" d="M1653.89,346v847.36c0,167.06-136.64,302.49-305.19,302.49H493.82c-168.55,0-305.18-135.43-305.18-302.49V346c0-167.06,136.63-302.49,305.18-302.49H1348.7C1517.25,43.5,1653.89,178.93,1653.89,346Z" transform="translate(-99.42 -35.33)"/>
  <rect class="cls-6" x="101.44" width="1440.8" height="1440.8" rx="300.09"/>
  <g>
    <path class="cls-7" d="M1505.19,731.34v80.35a18.41,18.41,0,0,1-21.63,18.14c-18.68-3.32-41.9-7.71-69-5.37-73.27,6.33-90.28,18.38-108.79,26.3-19.49,8.34-184.86,79.14-172.74,182.66,7.15,60.92,73.59,114.66,159.44,134.46,0,0,10.36,4.19,13.45,11.09a30.23,30.23,0,0,1,1.49,4.33,30.83,30.83,0,0,1,.65,3.73c.28,2.7.33,23.6.13,53.49a9.25,9.25,0,0,1-9.25,9.19H1165.41a18.61,18.61,0,0,1-13.92-6.26l-10.93-12.31a18.65,18.65,0,0,0-13.93-6.26H882.88a18.61,18.61,0,0,0-13.92,6.26L858,1243.45a18.65,18.65,0,0,1-13.93,6.26H702.28a9.25,9.25,0,0,1-9.25-9.24V1179c3.09-6.9,13.45-11.09,13.45-11.09,50.25-20.34,94-38.06,115.79-64,16.56-19.76,24.38-49.07,17.36-74.35-6.32-22.7-22.89-36-29.23-40.92-23.76-18.51-50.63-20.13-96.85-22.3-9.22-.43-17.74-.54-25.4-.48a7.27,7.27,0,0,1-7.33-7.28V941.84A4.88,4.88,0,0,0,676,937c-9.39,0-43.67-.07-53.05-.1-63.6-.38-110.2-16.06-138-28.13C379.76,863,335,778.15,337.42,767.79a15.75,15.75,0,0,1,2.37-5.19c5.34-7.17,16.56-6.62,16.56-6.82H669.61a11.21,11.21,0,0,0,11.21-11.21V724.11A11.2,11.2,0,0,1,692,712.91h794.73A18.43,18.43,0,0,1,1505.19,731.34Z" transform="translate(-99.42 -35.33)"/>
    <path class="cls-7" d="M322.3,360.18H859.07a0,0,0,0,1,0,0v115a0,0,0,0,1,0,0H322.3a34.43,34.43,0,0,1-34.43-34.43V394.61A34.43,34.43,0,0,1,322.3,360.18Z"/>
    <polygon class="cls-7" points="996.92 378.86 996.92 561.31 857.07 561.31 857.07 210.7 899.83 210.7 996.92 378.86"/>
  </g>
</svg>
