<svg id="My_Recipes" data-name="My Recipes" xmlns="http://www.w3.org/2000/svg" xmlns:xlink="http://www.w3.org/1999/xlink" viewBox="0 0 1643.73 1771.86">
  <defs>
    <style>
      .cls-1 {
        fill: #6e6e6e;
      }

      .cls-2 {
        fill: url(#Безымянный_градиент_1262);
      }

      .cls-3 {
        fill: url(#Безымянный_градиент_272);
      }

      .cls-4 {
        fill: url(#Безымянный_градиент_272-2);
      }

      .cls-5 {
        fill: #ffdc5c;
      }

      .cls-6 {
        fill: url(#Безымянный_градиент_1329);
      }

      .cls-7 {
        fill: #f6f6f6;
      }
    </style>
    <linearGradient id="Безымянный_градиент_1262" data-name="Безымянный градиент 1262" x1="99.42" y1="914.43" x2="1743.1" y2="914.43" gradientUnits="userSpaceOnUse">
      <stop offset="0" stop-color="#edc226"/>
      <stop offset="1" stop-color="#e0b92e"/>
    </linearGradient>
    <linearGradient id="Безымянный_градиент_272" data-name="Безымянный градиент 272" x1="1277.5" y1="1364.52" x2="1772.86" y2="1364.52" gradientTransform="matrix(1.04, -0.63, 0.52, 0.85, -838.29, 1215.41)" gradientUnits="userSpaceOnUse">
      <stop offset="0.1" stop-color="#181716" stop-opacity="0"/>
      <stop offset="0.5" stop-color="#181716" stop-opacity="0.3"/>
      <stop offset="0.85" stop-color="#181716" stop-opacity="0"/>
    </linearGradient>
    <linearGradient id="Безымянный_градиент_272-2" x1="635.59" y1="889.42" x2="1130.95" y2="889.42" gradientTransform="matrix(-1.04, -0.63, -0.52, 0.85, 1768.54, 1215.41)" xlink:href="#Безымянный_градиент_272"/>
    <linearGradient id="Безымянный_градиент_1329" data-name="Безымянный градиент 1329" x1="111.72" y1="720.4" x2="1552.52" y2="720.4" gradientUnits="userSpaceOnUse">
      <stop offset="0" stop-color="#e6c23c"/>
      <stop offset="1" stop-color="#cc9d1d"/>
    </linearGradient>
  </defs>
  <path class="cls-1" d="M1743.1,452.13v1055c0,165.74-134.35,300.09-300.09,300.09H399.51c-165.73,0-300.09-134.35-300.09-300.09v-1055c0-165.74,247.12-423.57,404.44-382.42h834.8C1496,28.56,1743.1,286.39,1743.1,452.13Z" transform="translate(-99.42 -35.33)"/>
  <path class="cls-2" d="M1743.1,430.3v1055c0,165.74-134.35,300.1-300.09,300.1H399.51c-165.73,0-300.09-134.36-300.09-300.1V430.3c0-165.73,247.12-423.57,404.44-382.42h834.8C1496,6.73,1743.1,264.57,1743.1,430.3Z" transform="translate(-99.42 -35.33)"/>
  <path class="cls-3" d="M1743.05,1490.86c.1,4.29.17,10.75,0,18.58,0,0-.23,8.27-1.21,20.22,0,0-1.93,23.07-5.72,42.28-3.41,17.29-15,61.61-47.59,107.81a302.32,302.32,0,0,1-47.3,52.69c-10.42,9.8-85.86,78.33-197.43,65.49-110.59-12.72-168.37-95.2-176.48-107.22q-82.17-248.87-164.35-497.73L1576,1042.71Q1659.54,1266.79,1743.05,1490.86Z" transform="translate(-99.42 -35.33)"/>
  <path class="cls-4" d="M99.51,1490.86c-.09,4.29-.16,10.75,0,18.58,0,0,.22,8.27,1.2,20.22,0,0,1.94,23.07,5.73,42.28,3.41,17.29,15.05,61.61,47.59,107.81a302.2,302.2,0,0,0,47.29,52.69c10.43,9.8,85.87,78.33,197.44,65.49,110.58-12.72,168.37-95.2,176.48-107.22Q657.46,1441.84,739.64,1193L266.55,1042.71Z" transform="translate(-99.42 -35.33)"/>
  <path class="cls-5" d="M1653.89,346v847.36c0,167.06-136.64,302.49-305.19,302.49H493.82c-168.55,0-305.18-135.43-305.18-302.49V346c0-167.06,136.63-302.49,305.18-302.49H1348.7C1517.25,43.5,1653.89,178.93,1653.89,346Z" transform="translate(-99.42 -35.33)"/>
  <rect class="cls-6" x="111.72" width="1440.8" height="1440.8" rx="300.09"/>
  <path class="cls-7" d="M1276.82,1191.43a85.5,85.5,0,0,1,26.7-61.75,92.08,92.08,0,0,1,48-24.28,93,93,0,0,0-16.2-1.41H600.89a92.47,92.47,0,0,0-64.2,25.69,85.5,85.5,0,0,0-26.7,61.75c0,48.1,40.9,87.45,90.9,87.45h277v-40h-277a52.27,52.27,0,0,1-36.47-14.51,44.79,44.79,0,0,1,0-65.86A52.28,52.28,0,0,1,600.89,1144h645.3a124.8,124.8,0,0,0,0,94.89h-235.9v40h325a93,93,0,0,0,16.2-1.4C1309.18,1270.08,1276.82,1234.22,1276.82,1191.43Z" transform="translate(-99.42 -35.33)"/>
  <path class="cls-7" d="M1264.09,203.58H597.43c-48.09,0-87.44,41.28-87.44,91.74v896.12a85.51,85.51,0,0,1,26.71-61.76A92.44,92.44,0,0,1,600.89,1104h734.43a93.25,93.25,0,0,1,16.21,1.4V295.32C1351.53,244.86,1312.18,203.58,1264.09,203.58Zm43.18,900.32H567.56a56.87,56.87,0,0,0-13.32,1.57V295.32a49.31,49.31,0,0,1,13.46-34.25c8.14-8.53,18.69-13.23,29.73-13.23h666.66c11,0,21.59,4.7,29.72,13.23a49.26,49.26,0,0,1,13.46,34.25Z" transform="translate(-99.42 -35.33)"/>
  <path class="cls-7" d="M1293.81,261.07c-8.13-8.53-18.68-13.23-29.72-13.23H597.43c-11,0-21.59,4.7-29.73,13.23a49.31,49.31,0,0,0-13.46,34.25v810.15a56.87,56.87,0,0,1,13.32-1.57H680.3v-856h44.25V1103.9h582.72V295.32A49.26,49.26,0,0,0,1293.81,261.07ZM1159.09,467.93h-85V992.05a38.22,38.22,0,0,1-38.09,38.1H998.51a38.22,38.22,0,0,1-38.1-38.1V467.93H812.77V425.69l166.09-95.9h180.23Z" transform="translate(-99.42 -35.33)"/>
  <g>
    <polygon class="cls-7" points="758.51 1159.07 930.87 1159.07 930.87 1340.65 844.69 1256.72 758.51 1340.65 758.51 1159.07"/>
    <path class="cls-7" d="M1010.29,1214.4v114.18L972,1291.31l-27.91-27.17-27.9,27.17-38.28,37.27V1214.4h132.36m40-40H837.93v249l47.72-46.48L944.11,1320l58.46,56.93,47.72,46.48v-249Z" transform="translate(-99.42 -35.33)"/>
  </g>
</svg>
