<svg id="Legend" xmlns="http://www.w3.org/2000/svg" xmlns:xlink="http://www.w3.org/1999/xlink" viewBox="0 0 1643.73 1771.86">
  <defs>
    <style>
      .cls-1 {
        fill: #6e6e6e;
      }

      .cls-2 {
        fill: url(#Безымянный_градиент_983);
      }

      .cls-3 {
        fill: url(#Безымянный_градиент_272);
      }

      .cls-4 {
        fill: url(#Безымянный_градиент_272-2);
      }

      .cls-5 {
        fill: #fff1b5;
      }

      .cls-6 {
        fill: url(#Безымянный_градиент_1036);
      }

      .cls-7 {
        fill: #3a3a39;
      }
    </style>
    <linearGradient id="Безымянный_градиент_983" data-name="Безымянный градиент 983" x1="99.42" y1="914.43" x2="1743.1" y2="914.43" gradientUnits="userSpaceOnUse">
      <stop offset="0" stop-color="#eddfa8"/>
      <stop offset="1" stop-color="#967f46"/>
    </linearGradient>
    <linearGradient id="Безымянный_градиент_272" data-name="Безымянный градиент 272" x1="1277.5" y1="1364.52" x2="1772.86" y2="1364.52" gradientTransform="matrix(1.04, -0.63, 0.52, 0.85, -838.29, 1215.41)" gradientUnits="userSpaceOnUse">
      <stop offset="0.1" stop-color="#181716" stop-opacity="0"/>
      <stop offset="0.5" stop-color="#181716" stop-opacity="0.3"/>
      <stop offset="0.85" stop-color="#181716" stop-opacity="0"/>
    </linearGradient>
    <linearGradient id="Безымянный_градиент_272-2" x1="635.59" y1="889.42" x2="1130.95" y2="889.42" gradientTransform="matrix(-1.04, -0.63, -0.52, 0.85, 1768.54, 1215.41)" xlink:href="#Безымянный_градиент_272"/>
    <linearGradient id="Безымянный_градиент_1036" data-name="Безымянный градиент 1036" x1="101.44" y1="720.4" x2="1542.24" y2="720.4" gradientUnits="userSpaceOnUse">
      <stop offset="0" stop-color="#eddfaa"/>
      <stop offset="1" stop-color="#917f57"/>
    </linearGradient>
  </defs>
  <path class="cls-1" d="M1743.1,452.13v1055c0,165.74-134.35,300.09-300.09,300.09H399.51c-165.73,0-300.09-134.35-300.09-300.09v-1055c0-165.74,247.12-423.57,404.44-382.42h834.8C1496,28.56,1743.1,286.39,1743.1,452.13Z" transform="translate(-99.42 -35.33)"/>
  <path class="cls-2" d="M1743.1,430.3v1055c0,165.74-134.35,300.1-300.09,300.1H399.51c-165.73,0-300.09-134.36-300.09-300.1V430.3c0-165.73,247.12-423.57,404.44-382.42h834.8C1496,6.73,1743.1,264.57,1743.1,430.3Z" transform="translate(-99.42 -35.33)"/>
  <path class="cls-3" d="M1743.05,1490.86c.1,4.29.17,10.75,0,18.58,0,0-.23,8.27-1.21,20.22,0,0-1.93,23.07-5.72,42.28-3.41,17.29-15,61.61-47.59,107.81a302.32,302.32,0,0,1-47.3,52.69c-10.42,9.8-85.86,78.33-197.43,65.49-110.59-12.72-168.37-95.2-176.48-107.22q-82.17-248.87-164.35-497.73L1576,1042.71Q1659.54,1266.79,1743.05,1490.86Z" transform="translate(-99.42 -35.33)"/>
  <path class="cls-4" d="M99.51,1490.86c-.09,4.29-.16,10.75,0,18.58,0,0,.22,8.27,1.2,20.22,0,0,1.94,23.07,5.73,42.28,3.41,17.29,15.05,61.61,47.59,107.81a302.2,302.2,0,0,0,47.29,52.69c10.43,9.8,85.87,78.33,197.44,65.49,110.58-12.72,168.37-95.2,176.48-107.22Q657.46,1441.84,739.64,1193L266.55,1042.71Z" transform="translate(-99.42 -35.33)"/>
  <path class="cls-5" d="M1653.89,346v847.36c0,167.06-136.64,302.49-305.19,302.49H493.82c-168.55,0-305.18-135.43-305.18-302.49V346c0-167.06,136.63-302.49,305.18-302.49H1348.7C1517.25,43.5,1653.89,178.93,1653.89,346Z" transform="translate(-99.42 -35.33)"/>
  <rect class="cls-6" x="101.44" width="1440.8" height="1440.8" rx="300.09"/>
  <g>
    <path class="cls-7" d="M849.85,1145.89l30-36.46v66.43a321.26,321.26,0,0,0-30-24c-1.05-.74-2.1-1.47-3.14-2.18Z" transform="translate(-99.42 -35.33)"/>
    <path class="cls-7" d="M531.87,618.93,832,974.46l-111.1,131c-70.42-4-126.89,23.62-214.8,4.61a325.65,325.65,0,0,1-101.79-41.28V354.74C462.85,399,514,413.61,549,419c57.54,8.79,106.68-2,151.68-9.44l-53.18,66-27.69,34.35Z" transform="translate(-99.42 -35.33)"/>
    <path class="cls-7" d="M879.85,466.33V839.41l-30-35.41L690.4,615.85,781.46,502l20.1-25.13,39.31-49.15A156.91,156.91,0,0,1,879.85,466.33Z" transform="translate(-99.42 -35.33)"/>
    <path class="cls-7" d="M819.06,484.17a172,172,0,0,0-17.5-7.27L781.46,502a142.34,142.34,0,0,1,24.6,9.17,146,146,0,0,1,43.79,32.27V804l30,35.41V532.25A177.08,177.08,0,0,0,819.06,484.17Zm-228.24,693.4c-26.14,3-53.17,6.15-81.91,6.15a371.39,371.39,0,0,1-69.94-6.54,389.81,389.81,0,0,1-97.18-32.12V467.8a447,447,0,0,0,62.51,26.63,408.85,408.85,0,0,0,76.39,17.93,424.34,424.34,0,0,0,56.87,3.72c29.16,0,56.73-2.81,82.29-6.26l27.69-34.35c-34.13,5.16-70.38,10.61-110,10.61a395.59,395.59,0,0,1-52.88-3.46,377.54,377.54,0,0,1-80.38-20c-28.11-10.29-59.32-25.3-92.51-47.32V1163.4a420.29,420.29,0,0,0,121.59,43.25,400.56,400.56,0,0,0,75.53,7.07c47,0,87.51-7.64,129.46-10.88L665,1171.49C639.17,1172,614.62,1174.82,590.82,1177.57Zm259-31.68V1219a369.51,369.51,0,0,0-42.78-21.1l-20,24.32c27,10.29,59,26.64,92.79,53.33v-166.1Z" transform="translate(-99.42 -35.33)"/>
    <path class="cls-7" d="M1438.22,468.58a317.24,317.24,0,0,1-114.53,20.89c-43.77,0-83.86-7.79-128.49-11L1222,511.08c6.63.71,13.2,1.47,19.71,2.22,26.22,3,53.33,6.17,82,6.17a348.18,348.18,0,0,0,80.93-9.25,343.29,343.29,0,0,0,33.6-9.75,361.71,361.71,0,0,0,62.51-28.58v675.52a146.43,146.43,0,0,1-43.79,32.26c-21,10.1-43.44,14.81-70.58,14.81-25.72,0-53.44-4.2-82.79-8.64-34.23-5.17-73-11-115.13-11-2.69,0-5.35,0-8,.07l25.67,30.28c67.6,2.64,125.5,19.33,180.25,19.33,28.4,0,56-4.5,83.57-17.77a177,177,0,0,0,60.8-48.09V415.34C1497,441.93,1465.19,458.28,1438.22,468.58ZM962.67,527.47V839.41l30-35.41V545.81a389.39,389.39,0,0,1,78.77-28.16l-21-25.56A420.68,420.68,0,0,0,962.67,527.47ZM1039,1202.25a452.52,452.52,0,0,0-46.37,20.83v-77.19l-30-36.46v166.1c34.79-23.09,67.4-38.46,96.54-48.78Z" transform="translate(-99.42 -35.33)"/>
    <path class="cls-7" d="M992.67,1145.89l3.14,3.81c-1,.71-2.09,1.44-3.14,2.18a321.26,321.26,0,0,0-30,24v-66.43Z" transform="translate(-99.42 -35.33)"/>
    <path class="cls-7" d="M1152.12,615.85,992.67,804l-30,35.41V466.33a157.78,157.78,0,0,1,36.39-36.77l51.38,62.53,21,25.56Z" transform="translate(-99.42 -35.33)"/>
    <path class="cls-7" d="M1438.22,354.74v714.09a325.65,325.65,0,0,1-101.79,41.28c-87.91,19-144.38-8.59-214.8-4.61l-111.1-131,300.12-355.53L1222,511.08,1195.2,478.5,1138,408.89c46,7.49,96.33,19.12,155.51,10.07C1328.48,413.61,1379.67,399,1438.22,354.74Z" transform="translate(-99.42 -35.33)"/>
  </g>
  <path class="cls-7" d="M976.35,259.54l295.26,359.14-284,336.43L971.24,974.5l16.41,19.36,258.24,304.59h-88.83l-212.63-258.4-23.17-28.15-23.16,28.15-212.63,258.4H596.64L854.88,993.86l16.41-19.36-16.37-19.39L570.76,618.49,860.19,259.54H976.35M921.26,934.68l22.89-27L1175,635.25l16.19-19.1-15.89-19.34L941.36,312.08l-23.49-28.59-23.11,28.89L667,597.11,651.54,616.4l16,18.85L898.38,907.67l22.88,27m69.26-705.14H845.85l-314,389.39L832,974.46l-300.13,354H699.63l221.63-269.34,221.63,269.34h167.76l-300.12-354,300.12-355.53L990.52,229.54ZM921.26,888.27,690.4,615.85,918.18,331.12l234,284.73L921.26,888.27Z" transform="translate(-99.42 -35.33)"/>
</svg>
