<svg id="CypriotSyllablary_копия_" data-name="CypriotSyllablary (копия)" xmlns="http://www.w3.org/2000/svg" xmlns:xlink="http://www.w3.org/1999/xlink" viewBox="0 0 1643.73 1771.86">
  <defs>
    <style>
      .cls-1 {
        fill: #6e6e6e;
      }

      .cls-2 {
        fill: url(#Безымянный_градиент_387);
      }

      .cls-3 {
        fill: url(#Безымянный_градиент_272);
      }

      .cls-4 {
        fill: url(#Безымянный_градиент_272-2);
      }

      .cls-5 {
        fill: #2e62f4;
      }

      .cls-6 {
        fill: url(#Безымянный_градиент_528);
      }

      .cls-7 {
        fill: #f6f6f6;
      }

      .cls-8 {
        fill: none;
        stroke: #f6f6f6;
        stroke-miterlimit: 10;
        stroke-width: 80px;
      }
    </style>
    <linearGradient id="Безымянный_градиент_387" data-name="Безымянный градиент 387" x1="99.42" y1="914.43" x2="1743.1" y2="914.43" gradientUnits="userSpaceOnUse">
      <stop offset="0" stop-color="#6b8ff4"/>
      <stop offset="1" stop-color="#2044b3"/>
    </linearGradient>
    <linearGradient id="Безымянный_градиент_272" data-name="Безымянный градиент 272" x1="1277.5" y1="1364.52" x2="1772.86" y2="1364.52" gradientTransform="matrix(1.04, -0.63, 0.52, 0.85, -838.29, 1215.41)" gradientUnits="userSpaceOnUse">
      <stop offset="0.1" stop-color="#181716" stop-opacity="0"/>
      <stop offset="0.5" stop-color="#181716" stop-opacity="0.3"/>
      <stop offset="0.85" stop-color="#181716" stop-opacity="0"/>
    </linearGradient>
    <linearGradient id="Безымянный_градиент_272-2" x1="635.59" y1="889.42" x2="1130.95" y2="889.42" gradientTransform="matrix(-1.04, -0.63, -0.52, 0.85, 1768.54, 1215.41)" xlink:href="#Безымянный_градиент_272"/>
    <linearGradient id="Безымянный_градиент_528" data-name="Безымянный градиент 528" x1="101.44" y1="720.4" x2="1542.24" y2="720.4" gradientUnits="userSpaceOnUse">
      <stop offset="0" stop-color="#479df4"/>
      <stop offset="1" stop-color="#1961bf"/>
    </linearGradient>
  </defs>
  <path class="cls-1" d="M1743.1,452.13v1055c0,165.74-134.35,300.09-300.09,300.09H399.51c-165.73,0-300.09-134.35-300.09-300.09v-1055c0-165.74,247.12-423.57,404.44-382.42h834.8C1496,28.56,1743.1,286.39,1743.1,452.13Z" transform="translate(-99.42 -35.33)"/>
  <path class="cls-2" d="M1743.1,430.3v1055c0,165.74-134.35,300.1-300.09,300.1H399.51c-165.73,0-300.09-134.36-300.09-300.1V430.3c0-165.73,247.12-423.57,404.44-382.42h834.8C1496,6.73,1743.1,264.57,1743.1,430.3Z" transform="translate(-99.42 -35.33)"/>
  <path class="cls-3" d="M1743.05,1490.86c.1,4.29.17,10.75,0,18.58,0,0-.23,8.27-1.21,20.22,0,0-1.93,23.07-5.72,42.28-3.41,17.29-15,61.61-47.59,107.81a302.32,302.32,0,0,1-47.3,52.69c-10.42,9.8-85.86,78.33-197.43,65.49-110.59-12.72-168.37-95.2-176.48-107.22q-82.17-248.87-164.35-497.73L1576,1042.71Q1659.54,1266.79,1743.05,1490.86Z" transform="translate(-99.42 -35.33)"/>
  <path class="cls-4" d="M99.51,1490.86c-.09,4.29-.16,10.75,0,18.58,0,0,.22,8.27,1.2,20.22,0,0,1.94,23.07,5.73,42.28,3.41,17.29,15.05,61.61,47.59,107.81a302.2,302.2,0,0,0,47.29,52.69c10.43,9.8,85.87,78.33,197.44,65.49,110.58-12.72,168.37-95.2,176.48-107.22Q657.46,1441.84,739.64,1193L266.55,1042.71Z" transform="translate(-99.42 -35.33)"/>
  <path class="cls-5" d="M1653.89,346v847.36c0,167.06-136.64,302.49-305.19,302.49H493.82c-168.55,0-305.18-135.43-305.18-302.49V346c0-167.06,136.63-302.49,305.18-302.49H1348.7C1517.25,43.5,1653.89,178.93,1653.89,346Z" transform="translate(-99.42 -35.33)"/>
  <rect class="cls-6" x="101.44" width="1440.8" height="1440.8" rx="300.09"/>
  <path class="cls-7" d="M766.68,338.9a676.27,676.27,0,0,0-112.13,19.74q-9,2.7-25.14,4.49t-24.21,5.38A58.08,58.08,0,0,0,594,374.79c-3.3,2.39-6.43,4.78-9.42,7.18A115.54,115.54,0,0,1,572,391.39a24.42,24.42,0,0,1-13.45,4,11.12,11.12,0,0,1-8.08-3.59q-3.59-3.57-7.17-7.18a59.89,59.89,0,0,0-7.18-7.62c-2.4-2.09-5.39-2.23-9-.45q-3.6-22.43-17-34.54a183.17,183.17,0,0,1-24.22-26.46c-1.2-3.59-1.06-5.83.45-6.73a25.07,25.07,0,0,1,4.94-2.24c4.77-1.79,7.17-4.19,7.17-7.19q9.87.91,33.65,2.71t55.16,2.69q31.39.9,61.91,0A485.72,485.72,0,0,0,703,300.33q25.11-3.6,38.57-10.77,15.24-9,17.94-22.88t-4-27.8A78.07,78.07,0,0,0,738,215.1q-10.77-9.87-22.43-9.87a46.83,46.83,0,0,1-14.35-19.73q-4.49-11.66-17-12.57,16.14-11.66,42.61-17a111.33,111.33,0,0,1,51.58,1.35q25.11,6.73,36.78,33.63-5.37,23.34-9.86,42.62t-20.63,35.44c0,3.59,1.78,6.29,5.38,8.07a37.55,37.55,0,0,0,11.66,3.59,45.06,45.06,0,0,1,10.76,4.49q4.49,2.69.91,9.86,14.35-6.27,30,6.28a309.94,309.94,0,0,1,24.66,21.53l.91.9Q825,333.54,766.68,338.9ZM886,675.33q-1.8,13.45-12.12,18.39a159.75,159.75,0,0,1-22,8.52q-13.47,18.84-19.74,50.69a516.11,516.11,0,0,0-8.52,64.59q-2.25,32.75-4,54.28A345.82,345.82,0,0,1,767.13,883q-24.68,3.13-51.59,4.93t-61,6.27A35.94,35.94,0,0,0,652.3,905q-.45,6.28-.45,12.56a103.53,103.53,0,0,1-1.35,17.05q-1.34,8.07-7.62,11.66-17.05-1.8-27.81-9.87A127,127,0,0,1,595.33,918,69.3,69.3,0,0,0,573.8,901.4q3.59-34.08,5.37-71.76a435.3,435.3,0,0,0-3.57-78q-13.47-15.24-25.13-28.71T528,687q18.84-19.72,49.35-23.77t63.69-5.83a431.24,431.24,0,0,0,57.86-7.18q27.38-5.38,43.52-25.12a16.7,16.7,0,0,0,9.41.9q4.93-.88,9.43-1.8a22.81,22.81,0,0,1,7.62-2.24,69.05,69.05,0,0,1,7.63-.46q6.27,0,12.11,7.19t13,9q1.79,0,8.08-1.8c4.19-1.79,6.57-2.39,7.17-1.79A71,71,0,0,1,851,651.11,189.94,189.94,0,0,0,886,675.33ZM832.17,560.5a166.38,166.38,0,0,0-48.45,1.8q-25.11,4.47-50.24,10.76-9,1.79-17,3.58l-16.15,3.59q-38.58,7.18-71.77,5.38t-55.61-31.4a454.15,454.15,0,0,1,69.52-14.34,481.92,481.92,0,0,0,70.42-14.36,14.45,14.45,0,0,0,4.49-.9A262.16,262.16,0,0,1,746.05,517a63.34,63.34,0,0,1,23.77,0q12.1,2.24,30.95,10.31A89,89,0,0,1,821.85,539Q833.07,547,832.17,560.5ZM818.72,430.41q-3.6,17.05-20.2,22.88T760.85,460a235.46,235.46,0,0,0-38.12,4.48,34.51,34.51,0,0,1-5.39,1.34q-2.7.46-6.28,1.36-20.62,4.47-45.76,7.61t-45.74-3.58q-20.64-6.72-28.71-32.74a262.45,262.45,0,0,1,53.37-10.32A474.39,474.39,0,0,0,695.8,421a127.9,127.9,0,0,0,47.56-20.19q21.51,1.8,44,12.13T818.72,430.41ZM761.3,690.58a238,238,0,0,0-66.84.45q-33.65,4.94-57,17.49a226.22,226.22,0,0,0-2.26,46.2q1.35,21.1,3.15,41.72,1.8,13.47,2.69,26.92t.9,27.81a178.78,178.78,0,0,0,35.43-1.8q18.4-2.68,36.34-6.28c7.18-1.2,14-2.39,20.63-3.59s13.16-2.09,19.75-2.69A226.35,226.35,0,0,0,761.75,787q1.34-27.35.89-52.93T761.3,690.58Zm583.13-145.34q12.57,9,13,17.49t-22.87,13q-18.85,3.6-45.31,2.69t-51.58-2.69q-14.36-.9-27.37-1.35c-8.68-.3-16.29-.45-22.88-.45h-44q-54.72,0-108.55,2.24t-87,17.5q-19.75,11.67-43.52,8.08a84.74,84.74,0,0,1-42.17-18.85q-18.39-15.24-24.66-36.78,22.43,3.6,38.57,1.34t32.3-5.83q11.66-1.8,25.57-4.48a169.9,169.9,0,0,1,31.85-2.69q12.55-18.84,17-45.76t9.88-52.93a301.49,301.49,0,0,1-61.9.9q-33.2-2.69-51.14-25.12,13.46-18.82,39.92-22.43a535.09,535.09,0,0,1,54.28-4.49h15.25a122.61,122.61,0,0,0,15.25-.89,7,7,0,0,1,.9-2.7,377.41,377.41,0,0,0,13.9-50.22q5.82-27.81-9.41-48.45A208.39,208.39,0,0,1,960,285.53q-26.47-1.35-48-10.77t-30.49-26.47q18.83-14.35,47.09-15.25t59.66,0q18,1.8,35.89,1.79a333.23,333.23,0,0,0,35-1.79,21.49,21.49,0,0,1,12.55-7.61,93.4,93.4,0,0,1,17-1.36H1100a83.94,83.94,0,0,0,12.11-.9,86.67,86.67,0,0,0,34.08-13Q1162.32,199.85,1174,199q25.11-1.8,50.69,13t37.23,38.13q-51.14,11.67-96.9,13.46t-99.57,11.65q24.21,12.57,22,36.79a351.44,351.44,0,0,1-8.52,50.24c-1.2,3.6-2.09,6.29-2.69,8.08a56.53,56.53,0,0,0,25.57-.45q12.09-3.14,23.77-6.74,9.87-3.57,20.19-6.27a46.29,46.29,0,0,1,20.18-.9,192.55,192.55,0,0,0,33.64,18.84,252.53,252.53,0,0,1,34.54,18.4q16.15,10.31,23.33,30.05a46.67,46.67,0,0,0-9,3.58q-5.4,1.8-11.22,3.6t-13.89,0a298,298,0,0,0-9.88,41.28q-3.6,21.53-8.07,43.05c8.38,2.4,15.39,3.14,21.08,2.25s11.21-1.94,16.59-3.14q6.29-1.8,13-3.14a35.58,35.58,0,0,1,14.8.45q12.56,3.58,35.88,13T1344.43,545.24ZM1308.55,670q-14.35,6.27-30.51,12.11a118,118,0,0,0-28.7,14.8,597.88,597.88,0,0,1-8.53,71.32,415.66,415.66,0,0,1-21.08,75.8,12.38,12.38,0,0,0,4.94,5.4c2.09,1.2,4.32,2.39,6.72,3.57a46.48,46.48,0,0,1,11.22,9q4.94,5.37,3.14,17.94-70,.9-131.43,2.24t-118,1.34q-4.49,2.7-.9,12.56.88,3.59,1.79,7.63a14.3,14.3,0,0,1-.89,8.52q-14.36,5.37-26.92-4a227.65,227.65,0,0,1-24.22-21.08q-5.38-5.38-10.77-10.77a72.12,72.12,0,0,0-10.76-9q-4.48-15.24-3.14-35t4-41.28q2.68-19.72,4.93-40.37a133.71,133.71,0,0,0-1.34-39.47Q925.47,696,917,687.89t-17.49-15.7A40.17,40.17,0,0,1,886.9,652.9q26-12.55,66.38-15.25t83.44-3.59q29.6,0,58.76-1.34a391.58,391.58,0,0,0,53.38-5.84q12.56-23.31,35.89-19.73A264.62,264.62,0,0,1,1235,620.6q8.05,2.7,16.14,5.83a111,111,0,0,0,16.15,4.94,5.93,5.93,0,0,1-.9,5.38,8.66,8.66,0,0,0-1.79,4.48q12.56,4.5,26.47,9T1308.55,670Zm-146.23,2.69q-21.54-3.58-56.52-4a490.32,490.32,0,0,0-69.53,4q-34.54,4.47-55.17,17.94a205.93,205.93,0,0,1,2.69,33.64v73.12a246.84,246.84,0,0,0,2.69,36.78,633.81,633.81,0,0,0,83.43,1.8,814.47,814.47,0,0,0,81.64-7.18q9.87-28.72,10.77-65.49t0-79V672.64ZM1148,417.85a38.9,38.9,0,0,0-22.88-5.38q-12.11.9-24.66,2.69-9.89,1.8-20.2,3.6a67.72,67.72,0,0,1-22,0,316.09,316.09,0,0,1-20.64,56.52q-12.55,26-22.42,48.44,25.11,3.6,60.1,2.69t58.32-3.58a235.51,235.51,0,0,0,8.52-53.84A345.52,345.52,0,0,1,1148,417.85Z" transform="translate(-99.42 -35.33)"/>
  <path class="cls-7" d="M413.25,1393.07V1371.4h1.64q11.85,0,22.29-7.77t20.24-25.76l45-83a106.29,106.29,0,0,1-25.76-15.74,77.28,77.28,0,0,1-20-25.36q-7.77-15.33-7.77-37,0-36.79,27-56.22t85.06-19.43H692.56v21.68H675.38a25.26,25.26,0,0,0-14.51,4.29q-6.35,4.29-6.34,20.65v199.15q0,16.37,6.34,20.45a26.13,26.13,0,0,0,14.51,4.09h17.18v21.67H551.47V1371.4h17.59a26.18,26.18,0,0,0,14.52-4.09q6.33-4.08,6.34-20.45V1266.3H559.25l-40.9,81.79q-9.81,19.64-21.67,29.24T468.05,1390q-16.77,3.06-41.3,3.06ZM567,1242.58h22.91V1125.22H567.83q-27.41,0-38.85,13.08t-11.45,44.17q0,29.85,10.64,45T567,1242.58Z" transform="translate(-99.42 -35.33)"/>
  <path class="cls-7" d="M1270.79,1393.07V1371.4h5.32q13.89,0,23.71-4.29t9.82-20.65v-42.53q-65.43,0-96.1-25.56t-30.67-83.63v-42.53q0-19.21-9.82-24.33t-23.72-5.11v-21.68h93.24v96.51q0,32.31,6.34,50.3t21.06,25.15q14.73,7.15,39.67,7.16V1148.12q0-16.35-9.82-20.86t-23.71-4.49h-5.32v-21.68h137.4v21.68h-5.31q-13.91,0-23.72,4.49t-9.82,20.86v132.09q25.77,0,40.28-7.36t20.66-25.36q6.13-18,6.13-49.89v-96.51h93.24v21.68q-13.9,0-23.72,5.11t-9.81,24.33v42.53q0,58.48-31.08,83.83t-95.7,25.36v42.53q0,16.35,9.82,20.65t23.72,4.29h5.31v21.67Z" transform="translate(-99.42 -35.33)"/>
  <g>
    <line class="cls-8" x1="958.7" y1="1211.17" x2="684.98" y2="1211.17"/>
    <path class="cls-7" d="M1050.08,1246.5c-20.9,20.9-30.86,62.22-31.68,90.9,28.65-38.5,65.89-72.07,110.93-90.9-45-18-80.64-53.64-110.93-90.9C1020.86,1186.3,1028.36,1223.57,1050.08,1246.5Z" transform="translate(-99.42 -35.33)"/>
    <path class="cls-7" d="M792.45,1246.5c20.9,20.9,30.86,62.22,31.68,90.9-28.65-38.5-65.89-72.07-110.94-90.9,45-18,80.65-53.64,110.94-90.9C821.67,1186.3,814.17,1223.57,792.45,1246.5Z" transform="translate(-99.42 -35.33)"/>
  </g>
</svg>
