<svg id="Mods" xmlns="http://www.w3.org/2000/svg" xmlns:xlink="http://www.w3.org/1999/xlink" viewBox="0 0 1643.73 1771.86">
  <defs>
    <style>
      .cls-1 {
        fill: #6e6e6e;
      }

      .cls-2 {
        fill: url(#Безымянный_градиент_685);
      }

      .cls-3 {
        fill: url(#Безымянный_градиент_272);
      }

      .cls-4 {
        fill: url(#Безымянный_градиент_272-2);
      }

      .cls-5 {
        fill: #7b59ff;
      }

      .cls-6 {
        fill: url(#Безымянный_градиент_563);
      }

      .cls-7 {
        fill: #f6f6f6;
      }
    </style>
    <linearGradient id="Безымянный_градиент_685" data-name="Безымянный градиент 685" x1="99.42" y1="914.43" x2="1743.1" y2="914.43" gradientUnits="userSpaceOnUse">
      <stop offset="0" stop-color="#7626ed"/>
      <stop offset="1" stop-color="#5f2ee0"/>
    </linearGradient>
    <linearGradient id="Безымянный_градиент_272" data-name="Безымянный градиент 272" x1="1277.5" y1="1364.52" x2="1772.86" y2="1364.52" gradientTransform="matrix(1.04, -0.63, 0.52, 0.85, -838.29, 1215.41)" gradientUnits="userSpaceOnUse">
      <stop offset="0.1" stop-color="#181716" stop-opacity="0"/>
      <stop offset="0.5" stop-color="#181716" stop-opacity="0.3"/>
      <stop offset="0.85" stop-color="#181716" stop-opacity="0"/>
    </linearGradient>
    <linearGradient id="Безымянный_градиент_272-2" x1="635.59" y1="889.42" x2="1130.95" y2="889.42" gradientTransform="matrix(-1.04, -0.63, -0.52, 0.85, 1768.54, 1215.41)" xlink:href="#Безымянный_градиент_272"/>
    <linearGradient id="Безымянный_градиент_563" data-name="Безымянный градиент 563" x1="101.44" y1="720.4" x2="1542.24" y2="720.4" gradientUnits="userSpaceOnUse">
      <stop offset="0" stop-color="#7c4eed"/>
      <stop offset="1" stop-color="#5d35bf"/>
    </linearGradient>
  </defs>
  <path class="cls-1" d="M1743.1,452.13v1055c0,165.74-134.35,300.09-300.09,300.09H399.51c-165.73,0-300.09-134.35-300.09-300.09v-1055c0-165.74,247.12-423.57,404.44-382.42h834.8C1496,28.56,1743.1,286.39,1743.1,452.13Z" transform="translate(-99.42 -35.33)"/>
  <path class="cls-2" d="M1743.1,430.3v1055c0,165.74-134.35,300.1-300.09,300.1H399.51c-165.73,0-300.09-134.36-300.09-300.1V430.3c0-165.73,247.12-423.57,404.44-382.42h834.8C1496,6.73,1743.1,264.57,1743.1,430.3Z" transform="translate(-99.42 -35.33)"/>
  <path class="cls-3" d="M1743.05,1490.86c.1,4.29.17,10.75,0,18.58,0,0-.23,8.27-1.21,20.22,0,0-1.93,23.07-5.72,42.28-3.41,17.29-15,61.61-47.59,107.81a302.32,302.32,0,0,1-47.3,52.69c-10.42,9.8-85.86,78.33-197.43,65.49-110.59-12.72-168.37-95.2-176.48-107.22q-82.17-248.87-164.35-497.73L1576,1042.71Q1659.54,1266.79,1743.05,1490.86Z" transform="translate(-99.42 -35.33)"/>
  <path class="cls-4" d="M99.51,1490.86c-.09,4.29-.16,10.75,0,18.58,0,0,.22,8.27,1.2,20.22,0,0,1.94,23.07,5.73,42.28,3.41,17.29,15.05,61.61,47.59,107.81a302.2,302.2,0,0,0,47.29,52.69c10.43,9.8,85.87,78.33,197.44,65.49,110.58-12.72,168.37-95.2,176.48-107.22Q657.46,1441.84,739.64,1193L266.55,1042.71Z" transform="translate(-99.42 -35.33)"/>
  <path class="cls-5" d="M1653.89,346v847.36c0,167.06-136.64,302.49-305.19,302.49H493.82c-168.55,0-305.18-135.43-305.18-302.49V346c0-167.06,136.63-302.49,305.18-302.49H1348.7C1517.25,43.5,1653.89,178.93,1653.89,346Z" transform="translate(-99.42 -35.33)"/>
  <rect class="cls-6" x="101.44" width="1440.8" height="1440.8" rx="300.09"/>
  <path class="cls-7" d="M1473.65,881.37l-75.92-32c-5.48-2.3-9.44-13.26-9.44-26V716c0-12.77,4-23.73,9.44-26l75.92-32a9.58,9.58,0,0,0,5.63-10.87,568.86,568.86,0,0,0-77.08-185.92,9.57,9.57,0,0,0-11.66-3.7l-76.29,31c-5.49,2.24-16-2.7-25.08-11.73l-75.85-75.85c-9-9-14-19.58-11.73-25.08l31-76.29a9.57,9.57,0,0,0-3.7-11.66A568.63,568.63,0,0,0,1043,210.81a9.58,9.58,0,0,0-10.87,5.63l-32,75.92c-2.31,5.47-13.26,9.44-26,9.44H866.79c-12.78,0-23.73-4-26-9.44l-32-75.92a9.58,9.58,0,0,0-10.87-5.63,568.65,568.65,0,0,0-185.92,77.08,9.57,9.57,0,0,0-3.7,11.66l31,76.28c2.24,5.5-2.7,16.05-11.73,25.08l-75.85,75.85c-9,9-19.59,14-25.08,11.73l-76.29-31a9.57,9.57,0,0,0-11.66,3.7A568.84,568.84,0,0,0,361.56,647.1,9.57,9.57,0,0,0,367.19,658l75.91,32c5.48,2.3,9.44,13.26,9.44,26V823.3c0,12.77-4,23.73-9.44,26l-75.91,32a9.57,9.57,0,0,0-5.63,10.87,568.84,568.84,0,0,0,77.07,185.92,9.57,9.57,0,0,0,11.66,3.7l76.29-31c5.49-2.24,16,2.7,25.08,11.73l75.85,75.85c9,9,14,19.58,11.73,25.08l-31,76.28a9.57,9.57,0,0,0,3.7,11.66,568.65,568.65,0,0,0,185.92,77.08,9.57,9.57,0,0,0,10.87-5.63l32-75.92c2.31-5.47,13.26-9.44,26-9.44H974c12.78,0,23.73,4,26,9.44l32,75.92a9.57,9.57,0,0,0,10.87,5.63,568.63,568.63,0,0,0,185.92-77.07,9.57,9.57,0,0,0,3.7-11.66l-31-76.29c-2.24-5.5,2.7-16,11.73-25.08l75.85-75.85c9-9,19.59-14,25.08-11.73l76.29,31a9.57,9.57,0,0,0,11.66-3.7,568.86,568.86,0,0,0,77.08-185.92A9.58,9.58,0,0,0,1473.65,881.37Zm-211.33,85.69-341.9,197.4-341.9-197.4V572.27l341.9-197.4,341.9,197.4Z" transform="translate(-99.42 -35.33)"/>
  <polygon class="cls-7" points="784.61 756.37 784.61 1036.93 541.64 896.65 541.64 616.1 784.61 756.37"/>
  <polygon class="cls-7" points="1063.97 553.07 821 693.35 578.03 553.07 821 412.79 1063.97 553.07"/>
  <polygon class="cls-7" points="1100.36 616.1 1100.36 896.65 857.39 1036.93 857.39 756.37 1100.36 616.1"/>
</svg>
