<svg id="Phoenician" xmlns="http://www.w3.org/2000/svg" xmlns:xlink="http://www.w3.org/1999/xlink" viewBox="0 0 1643.73 1771.86">
  <defs>
    <style>
      .cls-1 {
        fill: #6e6e6e;
      }

      .cls-2 {
        fill: url(#Безымянный_градиент_94);
      }

      .cls-3 {
        fill: url(#Безымянный_градиент_272);
      }

      .cls-4 {
        fill: url(#Безымянный_градиент_272-2);
      }

      .cls-5 {
        fill: #c87ad6;
      }

      .cls-6 {
        fill: url(#Безымянный_градиент_257);
      }

      .cls-7 {
        fill: #e9b8ff;
      }
    </style>
    <linearGradient id="Безымянный_градиент_94" data-name="Безымянный градиент 94" x1="99.42" y1="914.43" x2="1743.1" y2="914.43" gradientUnits="userSpaceOnUse">
      <stop offset="0" stop-color="#d43174"/>
      <stop offset="1" stop-color="#600039"/>
    </linearGradient>
    <linearGradient id="Безымянный_градиент_272" data-name="Безымянный градиент 272" x1="1277.5" y1="1364.52" x2="1772.86" y2="1364.52" gradientTransform="matrix(1.04, -0.63, 0.52, 0.85, -838.29, 1215.41)" gradientUnits="userSpaceOnUse">
      <stop offset="0.1" stop-color="#181716" stop-opacity="0"/>
      <stop offset="0.5" stop-color="#181716" stop-opacity="0.3"/>
      <stop offset="0.85" stop-color="#181716" stop-opacity="0"/>
    </linearGradient>
    <linearGradient id="Безымянный_градиент_272-2" x1="635.59" y1="889.42" x2="1130.95" y2="889.42" gradientTransform="matrix(-1.04, -0.63, -0.52, 0.85, 1768.54, 1215.41)" xlink:href="#Безымянный_градиент_272"/>
    <linearGradient id="Безымянный_градиент_257" data-name="Безымянный градиент 257" x1="101.44" y1="720.4" x2="1542.24" y2="720.4" gradientUnits="userSpaceOnUse">
      <stop offset="0" stop-color="#c87ad6"/>
      <stop offset="1" stop-color="#6f317f"/>
    </linearGradient>
  </defs>
  <path class="cls-1" d="M1743.1,452.13v1055c0,165.74-134.35,300.09-300.09,300.09H399.51c-165.73,0-300.09-134.35-300.09-300.09v-1055c0-165.74,247.12-423.57,404.44-382.42h834.8C1496,28.56,1743.1,286.39,1743.1,452.13Z" transform="translate(-99.42 -35.33)"/>
  <path class="cls-2" d="M1743.1,430.3v1055c0,165.74-134.35,300.1-300.09,300.1H399.51c-165.73,0-300.09-134.36-300.09-300.1V430.3c0-165.73,247.12-423.57,404.44-382.42h834.8C1496,6.73,1743.1,264.57,1743.1,430.3Z" transform="translate(-99.42 -35.33)"/>
  <path class="cls-3" d="M1743.05,1490.86c.1,4.29.17,10.75,0,18.58,0,0-.23,8.27-1.21,20.22,0,0-1.93,23.07-5.72,42.28-3.41,17.29-15,61.61-47.59,107.81a302.32,302.32,0,0,1-47.3,52.69c-10.42,9.8-85.86,78.33-197.43,65.49-110.59-12.72-168.37-95.2-176.48-107.22q-82.17-248.87-164.35-497.73L1576,1042.71Q1659.54,1266.79,1743.05,1490.86Z" transform="translate(-99.42 -35.33)"/>
  <path class="cls-4" d="M99.51,1490.86c-.09,4.29-.16,10.75,0,18.58,0,0,.22,8.27,1.2,20.22,0,0,1.94,23.07,5.73,42.28,3.41,17.29,15.05,61.61,47.59,107.81a302.2,302.2,0,0,0,47.29,52.69c10.43,9.8,85.87,78.33,197.44,65.49,110.58-12.72,168.37-95.2,176.48-107.22Q657.46,1441.84,739.64,1193L266.55,1042.71Z" transform="translate(-99.42 -35.33)"/>
  <path class="cls-5" d="M1653.89,346v847.36c0,167.06-136.64,302.49-305.19,302.49H493.82c-168.55,0-305.18-135.43-305.18-302.49V346c0-167.06,136.63-302.49,305.18-302.49H1348.7C1517.25,43.5,1653.89,178.93,1653.89,346Z" transform="translate(-99.42 -35.33)"/>
  <rect class="cls-6" x="101.44" width="1440.8" height="1440.8" rx="300.09"/>
  <path class="cls-7" d="M1262.18,257.35q0-1-.09-2l0-.44c0-.66-.1-1.33-.16-2-.14-1.47-.33-2.93-.57-4.36a68.82,68.82,0,0,0-12.58-29.79c-.43-.56-.85-1.13-1.29-1.68l-.06-.08c-.9-1.13-1.82-2.23-2.79-3.32-.49-.54-1-1.08-1.5-1.61s-1-1-1.53-1.56-1-1-1.56-1.49a.52.52,0,0,0-.11-.1c-.44-.41-.9-.82-1.36-1.23-.67-.58-1.34-1.16-2-1.72l-1.63-1.27c-1.18-.89-2.39-1.77-3.63-2.6-.63-.42-1.26-.82-1.9-1.22s-1.44-.88-2.17-1.3c-.36-.21-.74-.42-1.1-.61a71.54,71.54,0,0,0-23.44-8l-1.29-.19-1.17-.14c-.82-.1-1.64-.19-2.46-.25l-1.23-.1-2-.11c-1,0-2-.06-3-.06q-1.82,0-3.63.09l-.59,0c-1.16.06-2.33.16-3.5.29l-1.9.22h-.08l-1.86.28-1.92.34a72.43,72.43,0,0,0-16.75,5.4l-1.14.53L534.75,479.68a68.91,68.91,0,0,0,0,125.5l586.13,264.07v331.92H605.28c-39,0-70.67,31.08-70.67,69.42S566.25,1340,605.28,1340h586.27c39,0,70.67-31.08,70.67-69.43v-1011C1262.22,258.83,1262.21,258.09,1262.18,257.35Zm-532,285.08,390.69-173.19V715.63Z" transform="translate(-99.42 -35.33)"/>
</svg>
