<svg id="Glagolitic" xmlns="http://www.w3.org/2000/svg" xmlns:xlink="http://www.w3.org/1999/xlink" viewBox="0 0 1643.73 1771.86">
  <defs>
    <style>
      .cls-1 {
        fill: #6e6e6e;
      }

      .cls-2 {
        fill: url(#Безымянный_градиент_166);
      }

      .cls-3 {
        fill: url(#Безымянный_градиент_272);
      }

      .cls-4 {
        fill: url(#Безымянный_градиент_272-2);
      }

      .cls-5 {
        fill: #f44765;
      }

      .cls-6 {
        fill: url(#Безымянный_градиент_236);
      }

      .cls-7 {
        fill: #f9c138;
      }
    </style>
    <linearGradient id="Безымянный_градиент_166" data-name="Безымянный градиент 166" x1="99.42" y1="914.43" x2="1743.1" y2="914.43" gradientUnits="userSpaceOnUse">
      <stop offset="0" stop-color="#f40b34"/>
      <stop offset="1" stop-color="#a50f01"/>
    </linearGradient>
    <linearGradient id="Безымянный_градиент_272" data-name="Безымянный градиент 272" x1="1277.5" y1="1364.52" x2="1772.86" y2="1364.52" gradientTransform="matrix(1.04, -0.63, 0.52, 0.85, -838.29, 1215.41)" gradientUnits="userSpaceOnUse">
      <stop offset="0.1" stop-color="#181716" stop-opacity="0"/>
      <stop offset="0.5" stop-color="#181716" stop-opacity="0.3"/>
      <stop offset="0.85" stop-color="#181716" stop-opacity="0"/>
    </linearGradient>
    <linearGradient id="Безымянный_градиент_272-2" x1="635.59" y1="889.42" x2="1130.95" y2="889.42" gradientTransform="matrix(-1.04, -0.63, -0.52, 0.85, 1768.54, 1215.41)" xlink:href="#Безымянный_градиент_272"/>
    <linearGradient id="Безымянный_градиент_236" data-name="Безымянный градиент 236" x1="101.44" y1="720.4" x2="1542.24" y2="720.4" gradientUnits="userSpaceOnUse">
      <stop offset="0" stop-color="#f44765"/>
      <stop offset="1" stop-color="#940406"/>
    </linearGradient>
  </defs>
  <path class="cls-1" d="M1743.1,452.13v1055c0,165.74-134.35,300.09-300.09,300.09H399.51c-165.73,0-300.09-134.35-300.09-300.09v-1055c0-165.74,247.12-423.57,404.44-382.42h834.8C1496,28.56,1743.1,286.39,1743.1,452.13Z" transform="translate(-99.42 -35.33)"/>
  <path class="cls-2" d="M1743.1,430.3v1055c0,165.74-134.35,300.1-300.09,300.1H399.51c-165.73,0-300.09-134.36-300.09-300.1V430.3c0-165.73,247.12-423.57,404.44-382.42h834.8C1496,6.73,1743.1,264.57,1743.1,430.3Z" transform="translate(-99.42 -35.33)"/>
  <path class="cls-3" d="M1743.05,1490.86c.1,4.29.17,10.75,0,18.58,0,0-.23,8.27-1.21,20.22,0,0-1.93,23.07-5.72,42.28-3.41,17.29-15,61.61-47.59,107.81a302.32,302.32,0,0,1-47.3,52.69c-10.42,9.8-85.86,78.33-197.43,65.49-110.59-12.72-168.37-95.2-176.48-107.22q-82.17-248.87-164.35-497.73L1576,1042.71Q1659.54,1266.79,1743.05,1490.86Z" transform="translate(-99.42 -35.33)"/>
  <path class="cls-4" d="M99.51,1490.86c-.09,4.29-.16,10.75,0,18.58,0,0,.22,8.27,1.2,20.22,0,0,1.94,23.07,5.73,42.28,3.41,17.29,15.05,61.61,47.59,107.81a302.2,302.2,0,0,0,47.29,52.69c10.43,9.8,85.87,78.33,197.44,65.49,110.58-12.72,168.37-95.2,176.48-107.22Q657.46,1441.84,739.64,1193L266.55,1042.71Z" transform="translate(-99.42 -35.33)"/>
  <path class="cls-5" d="M1653.89,346v847.36c0,167.06-136.64,302.49-305.19,302.49H493.82c-168.55,0-305.18-135.43-305.18-302.49V346c0-167.06,136.63-302.49,305.18-302.49H1348.7C1517.25,43.5,1653.89,178.93,1653.89,346Z" transform="translate(-99.42 -35.33)"/>
  <rect class="cls-6" x="101.44" width="1440.8" height="1440.8" rx="300.09"/>
  <path class="cls-7" d="M711.73,724.14c-100.09,0-201.52-9.34-273.58-41.37C360.74,650.74,306,592,306,481.25c25.36-73.4,93.42-130.79,177.5-148.14,40-6.67,77.41-10.67,110.77-10.67,26.69,0,82.74,0,89.42,13.34C733.09,433.2,787.8,537.3,839.85,629.39c45.38,0,77.41,17.35,98.76,40,4,5.34,8,8,9.34,8s2.67-2.67,4-6.67c0-80.08,12-126.79,32-188.18,30.69-102.76,138.79-158.81,270.91-158.81,114.77,0,201.52,42.71,244.23,116.11,14.68,26.69,22.69,57.38,22.69,93.42v13.34c0,4,0,9.34-1.34,13.35H1369.67C1359,485.25,1324.3,425.2,1242.89,425.2c-60.05,0-100.09,37.37-124.11,82.74-16,29.36-17.35,89.42-17.35,141.46v80.08h258.9V846.92H1100.09c0,30.7-2.67,62.73-2.67,96.09,0,122.78,37.37,200.18,162.82,200.18,85.41,0,117.44-89.41,117.44-174.82h157.48c1.34,5.33,1.34,10.67,1.34,18.68v20c0,44-6.68,97.42-25.36,122.78-41.37,64.06-126.79,92.08-232.22,92.08-144.13,0-229.54-38.7-285.59-126.78-4-4-6.68-13.35-10.68-29.36C973.31,1012.41,960,940.34,960,881.62c0-4-1.33-5.34-2.67-5.34s-4,2.67-8,8c-16,25.36-52,42.7-96.09,42.7-22.69,92.09-69.4,166.83-134.79,225.55-30.7,29.36-70.74,52-117.45,68.06-16,2.67-32,6.67-50.71,6.67-117.44,0-208.19-48-236.22-142.8,0-122.78,62.73-189.5,164.15-214.86,69.4-16,152.14-22.69,232.22-22.69-12-2.67-14.68-44-14.68-61.39C695.72,765.51,697.05,726.81,711.73,724.14Zm-16-98.76V614.71c0-69.4-34.7-136.13-76.07-169.49-20-16-44-24-74.74-24-54.72,0-104.09,34.7-104.09,90.75,0,74.74,89.41,100.1,154.8,109.44a443,443,0,0,0,66.73,5.34C674.36,626.72,683.71,625.38,695.72,625.38ZM532.9,1128.51c114.77,0,160.15-105.43,170.82-205.52-88.08,0-177.49,18.68-226.87,62.73-17.35,16-26.69,37.36-26.69,64C450.16,1100.49,474.18,1128.51,532.9,1128.51ZM762.45,776.19c0,41.37,37.36,82.74,78.74,82.74,44,0,76.07-24,88.08-54.72,4-9.34,5.34-16,5.34-22.68,0-33.37-24-62.73-45.38-77.41a57.12,57.12,0,0,0-29.36-8C807.82,696.11,762.45,729.48,762.45,776.19Z" transform="translate(-99.42 -35.33)"/>
</svg>
