<svg id="Settings" xmlns="http://www.w3.org/2000/svg" xmlns:xlink="http://www.w3.org/1999/xlink" viewBox="0 0 1643.73 1771.86">
  <defs>
    <style>
      .cls-1 {
        fill: #6e6e6e;
      }

      .cls-2 {
        fill: url(#Безымянный_градиент_789);
      }

      .cls-3 {
        fill: url(#Безымянный_градиент_272);
      }

      .cls-4 {
        fill: url(#Безымянный_градиент_272-2);
      }

      .cls-5 {
        fill: #afc1ff;
      }

      .cls-6 {
        fill: url(#Безымянный_градиент_732);
      }

      .cls-7 {
        fill: #f6f6f6;
      }
    </style>
    <linearGradient id="Безымянный_градиент_789" data-name="Безымянный градиент 789" x1="99.42" y1="914.43" x2="1743.1" y2="914.43" gradientUnits="userSpaceOnUse">
      <stop offset="0" stop-color="#6574a6"/>
      <stop offset="1" stop-color="#687398"/>
    </linearGradient>
    <linearGradient id="Безымянный_градиент_272" data-name="Безымянный градиент 272" x1="1277.5" y1="1364.52" x2="1772.86" y2="1364.52" gradientTransform="matrix(1.04, -0.63, 0.52, 0.85, -838.29, 1215.41)" gradientUnits="userSpaceOnUse">
      <stop offset="0.1" stop-color="#181716" stop-opacity="0"/>
      <stop offset="0.5" stop-color="#181716" stop-opacity="0.3"/>
      <stop offset="0.85" stop-color="#181716" stop-opacity="0"/>
    </linearGradient>
    <linearGradient id="Безымянный_градиент_272-2" x1="635.59" y1="889.42" x2="1130.95" y2="889.42" gradientTransform="matrix(-1.04, -0.63, -0.52, 0.85, 1768.54, 1215.41)" xlink:href="#Безымянный_градиент_272"/>
    <linearGradient id="Безымянный_градиент_732" data-name="Безымянный градиент 732" x1="101.44" y1="720.4" x2="1542.24" y2="720.4" gradientUnits="userSpaceOnUse">
      <stop offset="0" stop-color="#8593c4"/>
      <stop offset="1" stop-color="#687398"/>
    </linearGradient>
  </defs>
  <path class="cls-1" d="M1743.1,452.13v1055c0,165.74-134.35,300.09-300.09,300.09H399.51c-165.73,0-300.09-134.35-300.09-300.09v-1055c0-165.74,247.12-423.57,404.44-382.42h834.8C1496,28.56,1743.1,286.39,1743.1,452.13Z" transform="translate(-99.42 -35.33)"/>
  <path class="cls-2" d="M1743.1,430.3v1055c0,165.74-134.35,300.1-300.09,300.1H399.51c-165.73,0-300.09-134.36-300.09-300.1V430.3c0-165.73,247.12-423.57,404.44-382.42h834.8C1496,6.73,1743.1,264.57,1743.1,430.3Z" transform="translate(-99.42 -35.33)"/>
  <path class="cls-3" d="M1743.05,1490.86c.1,4.29.17,10.75,0,18.58,0,0-.23,8.27-1.21,20.22,0,0-1.93,23.07-5.72,42.28-3.41,17.29-15,61.61-47.59,107.81a302.32,302.32,0,0,1-47.3,52.69c-10.42,9.8-85.86,78.33-197.43,65.49-110.59-12.72-168.37-95.2-176.48-107.22q-82.17-248.87-164.35-497.73L1576,1042.71Q1659.54,1266.79,1743.05,1490.86Z" transform="translate(-99.42 -35.33)"/>
  <path class="cls-4" d="M99.51,1490.86c-.09,4.29-.16,10.75,0,18.58,0,0,.22,8.27,1.2,20.22,0,0,1.94,23.07,5.73,42.28,3.41,17.29,15.05,61.61,47.59,107.81a302.2,302.2,0,0,0,47.29,52.69c10.43,9.8,85.87,78.33,197.44,65.49,110.58-12.72,168.37-95.2,176.48-107.22Q657.46,1441.84,739.64,1193L266.55,1042.71Z" transform="translate(-99.42 -35.33)"/>
  <path class="cls-5" d="M1653.89,346v847.36c0,167.06-136.64,302.49-305.19,302.49H493.82c-168.55,0-305.18-135.43-305.18-302.49V346c0-167.06,136.63-302.49,305.18-302.49H1348.7C1517.25,43.5,1653.89,178.93,1653.89,346Z" transform="translate(-99.42 -35.33)"/>
  <rect class="cls-6" x="101.44" width="1440.8" height="1440.8" rx="300.09"/>
  <path class="cls-7" d="M1388.29,823.31V716c0-12.77,4-23.73,9.44-26l75.93-32a9.58,9.58,0,0,0,5.62-10.88,568.7,568.7,0,0,0-77.07-185.91,9.57,9.57,0,0,0-11.67-3.71l-76.28,31c-5.5,2.24-16-2.7-25.09-11.73l-75.84-75.84c-9-9-14-19.59-11.74-25.09l31-76.29a9.57,9.57,0,0,0-3.7-11.66A568.66,568.66,0,0,0,1043,210.81a9.6,9.6,0,0,0-10.88,5.63l-32,75.93c-2.32,5.46-13.27,9.44-26.05,9.44H866.79c-12.78,0-23.73-4-26-9.44l-32-75.93a9.58,9.58,0,0,0-10.87-5.63,568.65,568.65,0,0,0-185.92,77.08,9.58,9.58,0,0,0-3.7,11.67l31,76.27c2.24,5.5-2.7,16.06-11.73,25.09l-75.84,75.84c-9,9-19.6,14-25.09,11.73l-76.29-31a9.57,9.57,0,0,0-11.66,3.71A568.7,568.7,0,0,0,361.56,647.1,9.58,9.58,0,0,0,367.19,658l75.92,32c5.47,2.3,9.44,13.26,9.44,26V823.31c0,12.77-4,23.72-9.44,26l-75.92,32a9.6,9.6,0,0,0-5.63,10.88,568.88,568.88,0,0,0,77.07,185.91,9.58,9.58,0,0,0,11.66,3.71l76.29-31c5.49-2.24,16,2.7,25.09,11.74l75.84,75.84c9,9,14,19.58,11.73,25.09l-31,76.27a9.58,9.58,0,0,0,3.7,11.67,568.86,568.86,0,0,0,185.92,77.08,9.58,9.58,0,0,0,10.87-5.63l32-75.93c2.31-5.46,13.26-9.44,26-9.44H974c12.78,0,23.73,4,26.05,9.44l32,75.93a9.6,9.6,0,0,0,10.88,5.63,568.88,568.88,0,0,0,185.91-77.07,9.58,9.58,0,0,0,3.7-11.67l-31-76.28c-2.24-5.51,2.7-16.06,11.74-25.09l75.84-75.84c9-9,19.59-14,25.09-11.74l76.28,31a9.6,9.6,0,0,0,11.67-3.71,568.7,568.7,0,0,0,77.07-185.91,9.58,9.58,0,0,0-5.62-10.88l-75.93-32C1392.26,847,1388.29,836.08,1388.29,823.31ZM921.31,1036C774.23,1036,655,916.74,655,769.66s119.25-266.3,266.33-266.3,266.31,119.22,266.31,266.3S1068.39,1036,921.31,1036Z" transform="translate(-99.42 -35.33)"/>
</svg>
