<svg id="Space" xmlns="http://www.w3.org/2000/svg" xmlns:xlink="http://www.w3.org/1999/xlink" viewBox="0 0 4347.92 1771.86">
  <defs>
    <style>
      .cls-1 {
        fill: #6e6e6e;
      }

      .cls-2 {
        fill: url(#Безымянный_градиент_405);
      }

      .cls-3 {
        fill: url(#Безымянный_градиент_272);
      }

      .cls-4 {
        fill: url(#Безымянный_градиент_272-2);
      }

      .cls-5 {
        fill: #f4f4f4;
      }

      .cls-6 {
        fill: url(#Безымянный_градиент_436);
      }

      .cls-7 {
        fill: none;
        stroke: #444;
        stroke-miterlimit: 10;
        stroke-width: 25px;
      }
    </style>
    <linearGradient id="Безымянный_градиент_405" data-name="Безымянный градиент 405" x1="2037.3" y1="914.43" x2="6385.18" y2="914.43" gradientUnits="userSpaceOnUse">
      <stop offset="0" stop-color="#e0e0e0"/>
      <stop offset="1" stop-color="#969696"/>
    </linearGradient>
    <linearGradient id="Безымянный_градиент_272" data-name="Безымянный градиент 272" x1="4543.73" y1="3781.94" x2="5039.09" y2="3781.94" gradientTransform="matrix(1.04, -0.63, 0.52, 0.85, -838.29, 1215.41)" gradientUnits="userSpaceOnUse">
      <stop offset="0.1" stop-color="#181716" stop-opacity="0"/>
      <stop offset="0.5" stop-color="#181716" stop-opacity="0.3"/>
      <stop offset="0.85" stop-color="#181716" stop-opacity="0"/>
    </linearGradient>
    <linearGradient id="Безымянный_градиент_272-2" x1="-727.93" y1="-119.75" x2="-232.57" y2="-119.75" gradientTransform="matrix(-1.04, -0.63, -0.52, 0.85, 1768.54, 1215.41)" xlink:href="#Безымянный_градиент_272"/>
    <linearGradient id="Безымянный_градиент_436" data-name="Безымянный градиент 436" x1="101.44" y1="720.4" x2="4246.43" y2="720.4" gradientUnits="userSpaceOnUse">
      <stop offset="0" stop-color="#f2f2f2"/>
      <stop offset="1" stop-color="#a8a8a8"/>
    </linearGradient>
  </defs>
  <path class="cls-1" d="M6385.18,452.13v1055c0,165.74-134.36,300.09-300.1,300.09H2337.39c-165.73,0-300.09-134.35-300.09-300.09v-1055c0-165.74,247.11-423.57,404.44-382.42h3539C6138.06,28.56,6385.18,286.39,6385.18,452.13Z" transform="translate(-2037.3 -35.33)"/>
  <path class="cls-2" d="M6385.18,430.3v1055c0,165.74-134.36,300.1-300.1,300.1H2337.39c-165.73,0-300.09-134.36-300.09-300.1V430.3c0-165.73,247.11-423.57,404.44-382.42h3539C6138.06,6.73,6385.18,264.57,6385.18,430.3Z" transform="translate(-2037.3 -35.33)"/>
  <path class="cls-3" d="M6385.12,1490.86c.1,4.29.17,10.75,0,18.58,0,0-.23,8.27-1.21,20.22,0,0-1.93,23.07-5.72,42.28-3.41,17.29-15,61.61-47.59,107.81a302.32,302.32,0,0,1-47.3,52.69c-10.42,9.8-85.86,78.33-197.43,65.49-110.58-12.72-168.37-95.2-176.48-107.22Q5827.18,1441.84,5745,1193l473.09-150.27Q6301.61,1266.79,6385.12,1490.86Z" transform="translate(-2037.3 -35.33)"/>
  <path class="cls-4" d="M2037.39,1490.86c-.09,4.29-.17,10.75,0,18.58,0,0,.22,8.27,1.2,20.22,0,0,1.93,23.07,5.72,42.28,3.42,17.29,15,61.61,47.59,107.81a302.32,302.32,0,0,0,47.3,52.69c10.43,9.8,85.87,78.33,197.44,65.49,110.58-12.72,168.37-95.2,176.48-107.22L2677.51,1193l-473.08-150.27Z" transform="translate(-2037.3 -35.33)"/>
  <path class="cls-5" d="M6296,346v847.36c0,167.06-136.64,302.49-305.18,302.49H2431.7c-168.55,0-305.18-135.43-305.18-302.49V346c0-167.06,136.63-302.49,305.18-302.49H5990.78C6159.32,43.5,6296,178.93,6296,346Z" transform="translate(-2037.3 -35.33)"/>
  <rect class="cls-6" x="101.44" width="4144.99" height="1440.8" rx="300.09"/>
  <line class="cls-7" x1="1620.07" y1="1292.99" x2="2662.5" y2="1292.99"/>
</svg>
