<svg id="NamViet" xmlns="http://www.w3.org/2000/svg" xmlns:xlink="http://www.w3.org/1999/xlink" viewBox="0 0 1643.73 1771.86">
  <defs>
    <style>
      .cls-1 {
        fill: #6e6e6e;
      }

      .cls-2 {
        fill: url(#Безымянный_градиент_300);
      }

      .cls-3 {
        fill: url(#Безымянный_градиент_272);
      }

      .cls-4 {
        fill: url(#Безымянный_градиент_272-2);
      }

      .cls-5 {
        fill: #34a9e1;
      }

      .cls-6 {
        fill: url(#Безымянный_градиент_345);
      }

      .cls-7 {
        fill: #eee;
      }
    </style>
    <linearGradient id="Безымянный_градиент_300" data-name="Безымянный градиент 300" x1="99.42" y1="914.43" x2="1743.1" y2="914.43" gradientUnits="userSpaceOnUse">
      <stop offset="0" stop-color="#d32e44"/>
      <stop offset="1" stop-color="#870022"/>
    </linearGradient>
    <linearGradient id="Безымянный_градиент_272" data-name="Безымянный градиент 272" x1="1277.5" y1="1364.52" x2="1772.86" y2="1364.52" gradientTransform="matrix(1.04, -0.63, 0.52, 0.85, -838.29, 1215.41)" gradientUnits="userSpaceOnUse">
      <stop offset="0.1" stop-color="#181716" stop-opacity="0"/>
      <stop offset="0.5" stop-color="#181716" stop-opacity="0.3"/>
      <stop offset="0.85" stop-color="#181716" stop-opacity="0"/>
    </linearGradient>
    <linearGradient id="Безымянный_градиент_272-2" x1="635.59" y1="889.42" x2="1130.95" y2="889.42" gradientTransform="matrix(-1.04, -0.63, -0.52, 0.85, 1768.54, 1215.41)" xlink:href="#Безымянный_градиент_272"/>
    <linearGradient id="Безымянный_градиент_345" data-name="Безымянный градиент 345" x1="101.44" y1="720.4" x2="1542.24" y2="720.4" gradientUnits="userSpaceOnUse">
      <stop offset="0" stop-color="#4fb6ff"/>
      <stop offset="1" stop-color="#0038a8"/>
    </linearGradient>
  </defs>
  <path class="cls-1" d="M1743.1,452.13v1055c0,165.74-134.35,300.09-300.09,300.09H399.51c-165.73,0-300.09-134.35-300.09-300.09v-1055c0-165.74,247.12-423.57,404.44-382.42h834.8C1496,28.56,1743.1,286.39,1743.1,452.13Z" transform="translate(-99.42 -35.33)"/>
  <path class="cls-2" d="M1743.1,430.3v1055c0,165.74-134.35,300.1-300.09,300.1H399.51c-165.73,0-300.09-134.36-300.09-300.1V430.3c0-165.73,247.12-423.57,404.44-382.42h834.8C1496,6.73,1743.1,264.57,1743.1,430.3Z" transform="translate(-99.42 -35.33)"/>
  <path class="cls-3" d="M1743.05,1490.86c.1,4.29.17,10.75,0,18.58,0,0-.23,8.27-1.21,20.22,0,0-1.93,23.07-5.72,42.28-3.41,17.29-15,61.61-47.59,107.81a302.32,302.32,0,0,1-47.3,52.69c-10.42,9.8-85.86,78.33-197.43,65.49-110.59-12.72-168.37-95.2-176.48-107.22q-82.17-248.87-164.35-497.73L1576,1042.71Q1659.54,1266.79,1743.05,1490.86Z" transform="translate(-99.42 -35.33)"/>
  <path class="cls-4" d="M99.51,1490.86c-.09,4.29-.16,10.75,0,18.58,0,0,.22,8.27,1.2,20.22,0,0,1.94,23.07,5.73,42.28,3.41,17.29,15.05,61.61,47.59,107.81a302.2,302.2,0,0,0,47.29,52.69c10.43,9.8,85.87,78.33,197.44,65.49,110.58-12.72,168.37-95.2,176.48-107.22Q657.46,1441.84,739.64,1193L266.55,1042.71Z" transform="translate(-99.42 -35.33)"/>
  <path class="cls-5" d="M1653.89,346v847.36c0,167.06-136.64,302.49-305.19,302.49H493.82c-168.55,0-305.18-135.43-305.18-302.49V346c0-167.06,136.63-302.49,305.18-302.49H1348.7C1517.25,43.5,1653.89,178.93,1653.89,346Z" transform="translate(-99.42 -35.33)"/>
  <rect class="cls-6" x="101.44" width="1440.8" height="1440.8" rx="300.09"/>
  <path class="cls-7" d="M1507.52,1188.27q2.55,5.13.63,9a30,30,0,0,1-5.75,7.68c-1.71,2.56-3.43,5.33-5.12,8.32s-2.56,7-2.56,12.15q-12.79,35.82-42.86,55t-67.81,28.8q-37.75,9.58-72.3,16a605.16,605.16,0,0,1-94,8.33,276.92,276.92,0,0,1-94-14.72q-44.81-15.37-78-53.74c-4.28.85-7.47.85-9.6,0s-4.47-1.71-7-2.56c-1.71-.86-3.64-1.71-5.77-2.56s-4.91-.86-8.32,0q-70.38-51.18-145.21-98.51a851.51,851.51,0,0,0-161.84-79.33,134.93,134.93,0,0,0-44.78-49.25,274.28,274.28,0,0,0-61.43-30.08q-46.06,89.57-96.59,158T375.2,1270.16q-24.31,0-38.38-9.59t-33.27-14.72q87-56.3,143.3-148.42A1611.57,1611.57,0,0,0,547.94,903a56.12,56.12,0,0,0-12.81-15.35c-5.12-4.25-10.22-8.53-15.35-12.8a163.32,163.32,0,0,1-23-22.38q-10.25-12.15-6.4-33.92h6.4q29.44,3.84,64.62,9t62,18.56q26.87,13.44,32.63,37.74t-23.67,64q9,12.79,25,19.19T690,978.44q0-14.07,1.26-30.07T693.78,917q3.84-51.18,3.84-100.43T672,735.35q-40.95,2.56-71.65,23.68t-65.25,45.41q-55-2.55-91.47-36.47T388,690.57q6.38-12.78,28.78-11.51t28.78,11.51q30.71-14.07,74.85-19.19t90.84-7.68q46.69-2.55,83.8-7.67a187.57,187.57,0,0,0,1.28-23V606.13a212.55,212.55,0,0,1-1.28-23.68V556.23q-12.79-7.68-27.5-1.28T637.5,569a192.91,192.91,0,0,1-29.44,15.36q-15.36,6.39-29.43,1.28t-23-19.19q-9-14.07-16.63-25.59-2.57-3.84-13.43-7T512.1,526.8q-2.57-3.84,0-11.51v-3.84q-2.57-2.55-7.66-7.68a93.46,93.46,0,0,1-17.93-24.3q-6.39-12.8,3.84-42.23,26.86-1.28,46.7,3.21a328.22,328.22,0,0,1,37.76,10.87,381.06,381.06,0,0,0,50.53,12.16Q651.56,468,690,457.71a194,194,0,0,0,1.91-34.54,297.56,297.56,0,0,0-3.19-33.27q-1.3-14.07-2.56-29.42a196.29,196.29,0,0,1,0-32q-21.75-25.59-41.59-53.1T614.47,209.5q38.35-16.62,80-5.11a170.58,170.58,0,0,1,72.28,40.29q30.7,28.79,34.56,63.34-16.66,19.2-19.21,50.53t-2.54,74.85v9q16.61,1.29,24.94-5.75a121,121,0,0,0,14.72-14.72,51.06,51.06,0,0,0,6.4-7.68,22.61,22.61,0,0,1,6.38-6.4q19.21,3.84,43.5,17.92A222.79,222.79,0,0,1,919,458.36q19.21,18.56,24.31,39-29.43,20.48-70.37,26.23t-80.6,8.31q-15.36,16.64-19.83,46.71t-7,62q10.23,5.13,35.84,1.28t39.66-21.75a239.34,239.34,0,0,1,50.53,28.15q24.94,17.91,40.31,39.66a62.61,62.61,0,0,0-.65-36.45Q925.36,633,917.7,613.8a284.36,284.36,0,0,1-14.09-43.5q-5.13-21.75,9-43.5a272.63,272.63,0,0,0,81.23,8.33q41.58-1.92,83.82-7a104.06,104.06,0,0,1,12.79-1.28q2.53-92.11-16-168.88a492,492,0,0,0-59.5-143.3q60.14,3.84,97.25,30.71t62.68,67.81q0,21.75-1.28,42.87t-1.28,40.29q-1.26,32-2.54,61.42t0,60.13a165.12,165.12,0,0,1,20.45-1.28h20.49q17.91,0,33.9-1.28a102.19,102.19,0,0,0,31.35-7.68c2.56-1.7,6.38-5.11,11.5-10.23s9-8.1,11.53-9a85.24,85.24,0,0,1,41.57,2.56q19.83,6.4,41.59,15.35L1400,514q9,3.84,19.21,7.67c-1.71,5.12-1.93,8.76-.65,10.89a30.2,30.2,0,0,0,4.47,5.75,11.4,11.4,0,0,1,4.48,4.47c1.28,2.13,1.49,4.91.65,8.32q-32,25.59-87,30.08t-112.59,4.47H1171q2.55,21.75,10.86,58.85t18.56,73.56q10.21,36.46,19.18,56.94,6.39-5.1,10.88-23t7.68-37.74q3.19-19.83,5.75-30.08-2.57-14.07-11.52-22.38a90.67,90.67,0,0,1-15.33-18.56q33.26-14.07,62-5.75t46.71,28.15q17.91,19.83,17.91,44.13-28.17,20.47-51.83,64t-37.73,75.48q3.84,17.91,14.07,43.5a234.25,234.25,0,0,0,24.31,46.06q14.06,20.47,28.15,24.31,9-5.12,9.59-19.82a261.53,261.53,0,0,0-.63-31.36q0-8.94-.65-17.26a65.67,65.67,0,0,1,.65-16c5.11,0,7.67.87,7.67,2.56a21.34,21.34,0,0,1-1.28,6.39q-3.85,7.68,2.56,10.24l3.84-3.84c2.56-4.26,4.25-4.26,5.12,0a40.29,40.29,0,0,0-1.28-10.88c-.87-3-1.71-6.17-2.56-9.59-.87-6-1.71-12.15-2.56-18.56s0-15.13,2.56-26.22q19.17,20.47,40.94,62.06t34.53,96.59q12.79,55,3.84,113.87-57.55,12.82-96-11.51t-62-69.09a808.23,808.23,0,0,1-41.57-92.12,271,271,0,0,0-35.84,49.9,501.43,501.43,0,0,1-29.41,47.33q-15.37,21.75-42.22,35.83,0-11.52,12.78-19.19t19.21-24.31c-4.27-1.69-8.11-1.28-11.52,1.28A72,72,0,0,0,1125,1030.9l-10.89,10.88a69.68,69.68,0,0,1-14.7,10.87c-6.84,4.27-12.17,6-16,5.12a19,19,0,0,1-9.59-5.12q-5.14-2.55-10.88-5.11c-3.84-1.69-9.59-1.28-17.27,1.27q3.84-10.23,17.27-15.35t16-16.63q11.49-5.12,27.5-24.31a306.66,306.66,0,0,0,27.51-38.38q11.52-19.2,9-20.48,15.33-15.35,27.5-42.22t13.44-42.22q-2.58-17.91-21.12-59.48t-36.47-94q-17.91-52.46-21.75-99.8-32,5.13-48,9.61t-37.75,14.7q-6.4,30.72-9.59,70.37t-4.47,78.68q-1.31,39-.65,69.74t1.93,44.78a415,415,0,0,0,35.82-27.5q20.45-17.26,40.3-33.91t32.63-26.88a145.91,145.91,0,0,1,1.28,17.27v30.08a60.61,60.61,0,0,0,2.56,16.63q-20.47,38.38-43.5,65.25t-45.43,49.9a347,347,0,0,0-41.57,52.45c-1.71,4.27-3.43,8.75-5.12,13.43a78.22,78.22,0,0,0-3.84,16q-42.24,9-76.78-23.66t-52.44-80q20.45,7.68,32.62,7.67t30.07,7.68q16.6-40.94,18.54-80.6t1.93-85.73V760.94q0-21.75,1.28-46.06-41-1.27-79.34,0T779.52,720q1.28,20.47,1.91,44.78t1.91,49.9q30.7-12.79,60.78-12.8T896,817.24q21.75,15.38,25.57,51.17a81.31,81.31,0,0,0-36.46-1.91q-18.55,3.18-37.73,8.31a295.29,295.29,0,0,1-29.43,6.4,186.2,186.2,0,0,1-30.72,2.56q-14.07,17.91-14.71,51.82t.65,58.21a87.63,87.63,0,0,1,1.28,14.07v10.24l76.77,32q46,19.22,96.59,37.75t97.23,32q46.69,13.44,80,17.27,28.14,2.55,58.85,3.2t61.41.63a1377.39,1377.39,0,0,1,139.46,4.49Q1453.78,1151.18,1507.52,1188.27Zm-138.18-721.6q-42.22-7.68-71.65-38.38T1246.51,356a793.46,793.46,0,0,0-46.06-77.42,255.86,255.86,0,0,1,87.64,20.47q41.58,17.91,65.25,57.58T1369.34,466.67Z" transform="translate(-99.42 -35.33)"/>
</svg>
