<svg id="HanuyPinyin" xmlns="http://www.w3.org/2000/svg" xmlns:xlink="http://www.w3.org/1999/xlink" viewBox="0 0 1643.73 1771.86">
  <defs>
    <style>
      .cls-1 {
        fill: #6e6e6e;
      }

      .cls-2 {
        fill: url(#Безымянный_градиент_704);
      }

      .cls-3 {
        fill: url(#Безымянный_градиент_272);
      }

      .cls-4 {
        fill: url(#Безымянный_градиент_272-2);
      }

      .cls-5 {
        fill: url(#Безымянный_градиент_934);
      }

      .cls-6 {
        fill: url(#Безымянный_градиент_775);
      }

      .cls-7 {
        fill: #eee;
      }
    </style>
    <linearGradient id="Безымянный_градиент_704" data-name="Безымянный градиент 704" x1="99.42" y1="914.43" x2="1743.1" y2="914.43" gradientUnits="userSpaceOnUse">
      <stop offset="0" stop-color="#e8c946"/>
      <stop offset="1" stop-color="#7d1929"/>
    </linearGradient>
    <linearGradient id="Безымянный_градиент_272" data-name="Безымянный градиент 272" x1="1277.5" y1="1364.52" x2="1772.86" y2="1364.52" gradientTransform="matrix(1.04, -0.63, 0.52, 0.85, -838.29, 1215.41)" gradientUnits="userSpaceOnUse">
      <stop offset="0.1" stop-color="#181716" stop-opacity="0"/>
      <stop offset="0.5" stop-color="#181716" stop-opacity="0.3"/>
      <stop offset="0.85" stop-color="#181716" stop-opacity="0"/>
    </linearGradient>
    <linearGradient id="Безымянный_градиент_272-2" x1="635.59" y1="889.42" x2="1130.95" y2="889.42" gradientTransform="matrix(-1.04, -0.63, -0.52, 0.85, 1768.54, 1215.41)" xlink:href="#Безымянный_градиент_272"/>
    <linearGradient id="Безымянный_градиент_934" data-name="Безымянный градиент 934" x1="188.64" y1="769.67" x2="1653.89" y2="769.67" gradientUnits="userSpaceOnUse">
      <stop offset="0" stop-color="#ffde78"/>
      <stop offset="1" stop-color="#c42b48"/>
    </linearGradient>
    <linearGradient id="Безымянный_градиент_775" data-name="Безымянный градиент 775" x1="101.44" y1="720.4" x2="1542.24" y2="720.4" gradientUnits="userSpaceOnUse">
      <stop offset="0" stop-color="#f7ca43"/>
      <stop offset="1" stop-color="#a62d3c"/>
    </linearGradient>
  </defs>
  <path class="cls-1" d="M1743.1,452.13v1055c0,165.74-134.35,300.09-300.09,300.09H399.51c-165.73,0-300.09-134.35-300.09-300.09v-1055c0-165.74,247.12-423.57,404.44-382.42h834.8C1496,28.56,1743.1,286.39,1743.1,452.13Z" transform="translate(-99.42 -35.33)"/>
  <path class="cls-2" d="M1743.1,430.3v1055c0,165.74-134.35,300.1-300.09,300.1H399.51c-165.73,0-300.09-134.36-300.09-300.1V430.3c0-165.73,247.12-423.57,404.44-382.42h834.8C1496,6.73,1743.1,264.57,1743.1,430.3Z" transform="translate(-99.42 -35.33)"/>
  <path class="cls-3" d="M1743.05,1490.86c.1,4.29.17,10.75,0,18.58,0,0-.23,8.27-1.21,20.22,0,0-1.93,23.07-5.72,42.28-3.41,17.29-15,61.61-47.59,107.81a302.32,302.32,0,0,1-47.3,52.69c-10.42,9.8-85.86,78.33-197.43,65.49-110.59-12.72-168.37-95.2-176.48-107.22q-82.17-248.87-164.35-497.73L1576,1042.71Q1659.54,1266.79,1743.05,1490.86Z" transform="translate(-99.42 -35.33)"/>
  <path class="cls-4" d="M99.51,1490.86c-.09,4.29-.16,10.75,0,18.58,0,0,.22,8.27,1.2,20.22,0,0,1.94,23.07,5.73,42.28,3.41,17.29,15.05,61.61,47.59,107.81a302.2,302.2,0,0,0,47.29,52.69c10.43,9.8,85.87,78.33,197.44,65.49,110.58-12.72,168.37-95.2,176.48-107.22Q657.46,1441.84,739.64,1193L266.55,1042.71Z" transform="translate(-99.42 -35.33)"/>
  <path class="cls-5" d="M1653.89,346v847.36c0,167.06-136.64,302.49-305.19,302.49H493.82c-168.55,0-305.18-135.43-305.18-302.49V346c0-167.06,136.63-302.49,305.18-302.49H1348.7C1517.25,43.5,1653.89,178.93,1653.89,346Z" transform="translate(-99.42 -35.33)"/>
  <rect class="cls-6" x="101.44" width="1440.8" height="1440.8" rx="300.09"/>
  <path class="cls-7" d="M1524,601.06q-4.08,23.12-17,29.91a61.94,61.94,0,0,1-29.22,6.78,121.82,121.82,0,0,1-12.24-.67,121.92,121.92,0,0,0-12.22-.69,169.25,169.25,0,0,0-36.71-1.36q-17.67,1.38-27.17,17.68-15,24.48-21.76,67.29t-12.91,87.65q-6.12,44.86-19.7,76.12a211.61,211.61,0,0,1-17,17.68q-8.85,8.16-10.19,23.09-72-13.57-158.35-11.54t-180.09,8.82q-5.46,42.15-6.8,83.6T961.27,1089q0,73.4-5.44,147.46t-36.69,147.47q-6.81,9.51-15,6.13a33.79,33.79,0,0,1-13.58-10.2q-34-85.63-40.1-170.58T844.38,1036V985q0-26.5-1.36-52.34a721.77,721.77,0,0,0-76.11,1.36q-39.43,2.73-77.46,6.8-29.91,2.73-58.45,4.75t-54.37,2q-9.51,13.62-9.51,23.8t-6.8,25.13q-54.37-1.35-76.8-27.85t-33.3-64.57q0-14.94.67-31.94t.69-36q2.7-51.65,1.36-103.31t-20.38-81.54q-5.46-8.16-13.61-7.47T404,637.75a15.53,15.53,0,0,1-2.72-8.83,15.71,15.71,0,0,0-2.7-8.83,133.16,133.16,0,0,0-24.49-25.83,197.58,197.58,0,0,1-24.45-23.1q0-8.16,4.07-12.92a41.31,41.31,0,0,1,8.16-7.47,27,27,0,0,0,8.16-9.52q2.7-5.43-4.08-20.38,85.6,8.16,180.09,2t203.19-15.63q20.38-2.7,40.77-4.75t40.79-3.41q-1.38-27.18-3.41-65.92t-4.08-76.79q-2-38.06-4.75-59.81a196.28,196.28,0,0,1-25.83-59.8q-8.16-32.61-12.22-74.75,6.78,1.37,6.78-6.8,1.35-8.16,6.8-6.8,40.78,9.53,70,32t56.4,46.21a268.63,268.63,0,0,0,61.16,40.08q5.43,23.12,2,53t-7.47,61.17q-4.08,29.89-6.8,58.44t2.72,48.93a339.85,339.85,0,0,0,75.43,7.49q36-.69,75.44-3.41,24.46-1.35,51.64-3.39a496.78,496.78,0,0,1,58.45-.69q2.7-10.86,12.22-14.26t10.89-12.92q62.52,1.37,107.38,21.07a355,355,0,0,1,82.9,51Q1484.54,564.37,1524,601.06ZM841.66,843q-6.78-77.47-5.44-138t-9.5-128.44q-63.91,9.51-136.62,10.86T557.6,603.78q-14.94,29.9-12.24,68t9.52,82.9q4.08,23.1,7.47,47.57t4.77,50.29q63.87,5.46,140,2.72T841.66,843Zm392.81-282.72q-50.29-2.71-125.73-1.36t-142,15v36.69q-1.38,31.26-1.36,72.72t1.36,82.92q1.35,41.44,6.8,74.07a308.19,308.19,0,0,0,53.68-2q27.86-3.39,56.41-7.48,32.61-4.08,63.2-7.48t56.4.67q13.6-34,25.16-81.54a577,577,0,0,0,14.94-96.5Q1246.69,597,1234.47,560.28Z" transform="translate(-99.42 -35.33)"/>
</svg>
