<svg id="DefaultButton" xmlns="http://www.w3.org/2000/svg" xmlns:xlink="http://www.w3.org/1999/xlink" viewBox="0 0 1643.73 1771.86">
  <defs>
    <style>
      .cls-1 {
        fill: #6e6e6e;
      }

      .cls-2 {
        fill: url(#Безымянный_градиент_405);
      }

      .cls-3 {
        fill: url(#Безымянный_градиент_272);
      }

      .cls-4 {
        fill: url(#Безымянный_градиент_272-2);
      }

      .cls-5 {
        fill: #f4f4f4;
      }

      .cls-6 {
        fill: url(#Безымянный_градиент_436);
      }

      .cls-7 {
        opacity: 0.5;
      }

      .cls-8 {
        fill: #444;
      }
    </style>
    <linearGradient id="Безымянный_градиент_405" data-name="Безымянный градиент 405" x1="99.42" y1="914.43" x2="1743.1" y2="914.43" gradientUnits="userSpaceOnUse">
      <stop offset="0" stop-color="#e0e0e0"/>
      <stop offset="1" stop-color="#969696"/>
    </linearGradient>
    <linearGradient id="Безымянный_градиент_272" data-name="Безымянный градиент 272" x1="1277.5" y1="1364.52" x2="1772.86" y2="1364.52" gradientTransform="matrix(1.04, -0.63, 0.52, 0.85, -838.29, 1215.41)" gradientUnits="userSpaceOnUse">
      <stop offset="0.1" stop-color="#181716" stop-opacity="0"/>
      <stop offset="0.5" stop-color="#181716" stop-opacity="0.3"/>
      <stop offset="0.85" stop-color="#181716" stop-opacity="0"/>
    </linearGradient>
    <linearGradient id="Безымянный_градиент_272-2" x1="635.59" y1="889.42" x2="1130.95" y2="889.42" gradientTransform="matrix(-1.04, -0.63, -0.52, 0.85, 1768.54, 1215.41)" xlink:href="#Безымянный_градиент_272"/>
    <linearGradient id="Безымянный_градиент_436" data-name="Безымянный градиент 436" x1="101.44" y1="720.4" x2="1542.24" y2="720.4" gradientUnits="userSpaceOnUse">
      <stop offset="0" stop-color="#f2f2f2"/>
      <stop offset="1" stop-color="#a8a8a8"/>
    </linearGradient>
  </defs>
  <path class="cls-1" d="M1743.1,452.13v1055c0,165.74-134.35,300.09-300.09,300.09H399.51c-165.73,0-300.09-134.35-300.09-300.09v-1055c0-165.74,247.12-423.57,404.44-382.42h834.8C1496,28.56,1743.1,286.39,1743.1,452.13Z" transform="translate(-99.42 -35.33)"/>
  <path class="cls-2" d="M1743.1,430.3v1055c0,165.74-134.35,300.1-300.09,300.1H399.51c-165.73,0-300.09-134.36-300.09-300.1V430.3c0-165.73,247.12-423.57,404.44-382.42h834.8C1496,6.73,1743.1,264.57,1743.1,430.3Z" transform="translate(-99.42 -35.33)"/>
  <path class="cls-3" d="M1743.05,1490.86c.1,4.29.17,10.75,0,18.58,0,0-.23,8.27-1.21,20.22,0,0-1.93,23.07-5.72,42.28-3.41,17.29-15,61.61-47.59,107.81a302.32,302.32,0,0,1-47.3,52.69c-10.42,9.8-85.86,78.33-197.43,65.49-110.59-12.72-168.37-95.2-176.48-107.22q-82.17-248.87-164.35-497.73L1576,1042.71Q1659.54,1266.79,1743.05,1490.86Z" transform="translate(-99.42 -35.33)"/>
  <path class="cls-4" d="M99.51,1490.86c-.09,4.29-.16,10.75,0,18.58,0,0,.22,8.27,1.2,20.22,0,0,1.94,23.07,5.73,42.28,3.41,17.29,15.05,61.61,47.59,107.81a302.2,302.2,0,0,0,47.29,52.69c10.43,9.8,85.87,78.33,197.44,65.49,110.58-12.72,168.37-95.2,176.48-107.22Q657.46,1441.84,739.64,1193L266.55,1042.71Z" transform="translate(-99.42 -35.33)"/>
  <path class="cls-5" d="M1653.89,346v847.36c0,167.06-136.64,302.49-305.19,302.49H493.82c-168.55,0-305.18-135.43-305.18-302.49V346c0-167.06,136.63-302.49,305.18-302.49H1348.7C1517.25,43.5,1653.89,178.93,1653.89,346Z" transform="translate(-99.42 -35.33)"/>
  <rect class="cls-6" x="101.44" width="1440.8" height="1440.8" rx="300.09"/>
  <g id="Sup">
    <g class="cls-7">
      <path class="cls-8" d="M369.45,954.63q-14.86,0-26.72-11.86t-11.86-26.71a36.14,36.14,0,0,1,11.86-27.44q11.85-11.1,26.72-11.12,16.31,0,27.43,11.12T408,916.06q0,14.85-11.12,26.71A36.11,36.11,0,0,1,369.45,954.63ZM396.14,830q-14.85,0-26.71-11.87t-11.86-26.7A36.14,36.14,0,0,1,369.43,764q11.85-11.13,26.71-11.14,16.32,0,27.44,11.14t11.12,27.44q0,14.84-11.12,26.7A36.09,36.09,0,0,1,396.14,830Zm0,249.18q-14.85,0-26.71-11.86t-11.86-26.69a36.18,36.18,0,0,1,11.86-27.46q11.85-11.1,26.71-11.12,16.32,0,27.44,11.12t11.12,27.46q0,14.82-11.12,26.69A36.12,36.12,0,0,1,396.14,1079.22Zm69.71-359q-14.84,0-26.7-11.85T427.3,681.7a36.14,36.14,0,0,1,11.85-27.43q11.87-11.1,26.7-11.12,16.32,0,27.45,11.12t11.13,27.43q0,14.87-11.13,26.72A36.17,36.17,0,0,1,465.85,720.27Zm0,468.72q-14.84,0-26.7-11.86t-11.85-26.72A36.14,36.14,0,0,1,439.15,1123q11.87-11.1,26.7-11.12,16.32,0,27.45,11.12t11.13,27.43q0,14.86-11.13,26.72A36.18,36.18,0,0,1,465.85,1189ZM575.62,650.55q-14.83,0-26.7-11.86T537.06,612a36.16,36.16,0,0,1,11.86-27.45q11.85-11.1,26.7-11.12,16.3,0,27.43,11.12T614.19,612q0,14.84-11.14,26.7A36.11,36.11,0,0,1,575.62,650.55Zm0,608.14q-14.83,0-26.7-11.85t-11.86-26.7a36.16,36.16,0,0,1,11.86-27.45q11.85-11.12,26.7-11.13,16.3,0,27.43,11.13t11.14,27.45q0,14.83-11.14,26.7A36.14,36.14,0,0,1,575.62,1258.69ZM700.21,623.85q-14.84,0-26.7-11.86t-11.86-26.7a36.17,36.17,0,0,1,11.86-27.45q11.85-11.1,26.7-11.12,16.31,0,27.45,11.12t11.12,27.45q0,14.84-11.12,26.7A36.16,36.16,0,0,1,700.21,623.85Zm0,661.54q-14.84,0-26.7-11.85t-11.86-26.7a36.14,36.14,0,0,1,11.86-27.45q11.85-11.12,26.7-11.13,16.31,0,27.45,11.13t11.12,27.45q0,14.84-11.12,26.7A36.18,36.18,0,0,1,700.21,1285.39ZM824.82,650.55q-14.87,0-26.72-11.86T786.24,612a36.16,36.16,0,0,1,11.86-27.45q11.85-11.1,26.72-11.12,16.3,0,27.43,11.12T863.37,612q0,14.84-11.12,26.7A36.11,36.11,0,0,1,824.82,650.55Zm0,608.14q-14.87,0-26.72-11.85t-11.86-26.7a36.16,36.16,0,0,1,11.86-27.45q11.85-11.12,26.72-11.13,16.3,0,27.43,11.13t11.12,27.45q0,14.83-11.12,26.7A36.14,36.14,0,0,1,824.82,1258.69ZM934.58,720.27q-14.87,0-26.72-11.85T896,681.7a36.14,36.14,0,0,1,11.85-27.43q11.86-11.1,26.72-11.12,16.3,0,27.43,11.12t11.13,27.43q0,14.87-11.13,26.72A36.14,36.14,0,0,1,934.58,720.27Zm0,468.72q-14.87,0-26.72-11.86T896,1150.41A36.14,36.14,0,0,1,907.86,1123q11.86-11.1,26.72-11.12,16.3,0,27.43,11.12t11.13,27.43q0,14.86-11.13,26.72A36.15,36.15,0,0,1,934.58,1189Zm69.71-359q-14.87,0-26.72-11.87t-11.86-26.7A36.17,36.17,0,0,1,977.57,764q11.86-11.13,26.72-11.14,16.31,0,27.43,11.14t11.12,27.44q0,14.84-11.12,26.7A36.09,36.09,0,0,1,1004.29,830Zm0,249.18q-14.87,0-26.72-11.86t-11.86-26.69a36.21,36.21,0,0,1,11.86-27.46q11.86-11.1,26.72-11.12,16.31,0,27.43,11.12t11.12,27.46q0,14.82-11.12,26.69A36.11,36.11,0,0,1,1004.29,1079.22ZM1031,954.63q-14.87,0-26.72-11.86t-11.86-26.71a36.17,36.17,0,0,1,11.86-27.44q11.85-11.1,26.72-11.12,16.3,0,27.43,11.12t11.12,27.44q0,14.85-11.12,26.71A36.11,36.11,0,0,1,1031,954.63Z" transform="translate(-99.42 -35.33)"/>
    </g>
    <path class="cls-8" d="M1318.08,457.14q-104.28,0-153.48-59.47T1112.48,256H1180q11.73,52.88,47.72,76.37t90.33,23.49q54.33,0,90.31-23.49T1456.12,256h67.54q-1.46,82.24-51.39,141.72T1318.08,457.14Z" transform="translate(-99.42 -35.33)"/>
  </g>
</svg>
