<svg id="DefaultButton" xmlns="http://www.w3.org/2000/svg" xmlns:xlink="http://www.w3.org/1999/xlink" viewBox="0 0 1643.73 1771.86">
  <defs>
    <style>
      .cls-1 {
        fill: #6e6e6e;
      }

      .cls-2 {
        fill: url(#Безымянный_градиент_405);
      }

      .cls-3 {
        fill: url(#Безымянный_градиент_272);
      }

      .cls-4 {
        fill: url(#Безымянный_градиент_272-2);
      }

      .cls-5 {
        fill: #f4f4f4;
      }

      .cls-6 {
        fill: url(#Безымянный_градиент_436);
      }

      .cls-7 {
        fill: #444;
      }
    </style>
    <linearGradient id="Безымянный_градиент_405" data-name="Безымянный градиент 405" x1="99.42" y1="914.43" x2="1743.1" y2="914.43" gradientUnits="userSpaceOnUse">
      <stop offset="0" stop-color="#e0e0e0"/>
      <stop offset="1" stop-color="#969696"/>
    </linearGradient>
    <linearGradient id="Безымянный_градиент_272" data-name="Безымянный градиент 272" x1="1277.5" y1="1364.52" x2="1772.86" y2="1364.52" gradientTransform="matrix(1.04, -0.63, 0.52, 0.85, -838.29, 1215.41)" gradientUnits="userSpaceOnUse">
      <stop offset="0.1" stop-color="#181716" stop-opacity="0"/>
      <stop offset="0.5" stop-color="#181716" stop-opacity="0.3"/>
      <stop offset="0.85" stop-color="#181716" stop-opacity="0"/>
    </linearGradient>
    <linearGradient id="Безымянный_градиент_272-2" x1="635.59" y1="889.42" x2="1130.95" y2="889.42" gradientTransform="matrix(-1.04, -0.63, -0.52, 0.85, 1768.54, 1215.41)" xlink:href="#Безымянный_градиент_272"/>
    <linearGradient id="Безымянный_градиент_436" data-name="Безымянный градиент 436" x1="101.44" y1="720.4" x2="1542.24" y2="720.4" gradientUnits="userSpaceOnUse">
      <stop offset="0" stop-color="#f2f2f2"/>
      <stop offset="1" stop-color="#a8a8a8"/>
    </linearGradient>
  </defs>
  <path class="cls-1" d="M1743.1,452.13v1055c0,165.74-134.35,300.09-300.09,300.09H399.51c-165.73,0-300.09-134.35-300.09-300.09v-1055c0-165.74,247.12-423.57,404.44-382.42h834.8C1496,28.56,1743.1,286.39,1743.1,452.13Z" transform="translate(-99.42 -35.33)"/>
  <path class="cls-2" d="M1743.1,430.3v1055c0,165.74-134.35,300.1-300.09,300.1H399.51c-165.73,0-300.09-134.36-300.09-300.1V430.3c0-165.73,247.12-423.57,404.44-382.42h834.8C1496,6.73,1743.1,264.57,1743.1,430.3Z" transform="translate(-99.42 -35.33)"/>
  <path class="cls-3" d="M1743.05,1490.86c.1,4.29.17,10.75,0,18.58,0,0-.23,8.27-1.21,20.22,0,0-1.93,23.07-5.72,42.28-3.41,17.29-15,61.61-47.59,107.81a302.32,302.32,0,0,1-47.3,52.69c-10.42,9.8-85.86,78.33-197.43,65.49-110.59-12.72-168.37-95.2-176.48-107.22q-82.17-248.87-164.35-497.73L1576,1042.71Q1659.54,1266.79,1743.05,1490.86Z" transform="translate(-99.42 -35.33)"/>
  <path class="cls-4" d="M99.51,1490.86c-.09,4.29-.16,10.75,0,18.58,0,0,.22,8.27,1.2,20.22,0,0,1.94,23.07,5.73,42.28,3.41,17.29,15.05,61.61,47.59,107.81a302.2,302.2,0,0,0,47.29,52.69c10.43,9.8,85.87,78.33,197.44,65.49,110.58-12.72,168.37-95.2,176.48-107.22Q657.46,1441.84,739.64,1193L266.55,1042.71Z" transform="translate(-99.42 -35.33)"/>
  <path class="cls-5" d="M1653.89,346v847.36c0,167.06-136.64,302.49-305.19,302.49H493.82c-168.55,0-305.18-135.43-305.18-302.49V346c0-167.06,136.63-302.49,305.18-302.49H1348.7C1517.25,43.5,1653.89,178.93,1653.89,346Z" transform="translate(-99.42 -35.33)"/>
  <rect class="cls-6" x="101.44" width="1440.8" height="1440.8" rx="300.09"/>
  <path class="cls-7" d="M399.85,1282.46q-74.39,0-114.83-39.8T244.58,1135q0-61.33,34.58-101.12t90.67-39.8q39.14,0,61.32,20.88t22.2,50.87q0,37.86-28.72,56.11t-74.35,27.4q-47,9.17-47,47,0,24.78,26.75,44.35t73.72,19.57q71.75,0,155.91-53.49T745.62,1048.9q-70.46-83.51-70.46-168.32,0-61.3,38.49-103.73t99.81-42.4q77,0,146.15,73.06,97.83-109.59,190.48-199t178.77-157.22q177.45-139.6,242.68-139.61c4.35,0,6.52,2.62,6.52,7.83q0,3.93-9.12,22.18l-23.49,41.74Q1356.24,711,1159.23,1180.68a379.2,379.2,0,0,0,52.18-11.09q24.78-7.17,55.46-27.4t75-62q44.36-41.74,110.91-112.21,65.24-67.85,95.24-88.72t40.46-20.88c6.07,0,9.12,2.62,9.12,7.83a10.53,10.53,0,0,1-3.91,8.48,47,47,0,0,1-9.13,5.87q-10.44,6.51-23.5,16.31t-33.92,29.35q-20.88,19.57-56.1,57.42-78.28,83.51-131.78,130.47T1241.43,1182a317,317,0,0,1-95.24,27.39l-11.74,26.1L944,1260.26l28.69-70.46a505.33,505.33,0,0,1-107-47.61q-52.2-30.66-101.76-75Q660.8,1172.85,576,1227.65T399.85,1282.46Zm364-257q45.66-47,90-96.55t87.43-99.17Q910,797.1,870.87,797.08q-33.95,0-66.55,20.88a165.65,165.65,0,0,0-52.84,54.15q-20.22,33.25-20.22,71.1Q731.26,990.18,763.88,1025.41ZM983.09,1165a581.36,581.36,0,0,0,19.56-77.63,427,427,0,0,0,6.53-73.72q0-99.18-49.57-165.72L779.54,1047.59Q887.83,1142.86,983.09,1165Zm48.27-75.68q208.74-352.29,484.07-734.58Q1403.21,403,1274,524.38t-297.48,304q31.29,48.27,45.66,93.3t14.36,88.06q0,19.59-1.31,39.8T1031.36,1089.34Z" transform="translate(-99.42 -35.33)"/>
</svg>
