<svg id="DefaultButton" xmlns="http://www.w3.org/2000/svg" xmlns:xlink="http://www.w3.org/1999/xlink" viewBox="0 0 1643.73 1771.86">
  <defs>
    <style>
      .cls-1 {
        fill: #6e6e6e;
      }

      .cls-2 {
        fill: url(#Безымянный_градиент_405);
      }

      .cls-3 {
        fill: url(#Безымянный_градиент_272);
      }

      .cls-4 {
        fill: url(#Безымянный_градиент_272-2);
      }

      .cls-5 {
        fill: #f4f4f4;
      }

      .cls-6 {
        fill: url(#Безымянный_градиент_436);
      }

      .cls-7 {
        fill: #444;
      }
    </style>
    <linearGradient id="Безымянный_градиент_405" data-name="Безымянный градиент 405" x1="99.42" y1="914.43" x2="1743.1" y2="914.43" gradientUnits="userSpaceOnUse">
      <stop offset="0" stop-color="#e0e0e0"/>
      <stop offset="1" stop-color="#969696"/>
    </linearGradient>
    <linearGradient id="Безымянный_градиент_272" data-name="Безымянный градиент 272" x1="1277.5" y1="1364.52" x2="1772.86" y2="1364.52" gradientTransform="matrix(1.04, -0.63, 0.52, 0.85, -838.29, 1215.41)" gradientUnits="userSpaceOnUse">
      <stop offset="0.1" stop-color="#181716" stop-opacity="0"/>
      <stop offset="0.5" stop-color="#181716" stop-opacity="0.3"/>
      <stop offset="0.85" stop-color="#181716" stop-opacity="0"/>
    </linearGradient>
    <linearGradient id="Безымянный_градиент_272-2" x1="635.59" y1="889.42" x2="1130.95" y2="889.42" gradientTransform="matrix(-1.04, -0.63, -0.52, 0.85, 1768.54, 1215.41)" xlink:href="#Безымянный_градиент_272"/>
    <linearGradient id="Безымянный_градиент_436" data-name="Безымянный градиент 436" x1="101.44" y1="720.4" x2="1542.24" y2="720.4" gradientUnits="userSpaceOnUse">
      <stop offset="0" stop-color="#f2f2f2"/>
      <stop offset="1" stop-color="#a8a8a8"/>
    </linearGradient>
  </defs>
  <path class="cls-1" d="M1743.1,452.13v1055c0,165.74-134.35,300.09-300.09,300.09H399.51c-165.73,0-300.09-134.35-300.09-300.09v-1055c0-165.74,247.12-423.57,404.44-382.42h834.8C1496,28.56,1743.1,286.39,1743.1,452.13Z" transform="translate(-99.42 -35.33)"/>
  <path class="cls-2" d="M1743.1,430.3v1055c0,165.74-134.35,300.1-300.09,300.1H399.51c-165.73,0-300.09-134.36-300.09-300.1V430.3c0-165.73,247.12-423.57,404.44-382.42h834.8C1496,6.73,1743.1,264.57,1743.1,430.3Z" transform="translate(-99.42 -35.33)"/>
  <path class="cls-3" d="M1743.05,1490.86c.1,4.29.17,10.75,0,18.58,0,0-.23,8.27-1.21,20.22,0,0-1.93,23.07-5.72,42.28-3.41,17.29-15,61.61-47.59,107.81a302.32,302.32,0,0,1-47.3,52.69c-10.42,9.8-85.86,78.33-197.43,65.49-110.59-12.72-168.37-95.2-176.48-107.22q-82.17-248.87-164.35-497.73L1576,1042.71Q1659.54,1266.79,1743.05,1490.86Z" transform="translate(-99.42 -35.33)"/>
  <path class="cls-4" d="M99.51,1490.86c-.09,4.29-.16,10.75,0,18.58,0,0,.22,8.27,1.2,20.22,0,0,1.94,23.07,5.73,42.28,3.41,17.29,15.05,61.61,47.59,107.81a302.2,302.2,0,0,0,47.29,52.69c10.43,9.8,85.87,78.33,197.44,65.49,110.58-12.72,168.37-95.2,176.48-107.22Q657.46,1441.84,739.64,1193L266.55,1042.71Z" transform="translate(-99.42 -35.33)"/>
  <path class="cls-5" d="M1653.89,346v847.36c0,167.06-136.64,302.49-305.19,302.49H493.82c-168.55,0-305.18-135.43-305.18-302.49V346c0-167.06,136.63-302.49,305.18-302.49H1348.7C1517.25,43.5,1653.89,178.93,1653.89,346Z" transform="translate(-99.42 -35.33)"/>
  <rect class="cls-6" x="101.44" width="1440.8" height="1440.8" rx="300.09"/>
  <path class="cls-7" d="M705.2,1295.49l-36.54-37.83q35.24-19.56,35.23-28.71t-17-31.3a525.61,525.61,0,0,0-41.09-47,448.76,448.76,0,0,0-47-42.4q-22.83-17.61-34.57-17.62-26.1,0-63.93,15.65l-18.28-49.57q178.74-52.2,266.83-145.49T837,665.3Q837,559.61,788.7,497T655.62,434.34q-69.17,0-116.78,45.67T491.21,598.75q0,168.32,216.59,204.85l-10.43,52.18q-130.47-18.27-197-92T433.81,572.64q0-87.4,34.57-153.3t96.55-103.07q62-37.2,142.87-37.2,79.59,0,142.23,39.8t99.82,110.25Q987,499.57,987,592.22q0,75.67-30.66,151.37T867.64,886.46q-58.07,67.2-138.95,119.38l83.49,91.33q31.3,35.22,48.29,35.23,10.42,0,26.09-6.52t33.93-15.66q36.53-18.27,80.24-42.4a915.18,915.18,0,0,0,82.86-51.55V510q0-79.59-26.1-143.54l47-28.7,43.06,83.5q32.61-61.31,78.94-96.55t127.21-45.67v52.2q-49.58,22.2-69.8,63.93t-20.23,110.91V969.3q0,17,3.92,40.45t13.69,40.46q9.78,17,26.76,17,23.49,0,67.84-36.54l32.63,39.14q-52.2,52.2-103.74,105.06t-101.11,108.93L1154,1264.18q11.74-35.23,11.74-43.06t-14.35-18.26a168.75,168.75,0,0,1-44.37-50.24q-17-29.32-19.55-69.8-48.3,28.71-98.52,56.11t-97.21,52.18q-48.28,24.81-95.91,51.55T705.2,1295.49Z" transform="translate(-99.42 -35.33)"/>
</svg>
