<svg id="DefaultButton" xmlns="http://www.w3.org/2000/svg" xmlns:xlink="http://www.w3.org/1999/xlink" viewBox="0 0 1643.73 1771.86">
  <defs>
    <style>
      .cls-1 {
        fill: #6e6e6e;
      }

      .cls-2 {
        fill: url(#Безымянный_градиент_405);
      }

      .cls-3 {
        fill: url(#Безымянный_градиент_272);
      }

      .cls-4 {
        fill: url(#Безымянный_градиент_272-2);
      }

      .cls-5 {
        fill: #f4f4f4;
      }

      .cls-6 {
        fill: url(#Безымянный_градиент_436);
      }

      .cls-7 {
        fill: #fff;
      }

      .cls-8 {
        fill: #444;
      }
    </style>
    <linearGradient id="Безымянный_градиент_405" data-name="Безымянный градиент 405" x1="99.42" y1="914.43" x2="1743.1" y2="914.43" gradientUnits="userSpaceOnUse">
      <stop offset="0" stop-color="#e0e0e0"/>
      <stop offset="1" stop-color="#969696"/>
    </linearGradient>
    <linearGradient id="Безымянный_градиент_272" data-name="Безымянный градиент 272" x1="1277.5" y1="1364.52" x2="1772.86" y2="1364.52" gradientTransform="matrix(1.04, -0.63, 0.52, 0.85, -838.29, 1215.41)" gradientUnits="userSpaceOnUse">
      <stop offset="0.1" stop-color="#181716" stop-opacity="0"/>
      <stop offset="0.5" stop-color="#181716" stop-opacity="0.3"/>
      <stop offset="0.85" stop-color="#181716" stop-opacity="0"/>
    </linearGradient>
    <linearGradient id="Безымянный_градиент_272-2" x1="635.59" y1="889.42" x2="1130.95" y2="889.42" gradientTransform="matrix(-1.04, -0.63, -0.52, 0.85, 1768.54, 1215.41)" xlink:href="#Безымянный_градиент_272"/>
    <linearGradient id="Безымянный_градиент_436" data-name="Безымянный градиент 436" x1="101.44" y1="720.4" x2="1542.24" y2="720.4" gradientUnits="userSpaceOnUse">
      <stop offset="0" stop-color="#f2f2f2"/>
      <stop offset="1" stop-color="#a8a8a8"/>
    </linearGradient>
  </defs>
  <path class="cls-1" d="M1743.1,452.13v1055c0,165.74-134.35,300.09-300.09,300.09H399.51c-165.73,0-300.09-134.35-300.09-300.09v-1055c0-165.74,247.12-423.57,404.44-382.42h834.8C1496,28.56,1743.1,286.39,1743.1,452.13Z" transform="translate(-99.42 -35.33)"/>
  <path class="cls-2" d="M1743.1,430.3v1055c0,165.74-134.35,300.1-300.09,300.1H399.51c-165.73,0-300.09-134.36-300.09-300.1V430.3c0-165.73,247.12-423.57,404.44-382.42h834.8C1496,6.73,1743.1,264.57,1743.1,430.3Z" transform="translate(-99.42 -35.33)"/>
  <path class="cls-3" d="M1743.05,1490.86c.1,4.29.17,10.75,0,18.58,0,0-.23,8.27-1.21,20.22,0,0-1.93,23.07-5.72,42.28-3.41,17.29-15,61.61-47.59,107.81a302.32,302.32,0,0,1-47.3,52.69c-10.42,9.8-85.86,78.33-197.43,65.49-110.59-12.72-168.37-95.2-176.48-107.22q-82.17-248.87-164.35-497.73L1576,1042.71Q1659.54,1266.79,1743.05,1490.86Z" transform="translate(-99.42 -35.33)"/>
  <path class="cls-4" d="M99.51,1490.86c-.09,4.29-.16,10.75,0,18.58,0,0,.22,8.27,1.2,20.22,0,0,1.94,23.07,5.73,42.28,3.41,17.29,15.05,61.61,47.59,107.81a302.2,302.2,0,0,0,47.29,52.69c10.43,9.8,85.87,78.33,197.44,65.49,110.58-12.72,168.37-95.2,176.48-107.22Q657.46,1441.84,739.64,1193L266.55,1042.71Z" transform="translate(-99.42 -35.33)"/>
  <path class="cls-5" d="M1653.89,346v847.36c0,167.06-136.64,302.49-305.19,302.49H493.82c-168.55,0-305.18-135.43-305.18-302.49V346c0-167.06,136.63-302.49,305.18-302.49H1348.7C1517.25,43.5,1653.89,178.93,1653.89,346Z" transform="translate(-99.42 -35.33)"/>
  <rect class="cls-6" x="101.44" width="1440.8" height="1440.8" rx="300.09"/>
  <g>
    <path class="cls-7" d="M1222.85,512c35.4-3.94,47.21-35.41,72.12-35.41,31.47,0,118,70.81,118,102.28,0,30.16-36.71,27.54-43.27,68.19-23.6,165.22-60.32,344.86-136.37,489.1-34.09,66.87-98.34,112.76-153.42,112.76-27.53,0-39.33-13.11-47.2-45.89-13.11-47.21-52.45-70.81-128.5-131.13l14.42-24.91c61.63,26.22,127.19,53.76,154.73,60.32,34.09,9.18,47.2,6.55,65.56-15.74,81.3-102.28,132.44-407.8,132.44-491.72q0-15.74-15.74-15.73c-61.63,0-166.53,14.42-247.82,26.22-44.59,161.29-157.36,498.28-558.6,696.28l-19.67-24.92c308.15-221.6,411.74-464.18,468.12-654.31-74.74,13.11-174.4,32.78-212.42,42-40.65,10.49-53.76,30.16-81.3,30.16-35.4,0-91.79-66.88-103.59-102.28-11.8-26.23-10.49-57.7-6.56-87.85l23.61-5.25c21,36.72,42,77.36,81.29,77.36S777,565.71,918.64,548.66C934.37,477.86,950.11,358,951.42,320c0-24.92-3.93-35.41-23.6-44.58-23.6-10.49-57.7-17.4-82.61-22.64v-7.53c28.85-9.18,70.81-16.49,99.66-16.49,56.38,1.31,152.1,55.07,152.1,90.47,0,32.79-31.47,32.79-42,83.92-6.56,30.16-15.73,82.61-28.85,133.75Z" transform="translate(-99.42 -35.33)"/>
    <rect class="cls-7" x="459.53" y="151.4" width="730.89" height="42"/>
    <rect class="cls-7" x="459.53" y="1275.4" width="730.89" height="42"/>
    <g>
      <path class="cls-8" d="M336,1352.73v-1166H559v42H516q-34,0-58,12.5t-24,59.5v938q0,47,24,59.5t58,12.5h43v42Z" transform="translate(-99.42 -35.33)"/>
      <path class="cls-8" d="M1289.83,1352.73v-42h43q34,0,58-12.5t24-59.5v-938q0-47-24-59.5t-58-12.5h-43v-42h223v1166Z" transform="translate(-99.42 -35.33)"/>
    </g>
    <path class="cls-8" d="M826.57,1322.84q-82.24,0-136.25-47.86t-54-148.52q0-98.18,69.35-144.83t210.5-51.55L1018,926.39V852.75q0-44.19-7.36-77.94t-31.92-53.39q-24.56-19.62-74.87-19.64-46.65,0-71.19,17.18t-32.52,47.26q-8,30.09-8,69.35-51.56,0-77.94-17.8t-26.39-59.53q0-42.94,30.07-68.73t80.4-37.44q50.31-11.66,110.46-11.66,112.92,0,168.77,47.87t55.85,164.47v317.9q0,51.54,17.18,70t58.92,18.41h3.68v51.55H1047.5L1027.86,1205H1018a748.54,748.54,0,0,1-50.32,60.76,185.08,185.08,0,0,1-57.08,41.73Q878.11,1322.83,826.57,1322.84Zm28.23-76.09q74.85,0,119.05-46T1018,1076.14V976.72l-78.55,3.68q-104.34,4.92-144.22,42.35T755.38,1132.6Q755.38,1246.75,854.8,1246.75Z" transform="translate(-99.42 -35.33)"/>
  </g>
</svg>
