<svg id="DefaultButton" xmlns="http://www.w3.org/2000/svg" xmlns:xlink="http://www.w3.org/1999/xlink" viewBox="0 0 1643.73 1771.86">
  <defs>
    <style>
      .cls-1 {
        fill: #6e6e6e;
      }

      .cls-2 {
        fill: url(#Безымянный_градиент_405);
      }

      .cls-3 {
        fill: url(#Безымянный_градиент_272);
      }

      .cls-4 {
        fill: url(#Безымянный_градиент_272-2);
      }

      .cls-5 {
        fill: #f4f4f4;
      }

      .cls-6 {
        fill: url(#Безымянный_градиент_436);
      }

      .cls-7 {
        fill: #444;
      }
    </style>
    <linearGradient id="Безымянный_градиент_405" data-name="Безымянный градиент 405" x1="99.42" y1="914.43" x2="1743.1" y2="914.43" gradientUnits="userSpaceOnUse">
      <stop offset="0" stop-color="#e0e0e0"/>
      <stop offset="1" stop-color="#969696"/>
    </linearGradient>
    <linearGradient id="Безымянный_градиент_272" data-name="Безымянный градиент 272" x1="1277.5" y1="1364.52" x2="1772.86" y2="1364.52" gradientTransform="matrix(1.04, -0.63, 0.52, 0.85, -838.29, 1215.41)" gradientUnits="userSpaceOnUse">
      <stop offset="0.1" stop-color="#181716" stop-opacity="0"/>
      <stop offset="0.5" stop-color="#181716" stop-opacity="0.3"/>
      <stop offset="0.85" stop-color="#181716" stop-opacity="0"/>
    </linearGradient>
    <linearGradient id="Безымянный_градиент_272-2" x1="635.59" y1="889.42" x2="1130.95" y2="889.42" gradientTransform="matrix(-1.04, -0.63, -0.52, 0.85, 1768.54, 1215.41)" xlink:href="#Безымянный_градиент_272"/>
    <linearGradient id="Безымянный_градиент_436" data-name="Безымянный градиент 436" x1="101.44" y1="720.4" x2="1542.24" y2="720.4" gradientUnits="userSpaceOnUse">
      <stop offset="0" stop-color="#f2f2f2"/>
      <stop offset="1" stop-color="#a8a8a8"/>
    </linearGradient>
  </defs>
  <path class="cls-1" d="M1743.1,452.13v1055c0,165.74-134.35,300.09-300.09,300.09H399.51c-165.73,0-300.09-134.35-300.09-300.09v-1055c0-165.74,247.12-423.57,404.44-382.42h834.8C1496,28.56,1743.1,286.39,1743.1,452.13Z" transform="translate(-99.42 -35.33)"/>
  <path class="cls-2" d="M1743.1,430.3v1055c0,165.74-134.35,300.1-300.09,300.1H399.51c-165.73,0-300.09-134.36-300.09-300.1V430.3c0-165.73,247.12-423.57,404.44-382.42h834.8C1496,6.73,1743.1,264.57,1743.1,430.3Z" transform="translate(-99.42 -35.33)"/>
  <path class="cls-3" d="M1743.05,1490.86c.1,4.29.17,10.75,0,18.58,0,0-.23,8.27-1.21,20.22,0,0-1.93,23.07-5.72,42.28-3.41,17.29-15,61.61-47.59,107.81a302.32,302.32,0,0,1-47.3,52.69c-10.42,9.8-85.86,78.33-197.43,65.49-110.59-12.72-168.37-95.2-176.48-107.22q-82.17-248.87-164.35-497.73L1576,1042.71Q1659.54,1266.79,1743.05,1490.86Z" transform="translate(-99.42 -35.33)"/>
  <path class="cls-4" d="M99.51,1490.86c-.09,4.29-.16,10.75,0,18.58,0,0,.22,8.27,1.2,20.22,0,0,1.94,23.07,5.73,42.28,3.41,17.29,15.05,61.61,47.59,107.81a302.2,302.2,0,0,0,47.29,52.69c10.43,9.8,85.87,78.33,197.44,65.49,110.58-12.72,168.37-95.2,176.48-107.22Q657.46,1441.84,739.64,1193L266.55,1042.71Z" transform="translate(-99.42 -35.33)"/>
  <path class="cls-5" d="M1653.89,346v847.36c0,167.06-136.64,302.49-305.19,302.49H493.82c-168.55,0-305.18-135.43-305.18-302.49V346c0-167.06,136.63-302.49,305.18-302.49H1348.7C1517.25,43.5,1653.89,178.93,1653.89,346Z" transform="translate(-99.42 -35.33)"/>
  <rect class="cls-6" x="101.44" width="1440.8" height="1440.8" rx="300.09"/>
  <path class="cls-7" d="M409.63,1281.15q-83.49,0-128.52-42.41t-45-110.26q0-58.71,37.18-99.81T374.4,987.58q43.05,0,69.15,20.88t26.11,53.48q0,31.32-20.88,51.54t-52.2,28a119.94,119.94,0,0,0-43.06,18.92Q334,1174.16,334,1197.63q0,24.81,22.83,39.16t58.07,14.35q62.63,0,143.52-52.18t180-152.68q-74.37-82.18-74.36-167,0-62.61,43-105t113.52-42.42A175,175,0,0,1,895,748.14q35.24,16.32,66.55,45Q1056.8,690.08,1146.83,602T1324.28,447.4q84.81-65.23,146.14-100.47t97.86-35.23q14.34,0,18.26,3.26a10.51,10.51,0,0,1,3.92,8.48q0,7.85-6.52,18.27l-41.76,77q-86.11,157.89-177.45,344.46t-181.36,404.49q40.43-10.43,93.28-43.7t128.53-116.78q77-82.2,121.34-118.09t69.16-35.89q10.42,0,10.44,7.83,0,9.16-30,30-28.71,20.9-63.94,56.77t-77,81.55Q1367.32,1105,1304.7,1150t-138.3,54.15l-11.74,26.09-227,28.71,30-74.38Q852,1149.37,771.06,1080.21q-99.18,99.18-182.67,150T409.63,1281.15Zm362.74-279.23L934.15,825.77Q904.15,801,875.44,801q-27.42,0-54.15,20.88t-43.71,52.84q-17,32-17,65.89T772.37,1001.92Zm198.32,147.44q22.17-73,22.18-138.31A536.51,536.51,0,0,0,987,928.86q-5.87-37.85-21.52-65.25L803.68,1042.36Q892.41,1125.88,970.69,1149.36Zm80.9-113.52q88.73-153.94,193.76-313.14t227.67-334Q1393.43,433,1274,544.6T995.48,832.31q27.39,36.53,43.06,83.5t15.65,84.8v17A77.44,77.44,0,0,1,1051.59,1035.84Z" transform="translate(-99.42 -35.33)"/>
</svg>
