<svg id="DefaultButton" xmlns="http://www.w3.org/2000/svg" xmlns:xlink="http://www.w3.org/1999/xlink" viewBox="0 0 1643.73 1771.86">
  <defs>
    <style>
      .cls-1 {
        fill: #6e6e6e;
      }

      .cls-2 {
        fill: url(#Безымянный_градиент_405);
      }

      .cls-3 {
        fill: url(#Безымянный_градиент_272);
      }

      .cls-4 {
        fill: url(#Безымянный_градиент_272-2);
      }

      .cls-5 {
        fill: #f4f4f4;
      }

      .cls-6 {
        fill: url(#Безымянный_градиент_436);
      }

      .cls-7 {
        opacity: 0.5;
      }

      .cls-8 {
        fill: #444;
      }
    </style>
    <linearGradient id="Безымянный_градиент_405" data-name="Безымянный градиент 405" x1="99.42" y1="914.43" x2="1743.1" y2="914.43" gradientUnits="userSpaceOnUse">
      <stop offset="0" stop-color="#e0e0e0"/>
      <stop offset="1" stop-color="#969696"/>
    </linearGradient>
    <linearGradient id="Безымянный_градиент_272" data-name="Безымянный градиент 272" x1="1277.5" y1="1364.52" x2="1772.86" y2="1364.52" gradientTransform="matrix(1.04, -0.63, 0.52, 0.85, -838.29, 1215.41)" gradientUnits="userSpaceOnUse">
      <stop offset="0.1" stop-color="#181716" stop-opacity="0"/>
      <stop offset="0.5" stop-color="#181716" stop-opacity="0.3"/>
      <stop offset="0.85" stop-color="#181716" stop-opacity="0"/>
    </linearGradient>
    <linearGradient id="Безымянный_градиент_272-2" x1="635.59" y1="889.42" x2="1130.95" y2="889.42" gradientTransform="matrix(-1.04, -0.63, -0.52, 0.85, 1768.54, 1215.41)" xlink:href="#Безымянный_градиент_272"/>
    <linearGradient id="Безымянный_градиент_436" data-name="Безымянный градиент 436" x1="101.44" y1="720.4" x2="1542.24" y2="720.4" gradientUnits="userSpaceOnUse">
      <stop offset="0" stop-color="#f2f2f2"/>
      <stop offset="1" stop-color="#a8a8a8"/>
    </linearGradient>
  </defs>
  <path class="cls-1" d="M1743.1,452.13v1055c0,165.74-134.35,300.09-300.09,300.09H399.51c-165.73,0-300.09-134.35-300.09-300.09v-1055c0-165.74,247.12-423.57,404.44-382.42h834.8C1496,28.56,1743.1,286.39,1743.1,452.13Z" transform="translate(-99.42 -35.33)"/>
  <path class="cls-2" d="M1743.1,430.3v1055c0,165.74-134.35,300.1-300.09,300.1H399.51c-165.73,0-300.09-134.36-300.09-300.1V430.3c0-165.73,247.12-423.57,404.44-382.42h834.8C1496,6.73,1743.1,264.57,1743.1,430.3Z" transform="translate(-99.42 -35.33)"/>
  <path class="cls-3" d="M1743.05,1490.86c.1,4.29.17,10.75,0,18.58,0,0-.23,8.27-1.21,20.22,0,0-1.93,23.07-5.72,42.28-3.41,17.29-15,61.61-47.59,107.81a302.32,302.32,0,0,1-47.3,52.69c-10.42,9.8-85.86,78.33-197.43,65.49-110.59-12.72-168.37-95.2-176.48-107.22q-82.17-248.87-164.35-497.73L1576,1042.71Q1659.54,1266.79,1743.05,1490.86Z" transform="translate(-99.42 -35.33)"/>
  <path class="cls-4" d="M99.51,1490.86c-.09,4.29-.16,10.75,0,18.58,0,0,.22,8.27,1.2,20.22,0,0,1.94,23.07,5.73,42.28,3.41,17.29,15.05,61.61,47.59,107.81a302.2,302.2,0,0,0,47.29,52.69c10.43,9.8,85.87,78.33,197.44,65.49,110.58-12.72,168.37-95.2,176.48-107.22Q657.46,1441.84,739.64,1193L266.55,1042.71Z" transform="translate(-99.42 -35.33)"/>
  <path class="cls-5" d="M1653.89,346v847.36c0,167.06-136.64,302.49-305.19,302.49H493.82c-168.55,0-305.18-135.43-305.18-302.49V346c0-167.06,136.63-302.49,305.18-302.49H1348.7C1517.25,43.5,1653.89,178.93,1653.89,346Z" transform="translate(-99.42 -35.33)"/>
  <rect class="cls-6" x="101.44" width="1440.8" height="1440.8" rx="300.09"/>
  <g id="Combining">
    <g class="cls-7">
      <path class="cls-8" d="M590.5,1017.69q-14.87,0-26.72-11.85t-11.86-26.72a36.11,36.11,0,0,1,11.86-27.43q11.85-11.12,26.72-11.13,16.31,0,27.43,11.13t11.12,27.43q0,14.86-11.12,26.72A36.14,36.14,0,0,1,590.5,1017.69ZM617.19,893.1q-14.85,0-26.71-11.87t-11.86-26.7a36.14,36.14,0,0,1,11.86-27.44Q602.33,816,617.19,816q16.32,0,27.44,11.14t11.12,27.44q0,14.84-11.12,26.7A36.09,36.09,0,0,1,617.19,893.1Zm0,249.18q-14.85,0-26.71-11.85t-11.86-26.7a36.14,36.14,0,0,1,11.86-27.45q11.85-11.12,26.71-11.13,16.32,0,27.44,11.13t11.12,27.45q0,14.83-11.12,26.7A36.15,36.15,0,0,1,617.19,1142.28ZM686.9,783.34q-14.83,0-26.7-11.86t-11.85-26.72a36.14,36.14,0,0,1,11.85-27.43q11.87-11.1,26.7-11.12,16.32,0,27.45,11.12t11.13,27.43q0,14.87-11.13,26.72A36.18,36.18,0,0,1,686.9,783.34Zm0,468.71q-14.83,0-26.7-11.86t-11.85-26.72A36.14,36.14,0,0,1,660.2,1186q11.87-11.1,26.7-11.12,16.32,0,27.45,11.12t11.13,27.43q0,14.87-11.13,26.72A36.18,36.18,0,0,1,686.9,1252.05ZM796.67,713.61q-14.83,0-26.7-11.86t-11.86-26.7A36.17,36.17,0,0,1,770,647.6q11.85-11.1,26.7-11.12,16.3,0,27.43,11.12t11.14,27.45q0,14.84-11.14,26.7A36.11,36.11,0,0,1,796.67,713.61Zm0,608.14q-14.83,0-26.7-11.85t-11.86-26.7A36.16,36.16,0,0,1,770,1255.75q11.85-11.1,26.7-11.12,16.3,0,27.43,11.12t11.14,27.45q0,14.83-11.14,26.7A36.14,36.14,0,0,1,796.67,1321.75ZM921.26,686.91q-14.84,0-26.7-11.86T882.7,648.36a36.14,36.14,0,0,1,11.86-27.45q11.85-11.11,26.7-11.13,16.31,0,27.45,11.13t11.12,27.45q0,14.82-11.12,26.69A36.16,36.16,0,0,1,921.26,686.91Zm0,661.54q-14.84,0-26.7-11.85t-11.86-26.7a36.16,36.16,0,0,1,11.86-27.45q11.85-11.12,26.7-11.13,16.31,0,27.45,11.13t11.12,27.45q0,14.83-11.12,26.7A36.18,36.18,0,0,1,921.26,1348.45Zm124.61-634.84q-14.86,0-26.72-11.86t-11.86-26.7a36.17,36.17,0,0,1,11.86-27.45q11.85-11.1,26.72-11.12,16.31,0,27.43,11.12t11.12,27.45q0,14.84-11.12,26.7A36.11,36.11,0,0,1,1045.87,713.61Zm0,608.14q-14.86,0-26.72-11.85t-11.86-26.7a36.16,36.16,0,0,1,11.86-27.45q11.85-11.1,26.72-11.12,16.31,0,27.43,11.12t11.12,27.45q0,14.83-11.12,26.7A36.14,36.14,0,0,1,1045.87,1321.75Zm109.76-538.41q-14.87,0-26.72-11.86t-11.85-26.72a36.14,36.14,0,0,1,11.85-27.43q11.86-11.1,26.72-11.12,16.3,0,27.43,11.12t11.13,27.43q0,14.87-11.13,26.72A36.15,36.15,0,0,1,1155.63,783.34Zm0,468.71q-14.87,0-26.72-11.86t-11.85-26.72a36.14,36.14,0,0,1,11.85-27.43q11.86-11.1,26.72-11.12,16.3,0,27.43,11.12t11.13,27.43q0,14.87-11.13,26.72A36.15,36.15,0,0,1,1155.63,1252.05Zm69.71-358.95q-14.86,0-26.72-11.87t-11.86-26.7a36.17,36.17,0,0,1,11.86-27.44Q1210.49,816,1225.34,816q16.31,0,27.43,11.14t11.12,27.44q0,14.84-11.12,26.7A36.09,36.09,0,0,1,1225.34,893.1Zm0,249.18q-14.86,0-26.72-11.85t-11.86-26.7a36.18,36.18,0,0,1,11.86-27.45q11.87-11.12,26.72-11.13,16.31,0,27.43,11.13t11.12,27.45q0,14.83-11.12,26.7A36.14,36.14,0,0,1,1225.34,1142.28Zm26.7-124.59q-14.86,0-26.72-11.85t-11.86-26.72a36.15,36.15,0,0,1,11.86-27.43q11.85-11.12,26.72-11.13,16.31,0,27.43,11.13t11.12,27.43q0,14.86-11.12,26.72A36.14,36.14,0,0,1,1252,1017.69Z" transform="translate(-99.42 -35.33)"/>
    </g>
    <path class="cls-8" d="M944.27,145q73.93,0,110.89,29.23t37,94.56v251h-49.85l-12-51.59h-3.42Q999.26,497.43,969.18,512t-81.64,14.62q-56.71,0-93.72-26.64t-37-83.39q0-55,48.13-85.08t149.59-31.82l70.5-1.72V275.66q0-46.41-22.37-64.48t-63.61-18.06a218.78,218.78,0,0,0-61.9,8.61,395.37,395.37,0,0,0-55,20.62l-20.62-46.41q27.51-12,64.46-21.49A315.06,315.06,0,0,1,944.27,145Zm18.92,196q-77.36,3.42-106.6,22.34t-29.23,55q0,31,20.63,45.56t55,14.62q51.56,0,86.81-25.79t35.26-80.8V339.28Z" transform="translate(-99.42 -35.33)"/>
  </g>
</svg>
