<svg xmlns="http://www.w3.org/2000/svg" viewBox="0 0 894.37 1197.49">
  <defs>
    <style>
      .cls-1 {
        fill: #333;
      }
    </style>
  </defs>
  <g id="Слой_2" data-name="Слой 2">
    <g id="Norse">
      <path class="cls-1" d="M140.29,374.94a416.35,416.35,0,0,0,124.85-45.08,405.05,405.05,0,0,0,102.7-80.16,368.74,368.74,0,0,0,69.33-108.56q25.45-61,25.46-131.12V0h137.8V13.36q0,91-33.84,171.18a494.45,494.45,0,0,1-94.35,145.3Q411.69,395,326.94,441.74T140.29,513.56v157a867.46,867.46,0,0,0,162.42-48.84,829,829,0,0,0,146.56-78.07,791.35,791.35,0,0,0,125.26-104A675.62,675.62,0,0,0,671.81,314a607.09,607.09,0,0,0,62.64-144.48A573.39,573.39,0,0,0,756.58,10V0H894.37V13.36A688.47,688.47,0,0,1,870.15,195a745.2,745.2,0,0,1-69.74,170,795.27,795.27,0,0,1-111.48,152q-66,71-149.88,128.17T354.92,743.22q-100.21,40.9-214.63,62.62v391.65H0V0H140.29Z"/>
    </g>
  </g>
</svg>
