<svg xmlns="http://www.w3.org/2000/svg" viewBox="0 0 767.9 1149.87">
  <defs>
    <style>
      .cls-1 {
        fill: #333;
      }
    </style>
  </defs>
  <g id="Слой_2" data-name="Слой 2">
    <g id="Phoenician">
      <path class="cls-1" d="M767.86,67.2q0-1-.09-2l0-.44c0-.66-.1-1.33-.16-2-.14-1.47-.33-2.93-.57-4.36a68.72,68.72,0,0,0-12.59-29.79c-.42-.56-.84-1.13-1.28-1.68l-.06-.08q-1.35-1.69-2.79-3.31c-.49-.55-1-1.09-1.5-1.62s-1-1.05-1.53-1.56-1-1-1.56-1.49a.52.52,0,0,0-.11-.1c-.44-.41-.9-.82-1.36-1.23-.67-.58-1.34-1.16-2-1.72l-1.63-1.27c-1.18-.89-2.39-1.77-3.63-2.6-.63-.42-1.26-.82-1.9-1.22s-1.44-.88-2.17-1.3c-.36-.21-.74-.41-1.1-.61a71.54,71.54,0,0,0-23.44-8L707,.66,705.86.52c-.82-.1-1.64-.19-2.46-.25l-1.23-.1-2-.11c-1,0-2-.06-3-.06q-1.82,0-3.63.09l-.59,0c-1.16.06-2.33.16-3.5.29l-1.9.22h-.08l-1.86.28-1.92.34A72.66,72.66,0,0,0,667,6.67l-1.13.53L40.43,289.53a68.91,68.91,0,0,0,0,125.5L626.56,679.1V1011H111c-39,0-70.67,31.08-70.67,69.42s31.64,69.43,70.67,69.43H697.23c39,0,70.67-31.08,70.67-69.43V69.43C767.9,68.68,767.89,67.94,767.86,67.2Zm-532,285.08L626.56,179.09V525.48Z"/>
    </g>
  </g>
</svg>
