<svg xmlns="http://www.w3.org/2000/svg" viewBox="0 0 924.55 1157.88">
  <defs>
    <style>
      .cls-1 {
        fill: #333;
      }
    </style>
  </defs>
  <g id="Слой_2" data-name="Слой 2">
    <g id="Ugaritic">
      <path class="cls-1" d="M0,235.5q14.18-63.23,14.17-121Q14.17,53.44,0,0,64.32,17.45,125.38,31.62T256.22,56.7Q326,67.62,416.49,76.87T630.72,96q123.74,9.81,293.83,20.71V145Q763.2,149.38,638.9,155.38T419.21,169q-95.41,7.62-169.54,17.43T115,208.25Q54.51,220.24,0,235.5ZM0,520.06q14.18-63.22,14.17-121Q14.17,338,0,284.58,64.32,302,125.38,316.18t130.84,25.08Q326,352.18,416.49,361.43t214.23,19.08q123.74,9.81,293.83,20.71v28.36Q763.2,434,638.9,439.94T419.21,453.57Q323.8,461.19,249.67,471T115,492.81Q54.51,504.83,0,520.06ZM0,804.64q14.18-63.25,14.17-121,0-61.05-14.17-114.47,64.32,17.45,125.38,31.62t130.84,25.08Q326,636.73,416.49,646t214.23,19.09q123.74,9.82,293.83,20.7v28.36Q763.2,718.52,638.9,724.5T419.21,738.13q-95.41,7.61-169.54,17.43T115,777.37Q54.51,789.36,0,804.64Zm179.89,353.24q-20.73-125.4-48.52-202.24T76.32,822.07q31.64,4.35,63.23,7.1t63.25,2.71q27.25,0,54.5-2.17a473.29,473.29,0,0,0,54.52-7.64q-16.35,39.24-34.88,85.59T240.41,1014q-18,60-32.16,143.91Z"/>
    </g>
  </g>
</svg>
