<svg id="NamViet" xmlns="http://www.w3.org/2000/svg" xmlns:xlink="http://www.w3.org/1999/xlink" viewBox="0 0 1643.73 1771.86">
  <defs>
    <style>
      .cls-1 {
        fill: #6e6e6e;
      }

      .cls-2 {
        fill: url(#Безымянный_градиент_195);
      }

      .cls-3 {
        fill: url(#Безымянный_градиент_272);
      }

      .cls-4 {
        fill: url(#Безымянный_градиент_272-2);
      }

      .cls-5 {
        fill: #6b88eb;
      }

      .cls-6 {
        fill: url(#Безымянный_градиент_200);
      }

      .cls-7 {
        fill: #eee;
      }
    </style>
    <linearGradient id="Безымянный_градиент_195" data-name="Безымянный градиент 195" x1="99.42" y1="914.43" x2="1743.1" y2="914.43" gradientUnits="userSpaceOnUse">
      <stop offset="0" stop-color="#d12c45"/>
      <stop offset="1" stop-color="#751c30"/>
    </linearGradient>
    <linearGradient id="Безымянный_градиент_272" data-name="Безымянный градиент 272" x1="1277.5" y1="1364.52" x2="1772.86" y2="1364.52" gradientTransform="matrix(1.04, -0.63, 0.52, 0.85, -838.29, 1215.41)" gradientUnits="userSpaceOnUse">
      <stop offset="0.1" stop-color="#181716" stop-opacity="0"/>
      <stop offset="0.5" stop-color="#181716" stop-opacity="0.3"/>
      <stop offset="0.85" stop-color="#181716" stop-opacity="0"/>
    </linearGradient>
    <linearGradient id="Безымянный_градиент_272-2" x1="635.59" y1="889.42" x2="1130.95" y2="889.42" gradientTransform="matrix(-1.04, -0.63, -0.52, 0.85, 1768.54, 1215.41)" xlink:href="#Безымянный_градиент_272"/>
    <linearGradient id="Безымянный_градиент_200" data-name="Безымянный градиент 200" x1="101.44" y1="720.4" x2="1542.24" y2="720.4" gradientUnits="userSpaceOnUse">
      <stop offset="0" stop-color="#6b88eb"/>
      <stop offset="1" stop-color="#1d3c84"/>
    </linearGradient>
  </defs>
  <path class="cls-1" d="M1743.1,452.13v1055c0,165.74-134.35,300.09-300.09,300.09H399.51c-165.73,0-300.09-134.35-300.09-300.09v-1055c0-165.74,247.12-423.57,404.44-382.42h834.8C1496,28.56,1743.1,286.39,1743.1,452.13Z" transform="translate(-99.42 -35.33)"/>
  <path class="cls-2" d="M1743.1,430.3v1055c0,165.74-134.35,300.1-300.09,300.1H399.51c-165.73,0-300.09-134.36-300.09-300.1V430.3c0-165.73,247.12-423.57,404.44-382.42h834.8C1496,6.73,1743.1,264.57,1743.1,430.3Z" transform="translate(-99.42 -35.33)"/>
  <path class="cls-3" d="M1743.05,1490.86c.1,4.29.17,10.75,0,18.58,0,0-.23,8.27-1.21,20.22,0,0-1.93,23.07-5.72,42.28-3.41,17.29-15,61.61-47.59,107.81a302.32,302.32,0,0,1-47.3,52.69c-10.42,9.8-85.86,78.33-197.43,65.49-110.59-12.72-168.37-95.2-176.48-107.22q-82.17-248.87-164.35-497.73L1576,1042.71Q1659.54,1266.79,1743.05,1490.86Z" transform="translate(-99.42 -35.33)"/>
  <path class="cls-4" d="M99.51,1490.86c-.09,4.29-.16,10.75,0,18.58,0,0,.22,8.27,1.2,20.22,0,0,1.94,23.07,5.73,42.28,3.41,17.29,15.05,61.61,47.59,107.81a302.2,302.2,0,0,0,47.29,52.69c10.43,9.8,85.87,78.33,197.44,65.49,110.58-12.72,168.37-95.2,176.48-107.22Q657.46,1441.84,739.64,1193L266.55,1042.71Z" transform="translate(-99.42 -35.33)"/>
  <path class="cls-5" d="M1653.89,346v847.36c0,167.06-136.64,302.49-305.19,302.49H493.82c-168.55,0-305.18-135.43-305.18-302.49V346c0-167.06,136.63-302.49,305.18-302.49H1348.7C1517.25,43.5,1653.89,178.93,1653.89,346Z" transform="translate(-99.42 -35.33)"/>
  <rect class="cls-6" x="101.44" width="1440.8" height="1440.8" rx="300.09"/>
  <path class="cls-7" d="M896.15,1373.71q-142,0-235.75-61.6t-140-172.78q-46.21-111.19-46.2-259.88t46.2-258.51q46.22-109.83,140.64-170.78t236.43-60.94q119.21,0,206.27,48.22t139.32,135.28q46.88-13.4,65.63-34.83t18.75-49.57q0-20.07-14.07-28.79a225.84,225.84,0,0,1-28.79-21.43q-14.73-12.72-14.73-42.2,0-28.12,19.41-47.54t56.93-19.43q38.85,0,60.28,22.11t21.43,62.29q0,61.62-35.5,115.85t-126.57,87.74q50.89,112.51,50.9,263.88,0,148.68-48.9,259.19T1125.2,1312.11Q1031.44,1373.73,896.15,1373.71Zm0-72.33q150,0,211-111.17t60.94-309.41q0-199.59-60.94-309.42T897.49,461.55q-150,0-212.32,109.83T622.9,880.8q0,198.24,62.27,309.41T896.15,1301.38Zm88.19-973.95q-36.2,0-65.65-12.73a328.77,328.77,0,0,1-54.24-29.47q-24.8-16.74-46.89-29.47T774,243q-40.18,0-50.91,22.1A169.44,169.44,0,0,0,708.4,314H648.13q2.65-41.52,18.07-77a143.07,143.07,0,0,1,45.54-58.26Q741.88,156,790.11,156q36.15,0,64.95,12.72a345.29,345.29,0,0,1,53.59,29.47q24.78,16.77,46.88,29.48t43.53,12.72q38.84,0,50.23-22.11a156.66,156.66,0,0,0,15.4-48.88H1125a233,233,0,0,1-18.09,76.35q-15.41,36.16-44.88,58.93T984.34,327.43Z" transform="translate(-99.42 -35.33)"/>
</svg>
