<svg id="Cyrillic" xmlns="http://www.w3.org/2000/svg" xmlns:xlink="http://www.w3.org/1999/xlink" viewBox="0 0 1643.73 1771.86">
  <defs>
    <style>
      .cls-1 {
        fill: #6e6e6e;
      }

      .cls-2 {
        fill: url(#Безымянный_градиент_1171);
      }

      .cls-3 {
        fill: url(#Безымянный_градиент_272);
      }

      .cls-4 {
        fill: url(#Безымянный_градиент_272-2);
      }

      .cls-5 {
        fill: url(#Безымянный_градиент_805);
      }

      .cls-6 {
        fill: url(#Безымянный_градиент_769);
      }

      .cls-7 {
        fill: url(#Безымянный_градиент_93);
      }
    </style>
    <linearGradient id="Безымянный_градиент_1171" data-name="Безымянный градиент 1171" x1="99.42" y1="914.43" x2="1743.1" y2="914.43" gradientUnits="userSpaceOnUse">
      <stop offset="0.29" stop-color="#f0fdff"/>
      <stop offset="1" stop-color="#535e63"/>
    </linearGradient>
    <linearGradient id="Безымянный_градиент_272" data-name="Безымянный градиент 272" x1="1277.5" y1="1364.52" x2="1772.86" y2="1364.52" gradientTransform="matrix(1.04, -0.63, 0.52, 0.85, -838.29, 1215.41)" gradientUnits="userSpaceOnUse">
      <stop offset="0.1" stop-color="#181716" stop-opacity="0"/>
      <stop offset="0.5" stop-color="#181716" stop-opacity="0.3"/>
      <stop offset="0.85" stop-color="#181716" stop-opacity="0"/>
    </linearGradient>
    <linearGradient id="Безымянный_градиент_272-2" x1="635.59" y1="889.42" x2="1130.95" y2="889.42" gradientTransform="matrix(-1.04, -0.63, -0.52, 0.85, 1768.54, 1215.41)" xlink:href="#Безымянный_градиент_272"/>
    <linearGradient id="Безымянный_градиент_805" data-name="Безымянный градиент 805" x1="188.64" y1="769.67" x2="1653.89" y2="769.67" gradientUnits="userSpaceOnUse">
      <stop offset="0" stop-color="#6ee0ff"/>
      <stop offset="1" stop-color="#2a0054"/>
    </linearGradient>
    <linearGradient id="Безымянный_градиент_769" data-name="Безымянный градиент 769" x1="101.44" y1="720.4" x2="1542.24" y2="720.4" gradientUnits="userSpaceOnUse">
      <stop offset="0" stop-color="#36aae0"/>
      <stop offset="1" stop-color="#243473"/>
    </linearGradient>
    <linearGradient id="Безымянный_градиент_93" data-name="Безымянный градиент 93" x1="315.43" y1="757.73" x2="1527.1" y2="757.73" gradientUnits="userSpaceOnUse">
      <stop offset="0.45" stop-color="#e0f0ff"/>
      <stop offset="0.95" stop-color="#859099"/>
    </linearGradient>
  </defs>
  <path class="cls-1" d="M1743.1,452.13v1055c0,165.74-134.35,300.09-300.09,300.09H399.51c-165.73,0-300.09-134.35-300.09-300.09v-1055c0-165.74,247.12-423.57,404.44-382.42h834.8C1496,28.56,1743.1,286.39,1743.1,452.13Z" transform="translate(-99.42 -35.33)"/>
  <path class="cls-2" d="M1743.1,430.3v1055c0,165.74-134.35,300.1-300.09,300.1H399.51c-165.73,0-300.09-134.36-300.09-300.1V430.3c0-165.73,247.12-423.57,404.44-382.42h834.8C1496,6.73,1743.1,264.57,1743.1,430.3Z" transform="translate(-99.42 -35.33)"/>
  <path class="cls-3" d="M1743.05,1490.86c.1,4.29.17,10.75,0,18.58,0,0-.23,8.27-1.21,20.22,0,0-1.93,23.07-5.72,42.28-3.41,17.29-15,61.61-47.59,107.81a302.32,302.32,0,0,1-47.3,52.69c-10.42,9.8-85.86,78.33-197.43,65.49-110.59-12.72-168.37-95.2-176.48-107.22q-82.17-248.87-164.35-497.73L1576,1042.71Q1659.54,1266.79,1743.05,1490.86Z" transform="translate(-99.42 -35.33)"/>
  <path class="cls-4" d="M99.51,1490.86c-.09,4.29-.16,10.75,0,18.58,0,0,.22,8.27,1.2,20.22,0,0,1.94,23.07,5.73,42.28,3.41,17.29,15.05,61.61,47.59,107.81a302.2,302.2,0,0,0,47.29,52.69c10.43,9.8,85.87,78.33,197.44,65.49,110.58-12.72,168.37-95.2,176.48-107.22Q657.46,1441.84,739.64,1193L266.55,1042.71Z" transform="translate(-99.42 -35.33)"/>
  <path class="cls-5" d="M1653.89,346v847.36c0,167.06-136.64,302.49-305.19,302.49H493.82c-168.55,0-305.18-135.43-305.18-302.49V346c0-167.06,136.63-302.49,305.18-302.49H1348.7C1517.25,43.5,1653.89,178.93,1653.89,346Z" transform="translate(-99.42 -35.33)"/>
  <rect class="cls-6" x="101.44" width="1440.8" height="1440.8" rx="300.09"/>
  <path class="cls-7" d="M315.43,1203.29v-52h3.71q42.09,0,76.12-23.52t62.51-75.49L574.1,843.13q28.47-50.73,59.4-78T730,735.45q-28.47-26-50.73-68.07t-61.9-117.57q-38.35-74.26-71.16-110.15t-68.68-35.91q-33.45,0-50.75,20.43t-22.28,48.89q-23.52-4.95-41.47-26.61t-17.93-56.31q0-33.42,22.89-55.71t77.35-22.28q73,0,123.15,54.47t97.16,147.28Q700.33,582,723.24,627.77t39,65.6q16.07,19.82,34,28.47t67.46,8.66V455.74q0-54.45-30.32-69.31t-71.16-14.85h-3.72v-52H1084v52h-3.72q-42.08,0-71.79,15.48T978.82,460.7V730.5q49.51,0,67.45-8.66t34-28.47q16.1-19.79,39-65.6t57.56-113.86q47-92.82,97.76-147.28t122.54-54.47q54.46,0,77.36,22.28t22.9,55.71q0,34.64-18,56.31T1438,473.07q-5-28.47-22.28-48.89T1365,403.75q-35.91,0-68.7,35.91t-71.16,110.15q-38.37,75.5-61.27,117.57t-51.36,68.07q65.58,2.49,97.15,29.71t58.8,78l116.34,209.17q28.46,52,62.49,75.49t76.12,23.52h3.71v52h-17.32q-79.21,0-124.39-9.28t-71.79-34q-26.61-24.76-51.36-73L1149.61,871.6q-19.8-37.11-36.51-55.08T1066.69,793q-29.71-5.55-87.87-5.56v274.75q0,58.2,29.69,73.66t71.79,15.46H1084v52H758.51v-52h3.72q40.83,0,71.16-14.22t30.32-68.7v-281q-58.17,0-87.87,5.56t-46.41,23.52q-16.73,18-36.51,55.08L580.29,1087q-24.76,48.27-51.36,73t-71.79,34q-45.17,9.29-124.39,9.28Z" transform="translate(-99.42 -35.33)"/>
</svg>
