<svg version="1.1" xmlns="http://www.w3.org/2000/svg" xmlns:xlink="http://www.w3.org/1999/xlink" width="110" height="56"><defs><clipPath id="yHMBrubNTWhb"><path fill="none" stroke="none" d=" M 0 0 L 110 0 L 110 56 L 0 56 L 0 0 Z"/></clipPath></defs><g transform="scale(1,1)" clip-path="url(#yHMBrubNTWhb)"><g transform="translate(-70,-258)"><path fill="rgb(101,87,210)" stroke="none" paint-order="stroke fill markers" fill-rule="evenodd" d=" M 450 115 L 472 115 C 473.1045694996616 115 474 115.8954305003384 474 117 L 474 139 C 474 140.10456949966158 473.1045694996616 141 472 141 L 450 141 C 448.8954305003384 141 448 140.10456949966158 448 139 L 448 117 C 448 115.8954305003384 448.8954305003384 115 450 115 Z" fill-opacity="1"/><g transform="translate(448,115)"><path fill="none" stroke="rgb(255,255,255)" paint-order="fill stroke markers" d=" M 4.44 13.76 L 9.75 19.07 L 21.99 6.83" stroke-opacity="1" stroke-linecap="square" stroke-miterlimit="10" stroke-width="2.6"/><g transform="translate(-448,-115)"><text fill="rgb(0,0,0)" stroke="none" font-family="geogebra-sans-serif, sans-serif" font-size="32px" font-style="normal" font-weight="normal" text-decoration="normal" x="483" y="140" text-anchor="start" dominant-baseline="alphabetic" fill-opacity="1">Serif</text><g transform="scale(35,35)"><g transform="translate(2.2857142857142856,8.368714285714287)"><path fill="rgb(0,0,0)" stroke="none" paint-order="stroke fill markers" d=" M 0.582 -0.258 L 0.554 0 L 0.033 0 L 0.033 -0.031 L 0.057 -0.031 Q 0.122 -0.031 0.132 -0.048 Q 0.136 -0.055 0.136 -0.078 L 0.136 -0.605 Q 0.136 -0.635 0.124 -0.643 Q 0.11 -0.652 0.057 -0.652 L 0.033 -0.652 L 0.033 -0.683 Q 0.068 -0.68 0.185 -0.68 Q 0.317 -0.68 0.353 -0.683 L 0.353 -0.652 L 0.32 -0.652 Q 0.24 -0.652 0.229 -0.632 Q 0.225 -0.625 0.225 -0.604 L 0.225 -0.07100000000000001 Q 0.225 -0.041 0.23600000000000002 -0.036000000000000004 L 0.23700000000000002 -0.036000000000000004 Q 0.246 -0.031 0.274 -0.031 L 0.356 -0.031 Q 0.497 -0.031 0.536 -0.14400000000000002 Q 0.549 -0.181 0.557 -0.258 L 0.582 -0.258 Z"/></g><g transform="translate(2.5607142857142855,8.174764285714287) scale(0.7,0.7)"><path fill="rgb(0,0,0)" stroke="none" paint-order="stroke fill markers" d=" M 0.398 -0.6960000000000001 L 0.614 -0.07100000000000001 Q 0.624 -0.042 0.646 -0.036000000000000004 Q 0.666 -0.031 0.6990000000000001 -0.031 L 0.717 -0.031 L 0.717 0 Q 0.654 -0.003 0.586 -0.003 Q 0.47800000000000004 -0.003 0.442 0 L 0.442 -0.031 Q 0.525 -0.031 0.525 -0.061 Q 0.525 -0.063 0.522 -0.075 L 0.46900000000000003 -0.228 L 0.222 -0.228 L 0.176 -0.097 Q 0.17400000000000002 -0.093 0.17400000000000002 -0.082 Q 0.17400000000000002 -0.049 0.213 -0.036000000000000004 L 0.214 -0.036000000000000004 Q 0.229 -0.031 0.249 -0.031 L 0.249 0 Q 0.153 -0.003 0.134 -0.003 Q 0.101 -0.003 0.032 0 L 0.032 -0.031 Q 0.117 -0.033 0.14100000000000001 -0.091 Q 0.14300000000000002 -0.095 0.14400000000000002 -0.098 L 0.35100000000000003 -0.6960000000000001 Q 0.357 -0.713 0.367 -0.715 Q 0.37 -0.716 0.375 -0.716 Q 0.39 -0.716 0.396 -0.7020000000000001 L 0.396 -0.7010000000000001 L 0.396 -0.7000000000000001 L 0.398 -0.6960000000000001 M 0.34500000000000003 -0.584 L 0.233 -0.259 L 0.458 -0.259 L 0.34500000000000003 -0.584 Z"/></g><g transform="translate(2.9357142857142855,8.368714285714287)"><path fill="rgb(0,0,0)" stroke="none" paint-order="stroke fill markers" d=" M 0.666 -0.677 L 0.685 -0.452 L 0.66 -0.452 Q 0.65 -0.5660000000000001 0.628 -0.6 L 0.628 -0.601 Q 0.603 -0.639 0.525 -0.645 Q 0.506 -0.646 0.48 -0.646 Q 0.434 -0.646 0.423 -0.644 Q 0.406 -0.631 0.405 -0.606 L 0.405 -0.079 Q 0.405 -0.051000000000000004 0.417 -0.043000000000000003 Q 0.436 -0.031 0.51 -0.031 L 0.55 -0.031 L 0.55 0 Q 0.509 -0.003 0.36 -0.003 Q 0.212 -0.003 0.171 0 L 0.171 -0.031 L 0.211 -0.031 Q 0.299 -0.031 0.311 -0.05 Q 0.314 -0.055 0.315 -0.062 Q 0.316 -0.067 0.316 -0.079 L 0.316 -0.606 Q 0.316 -0.634 0.307 -0.64 L 0.306 -0.64 L 0.305 -0.641 L 0.304 -0.641 Q 0.301 -0.643 0.295 -0.644 Q 0.28500000000000003 -0.646 0.241 -0.646 Q 0.139 -0.646 0.106 -0.616 L 0.10200000000000001 -0.612 L 0.101 -0.611 L 0.101 -0.611 Q 0.074 -0.581 0.064 -0.481 Q 0.062 -0.46900000000000003 0.061 -0.452 L 0.036000000000000004 -0.452 L 0.055 -0.677 L 0.666 -0.677 Z"/></g><g transform="translate(3.5077142857142856,8.584214285714287)"><path fill="rgb(0,0,0)" stroke="none" paint-order="stroke fill markers" d=" M 0.652 -0.258 L 0.61 0 L 0.033 0 L 0.033 -0.031 L 0.057 -0.031 Q 0.122 -0.031 0.132 -0.048 Q 0.136 -0.055 0.136 -0.078 L 0.136 -0.602 Q 0.136 -0.632 0.124 -0.64 Q 0.11 -0.649 0.057 -0.649 L 0.033 -0.649 L 0.033 -0.68 L 0.596 -0.68 L 0.624 -0.455 L 0.599 -0.455 Q 0.586 -0.5650000000000001 0.553 -0.603 Q 0.513 -0.649 0.403 -0.649 L 0.274 -0.649 Q 0.23500000000000001 -0.649 0.228 -0.637 L 0.228 -0.636 L 0.228 -0.636 L 0.228 -0.635 Q 0.225 -0.629 0.225 -0.609 L 0.225 -0.369 L 0.315 -0.369 Q 0.392 -0.369 0.41100000000000003 -0.403 L 0.41100000000000003 -0.403 Q 0.41600000000000004 -0.41200000000000003 0.418 -0.425 Q 0.423 -0.445 0.423 -0.486 L 0.448 -0.486 L 0.448 -0.221 L 0.423 -0.221 Q 0.423 -0.294 0.402 -0.315 Q 0.379 -0.338 0.315 -0.338 L 0.225 -0.338 L 0.225 -0.07100000000000001 Q 0.225 -0.041 0.23600000000000002 -0.036000000000000004 L 0.23700000000000002 -0.036000000000000004 Q 0.246 -0.031 0.274 -0.031 L 0.40700000000000003 -0.031 Q 0.529 -0.031 0.5740000000000001 -0.089 Q 0.603 -0.127 0.62 -0.22 L 0.627 -0.258 L 0.652 -0.258 Z"/></g><g transform="translate(4.038714285714285,8.368714285714287)"><path fill="rgb(0,0,0)" stroke="none" paint-order="stroke fill markers" d=" M 0.402 -0.386 L 0.613 -0.067 Q 0.633 -0.037 0.67 -0.033 Q 0.684 -0.031 0.707 -0.031 L 0.726 -0.031 L 0.726 0 Q 0.663 -0.003 0.596 -0.003 Q 0.485 -0.003 0.45 0 L 0.45 -0.031 Q 0.5 -0.032 0.513 -0.055 Q 0.515 -0.058 0.515 -0.061 Q 0.515 -0.062 0.51 -0.07200000000000001 L 0.352 -0.311 L 0.21 -0.101 Q 0.2 -0.085 0.2 -0.077 Q 0.2 -0.05 0.23 -0.037 Q 0.244 -0.031 0.263 -0.031 L 0.263 0 Q 0.227 -0.003 0.135 -0.003 Q 0.132 -0.003 0.024 0 L 0.024 -0.031 Q 0.123 -0.031 0.167 -0.093 Q 0.166 -0.093 0.169 -0.097 L 0.333 -0.339 L 0.149 -0.617 Q 0.13 -0.646 0.093 -0.65 Q 0.079 -0.652 0.056 -0.652 L 0.037 -0.652 L 0.037 -0.683 Q 0.092 -0.68 0.167 -0.68 Q 0.278 -0.68 0.313 -0.683 L 0.313 -0.652 Q 0.263 -0.651 0.25 -0.628 Q 0.249 -0.627 0.249 -0.626 Q 0.248 -0.624 0.248 -0.622 Q 0.248 -0.618 0.255 -0.607 L 0.384 -0.41400000000000003 L 0.498 -0.583 Q 0.507 -0.597 0.507 -0.606 Q 0.507 -0.635 0.47200000000000003 -0.647 Q 0.46 -0.652 0.445 -0.652 L 0.445 -0.683 Q 0.485 -0.68 0.5730000000000001 -0.68 Q 0.5670000000000001 -0.68 0.684 -0.683 L 0.684 -0.652 Q 0.586 -0.651 0.543 -0.592 L 0.542 -0.591 L 0.541 -0.59 L 0.541 -0.589 L 0.539 -0.587 L 0.402 -0.386 Z"/></g></g><path fill="rgb(255,255,255)" stroke="none" paint-order="stroke fill markers" fill-rule="evenodd" d=" M 37.5 109 L 166.5 109 C 168.43299662440776 109 170 110.56700337559222 170 112.5 L 170 140.5 C 170 142.43299662440776 168.43299662440776 144 166.5 144 L 37.5 144 C 35.56700337559222 144 34 142.43299662440776 34 140.5 L 34 112.5 C 34 110.56700337559222 35.56700337559222 109 37.5 109 Z" fill-opacity="1"/><path fill="none" stroke="rgb(179,179,179)" paint-order="fill stroke markers" d=" M 37.5 109 L 166.5 109 C 168.43299662440776 109 170 110.56700337559222 170 112.5 L 170 140.5 C 170 142.43299662440776 168.43299662440776 144 166.5 144 L 37.5 144 C 35.56700337559222 144 34 142.43299662440776 34 140.5 L 34 112.5 C 34 110.56700337559222 35.56700337559222 109 37.5 109 Z" stroke-opacity="1" stroke-linecap="round" stroke-linejoin="round" stroke-miterlimit="10"/><text fill="rgb(0,0,0)" stroke="none" font-family="geogebra-sans-serif, sans-serif" font-size="24px" font-style="normal" font-weight="normal" text-decoration="normal" x="44" y="136" text-anchor="start" dominant-baseline="alphabetic" fill-opacity="1">Show SVG</text><path fill="rgb(255,255,255)" stroke="none" paint-order="stroke fill markers" fill-rule="evenodd" d=" M 204.5 106 L 380.5 106 C 382.4329966244078 106 384 107.56700337559222 384 109.5 L 384 137.5 C 384 139.43299662440776 382.4329966244078 141 380.5 141 L 204.5 141 C 202.56700337559224 141 201 139.43299662440776 201 137.5 L 201 109.5 C 201 107.56700337559222 202.56700337559224 106 204.5 106 Z" fill-opacity="1"/><path fill="none" stroke="rgb(179,179,179)" paint-order="fill stroke markers" d=" M 204.5 106 L 380.5 106 C 382.4329966244078 106 384 107.56700337559222 384 109.5 L 384 137.5 C 384 139.43299662440776 382.4329966244078 141 380.5 141 L 204.5 141 C 202.56700337559224 141 201 139.43299662440776 201 137.5 L 201 109.5 C 201 107.56700337559222 202.56700337559224 106 204.5 106 Z" stroke-opacity="1" stroke-linecap="round" stroke-linejoin="round" stroke-miterlimit="10"/><text fill="rgb(0,0,0)" stroke="none" font-family="geogebra-sans-serif, sans-serif" font-size="24px" font-style="normal" font-weight="normal" text-decoration="normal" x="211" y="133" text-anchor="start" dominant-baseline="alphabetic" fill-opacity="1">Download SVG</text><path fill="rgb(255,255,255)" stroke="none" paint-order="stroke fill markers" fill-rule="evenodd" d=" M 212 30 L 722 30 C 724.2091389993232 30 726 31.790861000676827 726 34 L 726 75 C 726 77.20913899932317 724.2091389993232 79 722 79 L 212 79 C 209.7908610006768 79 208 77.20913899932317 208 75 L 208 34 C 208 31.790861000676827 209.7908610006768 30 212 30 Z" fill-opacity="1"/><path fill="none" stroke="rgb(180,179,186)" paint-order="fill stroke markers" d=" M 212 30 L 722 30 C 724.2091389993232 30 726 31.790861000676827 726 34 L 726 75 C 726 77.20913899932317 724.2091389993232 79 722 79 L 212 79 C 209.7908610006768 79 208 77.20913899932317 208 75 L 208 34 C 208 31.790861000676827 209.7908610006768 30 212 30 Z" stroke-opacity="1" stroke-linecap="round" stroke-linejoin="round" stroke-miterlimit="10"/><text fill="rgb(0,0,0)" stroke="none" font-family="geogebra-sans-serif, sans-serif" font-size="32px" font-style="normal" font-weight="normal" text-decoration="normal" x="210" y="66" text-anchor="start" dominant-baseline="alphabetic" fill-opacity="1">\LaTeX</text><text fill="rgb(0,0,0)" stroke="none" font-family="geogebra-sans-serif, sans-serif" font-size="32px" font-style="normal" font-weight="normal" text-decoration="normal" x="30" y="66" text-anchor="start" dominant-baseline="alphabetic" fill-opacity="1">Enter LaTeX</text></g></g></g></g><script xmlns=""/><link xmlns=""/></svg>