<svg id="NorthArabian" xmlns="http://www.w3.org/2000/svg" xmlns:xlink="http://www.w3.org/1999/xlink" viewBox="0 0 1643.73 1771.86">
  <defs>
    <style>
      .cls-1 {
        fill: #6e6e6e;
      }

      .cls-2 {
        fill: url(#Безымянный_градиент_835);
      }

      .cls-3 {
        fill: url(#Безымянный_градиент_272);
      }

      .cls-4 {
        fill: url(#Безымянный_градиент_272-2);
      }

      .cls-5 {
        fill: #a6bf74;
      }

      .cls-6 {
        fill: url(#Безымянный_градиент_827);
      }

      .cls-7 {
        fill: #cee899;
      }
    </style>
    <linearGradient id="Безымянный_градиент_835" data-name="Безымянный градиент 835" x1="99.42" y1="914.43" x2="1743.1" y2="914.43" gradientUnits="userSpaceOnUse">
      <stop offset="0.19" stop-color="#a2c445"/>
      <stop offset="0.9" stop-color="#2a3d0d"/>
    </linearGradient>
    <linearGradient id="Безымянный_градиент_272" data-name="Безымянный градиент 272" x1="1277.5" y1="1364.52" x2="1772.86" y2="1364.52" gradientTransform="matrix(1.04, -0.63, 0.52, 0.85, -838.29, 1215.41)" gradientUnits="userSpaceOnUse">
      <stop offset="0.1" stop-color="#181716" stop-opacity="0"/>
      <stop offset="0.5" stop-color="#181716" stop-opacity="0.3"/>
      <stop offset="0.85" stop-color="#181716" stop-opacity="0"/>
    </linearGradient>
    <linearGradient id="Безымянный_градиент_272-2" x1="635.59" y1="889.42" x2="1130.95" y2="889.42" gradientTransform="matrix(-1.04, -0.63, -0.52, 0.85, 1768.54, 1215.41)" xlink:href="#Безымянный_градиент_272"/>
    <linearGradient id="Безымянный_градиент_827" data-name="Безымянный градиент 827" x1="101.44" y1="720.4" x2="1542.24" y2="720.4" gradientUnits="userSpaceOnUse">
      <stop offset="0" stop-color="#a6bf74"/>
      <stop offset="1" stop-color="#22451c"/>
    </linearGradient>
  </defs>
  <path class="cls-1" d="M1743.1,452.13v1055c0,165.74-134.35,300.09-300.09,300.09H399.51c-165.73,0-300.09-134.35-300.09-300.09v-1055c0-165.74,247.12-423.57,404.44-382.42h834.8C1496,28.56,1743.1,286.39,1743.1,452.13Z" transform="translate(-99.42 -35.33)"/>
  <path class="cls-2" d="M1743.1,430.3v1055c0,165.74-134.35,300.1-300.09,300.1H399.51c-165.73,0-300.09-134.36-300.09-300.1V430.3c0-165.73,247.12-423.57,404.44-382.42h834.8C1496,6.73,1743.1,264.57,1743.1,430.3Z" transform="translate(-99.42 -35.33)"/>
  <path class="cls-3" d="M1743.05,1490.86c.1,4.29.17,10.75,0,18.58,0,0-.23,8.27-1.21,20.22,0,0-1.93,23.07-5.72,42.28-3.41,17.29-15,61.61-47.59,107.81a302.32,302.32,0,0,1-47.3,52.69c-10.42,9.8-85.86,78.33-197.43,65.49-110.59-12.72-168.37-95.2-176.48-107.22q-82.17-248.87-164.35-497.73L1576,1042.71Q1659.54,1266.79,1743.05,1490.86Z" transform="translate(-99.42 -35.33)"/>
  <path class="cls-4" d="M99.51,1490.86c-.09,4.29-.16,10.75,0,18.58,0,0,.22,8.27,1.2,20.22,0,0,1.94,23.07,5.73,42.28,3.41,17.29,15.05,61.61,47.59,107.81a302.2,302.2,0,0,0,47.29,52.69c10.43,9.8,85.87,78.33,197.44,65.49,110.58-12.72,168.37-95.2,176.48-107.22Q657.46,1441.84,739.64,1193L266.55,1042.71Z" transform="translate(-99.42 -35.33)"/>
  <path class="cls-5" d="M1653.89,346v847.36c0,167.06-136.64,302.49-305.19,302.49H493.82c-168.55,0-305.18-135.43-305.18-302.49V346c0-167.06,136.63-302.49,305.18-302.49H1348.7C1517.25,43.5,1653.89,178.93,1653.89,346Z" transform="translate(-99.42 -35.33)"/>
  <rect class="cls-6" x="101.44" width="1440.8" height="1440.8" rx="300.09"/>
  <g>
    <path class="cls-7" d="M1477.08,666.35H1265.41a350.39,350.39,0,0,0-92.56-174.58l.68-.68,131.23-131.24c28-28,28.42-73,.9-100.54s-72.54-27.12-100.55.89L1054.22,411.11l-.39.38a347.91,347.91,0,0,0-62.08-18.79,354.2,354.2,0,0,0-140.93,0,348.14,348.14,0,0,0-61.12,18.41l-.94.39L637.46,260.2c-28-28-73-28.4-100.54-.89s-27.11,72.53.91,100.54L669.06,491.09l.68.68a350.23,350.23,0,0,0-92.56,174.58H361.45c-39.61,0-71.73,31.55-71.73,70.46s32.12,70.46,71.73,70.46H577.18a349.5,349.5,0,0,0,66.37,144.49L499.68,1095.63c-28,28-28.4,73-.89,100.54s72.54,27.12,100.55-.9l151.4-151.4a348.48,348.48,0,0,0,100.08,37.05v212.41c0,39.61,31.56,71.72,70.47,71.72s70.46-32.11,70.46-71.72V1080.92a348.76,348.76,0,0,0,100.09-37.05l151.4,151.4c28,28,73,28.41,100.55.9s27.12-72.53-.89-100.54L1199,951.76c.21-.25.4-.5.59-.75q7.32-9.51,14-19.5a349.62,349.62,0,0,0,51.8-124.24h211.66c39.61,0,71.72-31.55,71.72-70.47S1516.69,666.35,1477.08,666.35Zm-360.5,168.12a214.9,214.9,0,0,1-12.23,21.26c-.17.28-.36.55-.53.82a221.35,221.35,0,0,1-45.56,50.18,216.3,216.3,0,0,1-17.78,13h0c-2,1.28-4,2.55-6,3.78a216.15,216.15,0,0,1-42.73,20,220.36,220.36,0,0,1-140.93,0,216,216,0,0,1-42.71-20,221.44,221.44,0,0,1-69.36-66.93,216.24,216.24,0,0,1-34.39-95.73,222.53,222.53,0,0,1-1.3-24A216.62,216.62,0,0,1,740.4,614.63a219,219,0,0,1,24-29.52c.85-.87,1.71-1.75,2.57-2.61a217.22,217.22,0,0,1,82.24-51.79l1.58-.55a217.85,217.85,0,0,1,224.8,52.34,220.92,220.92,0,0,1,26.58,32.12A215.76,215.76,0,0,1,1128,666.35a218.32,218.32,0,0,1,11.58,70.46,222.53,222.53,0,0,1-1.3,24,216,216,0,0,1-21.65,73.64Z" transform="translate(-99.42 -35.33)"/>
    <path class="cls-7" d="M1139.53,736.81a222.53,222.53,0,0,1-1.3,24A217.78,217.78,0,0,1,1128,807.27h-.74a220.33,220.33,0,0,0,0-140.92h.73A218.32,218.32,0,0,1,1139.53,736.81Z" transform="translate(-99.42 -35.33)"/>
  </g>
</svg>
