<svg id="Greek" xmlns="http://www.w3.org/2000/svg" xmlns:xlink="http://www.w3.org/1999/xlink" viewBox="0 0 1643.73 1771.86">
  <defs>
    <style>
      .cls-1 {
        fill: #6e6e6e;
      }

      .cls-2 {
        fill: url(#Безымянный_градиент_1440);
      }

      .cls-3 {
        fill: url(#Безымянный_градиент_272);
      }

      .cls-4 {
        fill: url(#Безымянный_градиент_272-2);
      }

      .cls-5 {
        fill: url(#Безымянный_градиент_1514);
      }

      .cls-6 {
        fill: url(#Безымянный_градиент_1402);
      }

      .cls-7 {
        fill: url(#Безымянный_градиент_1613);
      }
    </style>
    <linearGradient id="Безымянный_градиент_1440" data-name="Безымянный градиент 1440" x1="99.42" y1="914.43" x2="1743.1" y2="914.43" gradientUnits="userSpaceOnUse">
      <stop offset="0.29" stop-color="#e6e1dd"/>
      <stop offset="1" stop-color="#524a47"/>
    </linearGradient>
    <linearGradient id="Безымянный_градиент_272" data-name="Безымянный градиент 272" x1="1277.5" y1="1364.52" x2="1772.86" y2="1364.52" gradientTransform="matrix(1.04, -0.63, 0.52, 0.85, -838.29, 1215.41)" gradientUnits="userSpaceOnUse">
      <stop offset="0.1" stop-color="#181716" stop-opacity="0"/>
      <stop offset="0.5" stop-color="#181716" stop-opacity="0.3"/>
      <stop offset="0.85" stop-color="#181716" stop-opacity="0"/>
    </linearGradient>
    <linearGradient id="Безымянный_градиент_272-2" x1="635.59" y1="889.42" x2="1130.95" y2="889.42" gradientTransform="matrix(-1.04, -0.63, -0.52, 0.85, 1768.54, 1215.41)" xlink:href="#Безымянный_градиент_272"/>
    <linearGradient id="Безымянный_градиент_1514" data-name="Безымянный градиент 1514" x1="188.64" y1="769.67" x2="1653.89" y2="769.67" gradientUnits="userSpaceOnUse">
      <stop offset="0" stop-color="#5c5b34"/>
      <stop offset="1" stop-color="#626223"/>
    </linearGradient>
    <linearGradient id="Безымянный_градиент_1402" data-name="Безымянный градиент 1402" x1="101.44" y1="720.4" x2="1542.24" y2="720.4" gradientUnits="userSpaceOnUse">
      <stop offset="0" stop-color="#70874a"/>
      <stop offset="1" stop-color="#3b452f"/>
    </linearGradient>
    <linearGradient id="Безымянный_градиент_1613" data-name="Безымянный градиент 1613" x1="419.5" y1="731.98" x2="1423.04" y2="731.98" gradientUnits="userSpaceOnUse">
      <stop offset="0.4" stop-color="#ffe35e"/>
      <stop offset="0.95" stop-color="#ab8c5c"/>
    </linearGradient>
  </defs>
  <path class="cls-1" d="M1743.1,452.13v1055c0,165.74-134.35,300.09-300.09,300.09H399.51c-165.73,0-300.09-134.35-300.09-300.09v-1055c0-165.74,247.12-423.57,404.44-382.42h834.8C1496,28.56,1743.1,286.39,1743.1,452.13Z" transform="translate(-99.42 -35.33)"/>
  <path class="cls-2" d="M1743.1,430.3v1055c0,165.74-134.35,300.1-300.09,300.1H399.51c-165.73,0-300.09-134.36-300.09-300.1V430.3c0-165.73,247.12-423.57,404.44-382.42h834.8C1496,6.73,1743.1,264.57,1743.1,430.3Z" transform="translate(-99.42 -35.33)"/>
  <path class="cls-3" d="M1743.05,1490.86c.1,4.29.17,10.75,0,18.58,0,0-.23,8.27-1.21,20.22,0,0-1.93,23.07-5.72,42.28-3.41,17.29-15,61.61-47.59,107.81a302.32,302.32,0,0,1-47.3,52.69c-10.42,9.8-85.86,78.33-197.43,65.49-110.59-12.72-168.37-95.2-176.48-107.22q-82.17-248.87-164.35-497.73L1576,1042.71Q1659.54,1266.79,1743.05,1490.86Z" transform="translate(-99.42 -35.33)"/>
  <path class="cls-4" d="M99.51,1490.86c-.09,4.29-.16,10.75,0,18.58,0,0,.22,8.27,1.2,20.22,0,0,1.94,23.07,5.73,42.28,3.41,17.29,15.05,61.61,47.59,107.81a302.2,302.2,0,0,0,47.29,52.69c10.43,9.8,85.87,78.33,197.44,65.49,110.58-12.72,168.37-95.2,176.48-107.22Q657.46,1441.84,739.64,1193L266.55,1042.71Z" transform="translate(-99.42 -35.33)"/>
  <path class="cls-5" d="M1653.89,346v847.36c0,167.06-136.64,302.49-305.19,302.49H493.82c-168.55,0-305.18-135.43-305.18-302.49V346c0-167.06,136.63-302.49,305.18-302.49H1348.7C1517.25,43.5,1653.89,178.93,1653.89,346Z" transform="translate(-99.42 -35.33)"/>
  <rect class="cls-6" x="101.44" width="1440.8" height="1440.8" rx="300.09"/>
  <path class="cls-7" d="M430,1275.75,419.5,1013.24h78L508,1077.73q7.49,49.55,39.75,71.28t102.76,21.74H781l9-87q-109.51-37.5-189.77-94.5T477.24,846q-42.75-86.28-42.75-210.77,0-130.49,55.5-231T655,246q109.5-57.73,268.52-57.75,151.49,0,259.51,53.26t166.51,150q58.49,96.75,58.51,227.26,0,186-95.26,297.76t-260.27,167.26l9,87H1192q70.48,0,102.75-21.74t39.75-71.28l10.51-64.49h78l-10.49,262.51H1000l-22.5-253.52Q1114,984.73,1177.78,882t63.75-264.77q0-165-75.76-256.5T923.52,269.21q-168,0-245.28,99.75T601,633.72q0,162,63.75,256.52t200.26,132l-21,253.52Z" transform="translate(-99.42 -35.33)"/>
</svg>
