<svg id="Gothic" xmlns="http://www.w3.org/2000/svg" xmlns:xlink="http://www.w3.org/1999/xlink" viewBox="0 0 1643.73 1771.86">
  <defs>
    <style>
      .cls-1 {
        fill: #6e6e6e;
      }

      .cls-2 {
        fill: url(#Безымянный_градиент_108);
      }

      .cls-3 {
        fill: url(#Безымянный_градиент_272);
      }

      .cls-4 {
        fill: url(#Безымянный_градиент_272-2);
      }

      .cls-5 {
        fill: #b79e6e;
      }

      .cls-6 {
        fill: url(#Безымянный_градиент_134);
      }

      .cls-7 {
        fill: #ccc;
      }
    </style>
    <linearGradient id="Безымянный_градиент_108" data-name="Безымянный градиент 108" x1="99.42" y1="914.43" x2="1743.1" y2="914.43" gradientUnits="userSpaceOnUse">
      <stop offset="0" stop-color="#968a32"/>
      <stop offset="1" stop-color="#593113"/>
    </linearGradient>
    <linearGradient id="Безымянный_градиент_272" data-name="Безымянный градиент 272" x1="1277.5" y1="1364.52" x2="1772.86" y2="1364.52" gradientTransform="matrix(1.04, -0.63, 0.52, 0.85, -838.29, 1215.41)" gradientUnits="userSpaceOnUse">
      <stop offset="0.1" stop-color="#181716" stop-opacity="0"/>
      <stop offset="0.5" stop-color="#181716" stop-opacity="0.3"/>
      <stop offset="0.85" stop-color="#181716" stop-opacity="0"/>
    </linearGradient>
    <linearGradient id="Безымянный_градиент_272-2" x1="635.59" y1="889.42" x2="1130.95" y2="889.42" gradientTransform="matrix(-1.04, -0.63, -0.52, 0.85, 1768.54, 1215.41)" xlink:href="#Безымянный_градиент_272"/>
    <linearGradient id="Безымянный_градиент_134" data-name="Безымянный градиент 134" x1="101.44" y1="720.4" x2="1542.24" y2="720.4" gradientUnits="userSpaceOnUse">
      <stop offset="0" stop-color="#b79e6e"/>
      <stop offset="1" stop-color="#8c7000"/>
    </linearGradient>
  </defs>
  <path class="cls-1" d="M1743.1,452.13v1055c0,165.74-134.35,300.09-300.09,300.09H399.51c-165.73,0-300.09-134.35-300.09-300.09v-1055c0-165.74,247.12-423.57,404.44-382.42h834.8C1496,28.56,1743.1,286.39,1743.1,452.13Z" transform="translate(-99.42 -35.33)"/>
  <path class="cls-2" d="M1743.1,430.3v1055c0,165.74-134.35,300.1-300.09,300.1H399.51c-165.73,0-300.09-134.36-300.09-300.1V430.3c0-165.73,247.12-423.57,404.44-382.42h834.8C1496,6.73,1743.1,264.57,1743.1,430.3Z" transform="translate(-99.42 -35.33)"/>
  <path class="cls-3" d="M1743.05,1490.86c.1,4.29.17,10.75,0,18.58,0,0-.23,8.27-1.21,20.22,0,0-1.93,23.07-5.72,42.28-3.41,17.29-15,61.61-47.59,107.81a302.32,302.32,0,0,1-47.3,52.69c-10.42,9.8-85.86,78.33-197.43,65.49-110.59-12.72-168.37-95.2-176.48-107.22q-82.17-248.87-164.35-497.73L1576,1042.71Q1659.54,1266.79,1743.05,1490.86Z" transform="translate(-99.42 -35.33)"/>
  <path class="cls-4" d="M99.51,1490.86c-.09,4.29-.16,10.75,0,18.58,0,0,.22,8.27,1.2,20.22,0,0,1.94,23.07,5.73,42.28,3.41,17.29,15.05,61.61,47.59,107.81a302.2,302.2,0,0,0,47.29,52.69c10.43,9.8,85.87,78.33,197.44,65.49,110.58-12.72,168.37-95.2,176.48-107.22Q657.46,1441.84,739.64,1193L266.55,1042.71Z" transform="translate(-99.42 -35.33)"/>
  <path class="cls-5" d="M1653.89,346v847.36c0,167.06-136.64,302.49-305.19,302.49H493.82c-168.55,0-305.18-135.43-305.18-302.49V346c0-167.06,136.63-302.49,305.18-302.49H1348.7C1517.25,43.5,1653.89,178.93,1653.89,346Z" transform="translate(-99.42 -35.33)"/>
  <rect class="cls-6" x="101.44" width="1440.8" height="1440.8" rx="300.09"/>
  <g>
    <path class="cls-7" d="M861.17,1077.27c-68.89-6.3-132.53-26.52-189.3-60.15-59.55-35.28-107.6-86.18-142.81-151.31-35.13-65-52.94-145.57-52.94-239.57a522.63,522.63,0,0,1,6.8-82.26A628.11,628.11,0,0,1,501,463.69c7.53-25.23,15.21-46.12,22.81-62.1l2.72-5.7h126.4L646.59,410c-6.47,14.37-13.44,33.46-20.72,56.75a675.29,675.29,0,0,0-18.64,75.66,427.17,427.17,0,0,0-7.62,79.39C599.61,696.3,612,759,636.4,808.21c24.28,48.91,57.31,86.68,98.19,112.26,38.12,23.88,80.66,39,126.58,45.1V186.67H981.33v778.9c45.92-6.07,88.45-21.22,126.58-45.1,40.88-25.58,73.92-63.35,98.19-112.26,24.42-49.19,36.8-111.91,36.8-186.42a474,474,0,0,0-15.25-121c-10.17-38.53-20.46-69-30.56-90.7l-6.64-14.23h125.12l2.84,5.18c8.47,15.41,16.44,35.94,23.67,61a665.66,665.66,0,0,1,17.52,80.81,544.07,544.07,0,0,1,6.8,83.33c0,94-17.82,174.59-53,239.57s-83.07,116-142.23,151.29c-56.44,33.66-120.28,53.89-189.88,60.18v276.61L861.17,1407.3Z" transform="translate(-99.42 -35.33)"/>
    <path class="cls-7" d="M971.33,196.67V976.79Q1049.22,969,1113.22,929t101.84-116.29q37.83-76.23,37.84-190.87a482,482,0,0,0-15.58-123.52q-15.58-59-31.17-92.38h103.5q12.24,22.26,22.82,59a650.89,650.89,0,0,1,17.25,79.58,531.88,531.88,0,0,1,6.68,81.79q0,139.11-51.75,234.82t-138.56,147.45q-86.8,51.77-194.76,59.55V1347.4l-100.16,44.51V1068.06q-106.83-7.79-194.2-59.55T537.86,861.06q-51.75-95.7-51.74-234.82a510.91,510.91,0,0,1,6.67-80.68,617.58,617.58,0,0,1,17.81-79q11.13-37.28,22.25-60.66H637.47q-10,22.26-21.15,57.87a683.33,683.33,0,0,0-18.91,76.78,435.2,435.2,0,0,0-7.8,81.25q0,114.63,37.84,190.87T729.28,929q64,40.06,141.89,47.84V196.67H971.33m20-20H851.17V954A302.55,302.55,0,0,1,739.9,912c-39.29-24.59-71.1-61-94.54-108.23-23.72-47.8-35.75-109-35.75-182a416.48,416.48,0,0,1,7.45-77.52,667,667,0,0,1,18.35-74.55c7.16-22.91,14-41.62,20.3-55.62l12.7-28.21H520.22l-5.42,11.4c-7.83,16.44-15.69,37.82-23.37,63.54A640.94,640.94,0,0,0,473,542.4a532.9,532.9,0,0,0-6.92,83.84c0,47.6,4.51,92.2,13.4,132.57,9,40.77,22.69,78.37,40.75,111.76A421.15,421.15,0,0,0,584,959.5a380,380,0,0,0,82.82,66.22,446.05,446.05,0,0,0,96.56,42.68,477.43,477.43,0,0,0,87.83,17.92v336.37l28.13-12.5,100.16-44.52,11.87-5.28V1086.34a480.42,480.42,0,0,0,88.52-17.93,439.39,439.39,0,0,0,96.48-42.72,379.91,379.91,0,0,0,82.37-66.22,424.09,424.09,0,0,0,63.54-88.9c18-33.39,31.76-71,40.75-111.76,8.9-40.37,13.41-85,13.41-132.57a554,554,0,0,0-6.92-84.87,673.12,673.12,0,0,0-17.79-82c-7.54-26.17-15.56-46.8-24.51-63.09l-5.7-10.36H1174.75L1188,414.34c9.85,21.13,19.93,51.08,30,89a464,464,0,0,1,14.92,118.42c0,73-12,134.18-35.76,182C1173.71,851,1141.9,887.41,1102.61,912a302.68,302.68,0,0,1-111.28,42V176.67Z" transform="translate(-99.42 -35.33)"/>
  </g>
</svg>
