<svg id="Hungarian" xmlns="http://www.w3.org/2000/svg" xmlns:xlink="http://www.w3.org/1999/xlink" viewBox="0 0 1643.73 1771.86">
  <defs>
    <style>
      .cls-1 {
        fill: #6e6e6e;
      }

      .cls-2 {
        fill: url(#Безымянный_градиент_297);
      }

      .cls-3 {
        fill: url(#Безымянный_градиент_272);
      }

      .cls-4 {
        fill: url(#Безымянный_градиент_272-2);
      }

      .cls-5 {
        fill: #e9e3cf;
      }

      .cls-6 {
        fill: url(#Безымянный_градиент_184);
      }

      .cls-7 {
        fill: #414170;
        stroke: #414170;
        stroke-miterlimit: 10;
        stroke-width: 20px;
      }
    </style>
    <linearGradient id="Безымянный_градиент_297" data-name="Безымянный градиент 297" x1="99.42" y1="914.43" x2="1743.1" y2="914.43" gradientUnits="userSpaceOnUse">
      <stop offset="0" stop-color="#e0d8b1"/>
      <stop offset="1" stop-color="#7d6f32"/>
    </linearGradient>
    <linearGradient id="Безымянный_градиент_272" data-name="Безымянный градиент 272" x1="1277.5" y1="1364.52" x2="1772.86" y2="1364.52" gradientTransform="matrix(1.04, -0.63, 0.52, 0.85, -838.29, 1215.41)" gradientUnits="userSpaceOnUse">
      <stop offset="0.1" stop-color="#181716" stop-opacity="0"/>
      <stop offset="0.5" stop-color="#181716" stop-opacity="0.3"/>
      <stop offset="0.85" stop-color="#181716" stop-opacity="0"/>
    </linearGradient>
    <linearGradient id="Безымянный_градиент_272-2" x1="635.59" y1="889.42" x2="1130.95" y2="889.42" gradientTransform="matrix(-1.04, -0.63, -0.52, 0.85, 1768.54, 1215.41)" xlink:href="#Безымянный_градиент_272"/>
    <linearGradient id="Безымянный_градиент_184" data-name="Безымянный градиент 184" x1="101.44" y1="720.4" x2="1542.24" y2="720.4" gradientUnits="userSpaceOnUse">
      <stop offset="0" stop-color="#e9e3cf"/>
      <stop offset="1" stop-color="#d1c292"/>
    </linearGradient>
  </defs>
  <path class="cls-1" d="M1743.1,452.13v1055c0,165.74-134.35,300.09-300.09,300.09H399.51c-165.73,0-300.09-134.35-300.09-300.09v-1055c0-165.74,247.12-423.57,404.44-382.42h834.8C1496,28.56,1743.1,286.39,1743.1,452.13Z" transform="translate(-99.42 -35.33)"/>
  <path class="cls-2" d="M1743.1,430.3v1055c0,165.74-134.35,300.1-300.09,300.1H399.51c-165.73,0-300.09-134.36-300.09-300.1V430.3c0-165.73,247.12-423.57,404.44-382.42h834.8C1496,6.73,1743.1,264.57,1743.1,430.3Z" transform="translate(-99.42 -35.33)"/>
  <path class="cls-3" d="M1743.05,1490.86c.1,4.29.17,10.75,0,18.58,0,0-.23,8.27-1.21,20.22,0,0-1.93,23.07-5.72,42.28-3.41,17.29-15,61.61-47.59,107.81a302.32,302.32,0,0,1-47.3,52.69c-10.42,9.8-85.86,78.33-197.43,65.49-110.59-12.72-168.37-95.2-176.48-107.22q-82.17-248.87-164.35-497.73L1576,1042.71Q1659.54,1266.79,1743.05,1490.86Z" transform="translate(-99.42 -35.33)"/>
  <path class="cls-4" d="M99.51,1490.86c-.09,4.29-.16,10.75,0,18.58,0,0,.22,8.27,1.2,20.22,0,0,1.94,23.07,5.73,42.28,3.41,17.29,15.05,61.61,47.59,107.81a302.2,302.2,0,0,0,47.29,52.69c10.43,9.8,85.87,78.33,197.44,65.49,110.58-12.72,168.37-95.2,176.48-107.22Q657.46,1441.84,739.64,1193L266.55,1042.71Z" transform="translate(-99.42 -35.33)"/>
  <path class="cls-5" d="M1653.89,346v847.36c0,167.06-136.64,302.49-305.19,302.49H493.82c-168.55,0-305.18-135.43-305.18-302.49V346c0-167.06,136.63-302.49,305.18-302.49H1348.7C1517.25,43.5,1653.89,178.93,1653.89,346Z" transform="translate(-99.42 -35.33)"/>
  <rect class="cls-6" x="101.44" width="1440.8" height="1440.8" rx="300.09"/>
  <path class="cls-7" d="M862.79,1319.55Q817.3,1283.18,777,1246.8T703,1174L586,1318.25,331.38,1203.91l39-97.44,183.19,88.35L634.12,1087A589.11,589.11,0,0,1,560.06,938.2q-26-78.59-26-169.55,0-92.25,26-170.86t74.06-150.06L553.55,341.19,370.36,429.54l-39-98.75L586,217.75,703,362a989,989,0,0,1,74-74.06q40.28-36.37,84.46-71.47H983.63q45.47,35.09,84.45,70.17a962.32,962.32,0,0,1,72.76,72.76l113-141.63,257.26,113-41.58,98.75-181.9-88.35-78,103.94a582.13,582.13,0,0,1,75.36,151.36q26,79.92,26,172.16t-26,171.51q-26,79.26-75.36,150.71l78,104,181.9-88.35,41.58,97.44-257.26,114.34-113-141.61q-33.79,36.38-72.76,72.1t-84.45,70.81ZM920,1226h5.18q89.64-78,148.11-147.46T1161,934.32q29.23-74.72,29.24-165.67,0-92.25-29.24-166.95t-87.71-144.87q-58.46-70.17-148.11-148.13H920q-88.38,78-147.49,148.13T684.14,601.7q-29.24,74.71-29.23,166.95,0,91,29.23,165.67t88.34,144.22Q831.61,1148.05,920,1226Z" transform="translate(-99.42 -35.33)"/>
</svg>
