<svg id="Ugaritic" xmlns="http://www.w3.org/2000/svg" xmlns:xlink="http://www.w3.org/1999/xlink" viewBox="0 0 1643.73 1771.86">
  <defs>
    <style>
      .cls-1 {
        fill: #6e6e6e;
      }

      .cls-2 {
        fill: url(#Безымянный_градиент_695);
      }

      .cls-3 {
        fill: url(#Безымянный_градиент_272);
      }

      .cls-4 {
        fill: url(#Безымянный_градиент_272-2);
      }

      .cls-5 {
        fill: #fa7a5e;
      }

      .cls-6 {
        fill: url(#Безымянный_градиент_545);
      }

      .cls-7 {
        fill: #78d9bd;
      }
    </style>
    <linearGradient id="Безымянный_градиент_695" data-name="Безымянный градиент 695" x1="99.42" y1="914.43" x2="1743.1" y2="914.43" gradientUnits="userSpaceOnUse">
      <stop offset="0" stop-color="#e8886f"/>
      <stop offset="1" stop-color="#8f5052"/>
    </linearGradient>
    <linearGradient id="Безымянный_градиент_272" data-name="Безымянный градиент 272" x1="1277.5" y1="1364.52" x2="1772.86" y2="1364.52" gradientTransform="matrix(1.04, -0.63, 0.52, 0.85, -838.29, 1215.41)" gradientUnits="userSpaceOnUse">
      <stop offset="0.1" stop-color="#181716" stop-opacity="0"/>
      <stop offset="0.5" stop-color="#181716" stop-opacity="0.3"/>
      <stop offset="0.85" stop-color="#181716" stop-opacity="0"/>
    </linearGradient>
    <linearGradient id="Безымянный_градиент_272-2" x1="635.59" y1="889.42" x2="1130.95" y2="889.42" gradientTransform="matrix(-1.04, -0.63, -0.52, 0.85, 1768.54, 1215.41)" xlink:href="#Безымянный_градиент_272"/>
    <linearGradient id="Безымянный_градиент_545" data-name="Безымянный градиент 545" x1="101.44" y1="720.4" x2="1542.24" y2="720.4" gradientUnits="userSpaceOnUse">
      <stop offset="0" stop-color="#e47a5e"/>
      <stop offset="1" stop-color="#ab605c"/>
    </linearGradient>
  </defs>
  <path class="cls-1" d="M1743.1,452.13v1055c0,165.74-134.35,300.09-300.09,300.09H399.51c-165.73,0-300.09-134.35-300.09-300.09v-1055c0-165.74,247.12-423.57,404.44-382.42h834.8C1496,28.56,1743.1,286.39,1743.1,452.13Z" transform="translate(-99.42 -35.33)"/>
  <path class="cls-2" d="M1743.1,430.3v1055c0,165.74-134.35,300.1-300.09,300.1H399.51c-165.73,0-300.09-134.36-300.09-300.1V430.3c0-165.73,247.12-423.57,404.44-382.42h834.8C1496,6.73,1743.1,264.57,1743.1,430.3Z" transform="translate(-99.42 -35.33)"/>
  <path class="cls-3" d="M1743.05,1490.86c.1,4.29.17,10.75,0,18.58,0,0-.23,8.27-1.21,20.22,0,0-1.93,23.07-5.72,42.28-3.41,17.29-15,61.61-47.59,107.81a302.32,302.32,0,0,1-47.3,52.69c-10.42,9.8-85.86,78.33-197.43,65.49-110.59-12.72-168.37-95.2-176.48-107.22q-82.17-248.87-164.35-497.73L1576,1042.71Q1659.54,1266.79,1743.05,1490.86Z" transform="translate(-99.42 -35.33)"/>
  <path class="cls-4" d="M99.51,1490.86c-.09,4.29-.16,10.75,0,18.58,0,0,.22,8.27,1.2,20.22,0,0,1.94,23.07,5.73,42.28,3.41,17.29,15.05,61.61,47.59,107.81a302.2,302.2,0,0,0,47.29,52.69c10.43,9.8,85.87,78.33,197.44,65.49,110.58-12.72,168.37-95.2,176.48-107.22Q657.46,1441.84,739.64,1193L266.55,1042.71Z" transform="translate(-99.42 -35.33)"/>
  <path class="cls-5" d="M1653.89,346v847.36c0,167.06-136.64,302.49-305.19,302.49H493.82c-168.55,0-305.18-135.43-305.18-302.49V346c0-167.06,136.63-302.49,305.18-302.49H1348.7C1517.25,43.5,1653.89,178.93,1653.89,346Z" transform="translate(-99.42 -35.33)"/>
  <rect class="cls-6" x="101.44" width="1440.8" height="1440.8" rx="300.09"/>
  <path class="cls-7" d="M481.34,451.19q14.16-63.22,14.17-121,0-61.06-14.17-114.49,64.31,17.44,125.38,31.62t130.84,25.08q69.75,10.91,160.27,20.17t214.23,19.07q123.74,9.83,293.83,20.72v28.34q-161.36,4.38-285.66,10.38T900.54,384.69Q805.13,392.32,731,402.13T596.36,423.94Q535.85,435.93,481.34,451.19Zm0,284.56q14.16-63.22,14.17-121,0-61.07-14.17-114.48,64.31,17.46,125.38,31.61t130.84,25.07q69.75,10.92,160.27,20.18t214.23,19.07q123.74,9.82,293.83,20.72v28.36q-161.36,4.38-285.66,10.36T900.54,669.25Q805.13,676.89,731,686.69T596.36,708.5Q535.85,720.5,481.34,735.75Zm0,284.57q14.16-63.24,14.17-121,0-61.06-14.17-114.48,64.31,17.46,125.38,31.62t130.84,25.08q69.75,10.89,160.27,20.16t214.23,19.09q123.74,9.83,293.83,20.7v28.36q-161.36,4.36-285.66,10.36T900.54,953.81Q805.13,961.42,731,971.25T596.36,993.06Q535.85,1005,481.34,1020.32Zm179.89,353.24q-20.73-125.38-48.53-202.23t-55-133.57q31.62,4.35,63.23,7.09t63.25,2.72q27.24,0,54.49-2.17a475.35,475.35,0,0,0,54.53-7.64q-16.35,39.23-34.89,85.59t-36.53,106.3q-18,60-32.15,143.91Z" transform="translate(-99.42 -35.33)"/>
</svg>
