<svg id="Persian" xmlns="http://www.w3.org/2000/svg" xmlns:xlink="http://www.w3.org/1999/xlink" viewBox="0 0 1643.73 1771.86">
  <defs>
    <style>
      .cls-1 {
        fill: #6e6e6e;
      }

      .cls-2 {
        fill: url(#Безымянный_градиент_396);
      }

      .cls-3 {
        fill: url(#Безымянный_градиент_272);
      }

      .cls-4 {
        fill: url(#Безымянный_градиент_272-2);
      }

      .cls-5 {
        fill: #e0c59d;
      }

      .cls-6 {
        fill: url(#Безымянный_градиент_368);
      }

      .cls-7 {
        fill: #ba2447;
      }
    </style>
    <linearGradient id="Безымянный_градиент_396" data-name="Безымянный градиент 396" x1="99.42" y1="914.43" x2="1743.1" y2="914.43" gradientUnits="userSpaceOnUse">
      <stop offset="0" stop-color="#eec696"/>
      <stop offset="1" stop-color="#ad7a5d"/>
    </linearGradient>
    <linearGradient id="Безымянный_градиент_272" data-name="Безымянный градиент 272" x1="1277.5" y1="1364.52" x2="1772.86" y2="1364.52" gradientTransform="matrix(1.04, -0.63, 0.52, 0.85, -838.29, 1215.41)" gradientUnits="userSpaceOnUse">
      <stop offset="0.1" stop-color="#181716" stop-opacity="0"/>
      <stop offset="0.5" stop-color="#181716" stop-opacity="0.3"/>
      <stop offset="0.85" stop-color="#181716" stop-opacity="0"/>
    </linearGradient>
    <linearGradient id="Безымянный_градиент_272-2" x1="635.59" y1="889.42" x2="1130.95" y2="889.42" gradientTransform="matrix(-1.04, -0.63, -0.52, 0.85, 1768.54, 1215.41)" xlink:href="#Безымянный_градиент_272"/>
    <linearGradient id="Безымянный_градиент_368" data-name="Безымянный градиент 368" x1="101.44" y1="720.4" x2="1542.24" y2="720.4" gradientUnits="userSpaceOnUse">
      <stop offset="0" stop-color="#ebc88e"/>
      <stop offset="1" stop-color="#c99e7f"/>
    </linearGradient>
  </defs>
  <path class="cls-1" d="M1743.1,452.13v1055c0,165.74-134.35,300.09-300.09,300.09H399.51c-165.73,0-300.09-134.35-300.09-300.09v-1055c0-165.74,247.12-423.57,404.44-382.42h834.8C1496,28.56,1743.1,286.39,1743.1,452.13Z" transform="translate(-99.42 -35.33)"/>
  <path class="cls-2" d="M1743.1,430.3v1055c0,165.74-134.35,300.1-300.09,300.1H399.51c-165.73,0-300.09-134.36-300.09-300.1V430.3c0-165.73,247.12-423.57,404.44-382.42h834.8C1496,6.73,1743.1,264.57,1743.1,430.3Z" transform="translate(-99.42 -35.33)"/>
  <path class="cls-3" d="M1743.05,1490.86c.1,4.29.17,10.75,0,18.58,0,0-.23,8.27-1.21,20.22,0,0-1.93,23.07-5.72,42.28-3.41,17.29-15,61.61-47.59,107.81a302.32,302.32,0,0,1-47.3,52.69c-10.42,9.8-85.86,78.33-197.43,65.49-110.59-12.72-168.37-95.2-176.48-107.22q-82.17-248.87-164.35-497.73L1576,1042.71Q1659.54,1266.79,1743.05,1490.86Z" transform="translate(-99.42 -35.33)"/>
  <path class="cls-4" d="M99.51,1490.86c-.09,4.29-.16,10.75,0,18.58,0,0,.22,8.27,1.2,20.22,0,0,1.94,23.07,5.73,42.28,3.41,17.29,15.05,61.61,47.59,107.81a302.2,302.2,0,0,0,47.29,52.69c10.43,9.8,85.87,78.33,197.44,65.49,110.58-12.72,168.37-95.2,176.48-107.22Q657.46,1441.84,739.64,1193L266.55,1042.71Z" transform="translate(-99.42 -35.33)"/>
  <path class="cls-5" d="M1653.89,346v847.36c0,167.06-136.64,302.49-305.19,302.49H493.82c-168.55,0-305.18-135.43-305.18-302.49V346c0-167.06,136.63-302.49,305.18-302.49H1348.7C1517.25,43.5,1653.89,178.93,1653.89,346Z" transform="translate(-99.42 -35.33)"/>
  <rect class="cls-6" x="101.44" width="1440.8" height="1440.8" rx="300.09"/>
  <path class="cls-7" d="M753,1312.11Q664.2,1227,594.31,1162.56T467.25,1048.27q-57.15-49.83-109.41-91.19Q398,920.63,459.36,860.44T592.48,723.06q71.71-77.2,139.83-162.32l29.18,15.79q-55.93,115.53-104,211t-89.36,169.6q35.25,51.09,89.36,139.84t121,195.72ZM433.22,504.81q4.84-30.39,7.3-60.79t2.43-60.8q0-31.61-3-65a568.37,568.37,0,0,0-10.33-67.48Q470.92,277.47,549.34,306t200,45.58q-1.22-24.28-4.25-49.22A516.61,516.61,0,0,0,736,250.71Q778.48,277.47,857.53,306t200.62,45.58q-1.23-25.53-3.05-52.28a533.85,533.85,0,0,0-6.68-54.7q51.06,30.38,159.87,57.13T1474,341.9v29.18Q1307.38,399,1207.07,430.64t-153.79,68.09q2.43-29.18,3.65-59t1.22-60.18Q928,408.79,856.31,441T742,504.81q3.65-30.39,6.08-61.4t2.43-62.62q-130.11,28-201.84,60.19T433.22,504.81Zm668.7,807.3q-87.54-85.11-157.46-149.55t-127-114.29q-57.15-49.83-108.21-91.19,40.1-36.45,101.52-96.64T943.85,723.06q71.71-77.2,139.83-162.32l28,15.79q-56,115.53-103.35,211t-88.75,169.6q32.82,51.09,86.93,139.84t121,195.72Zm345.29,0q-88.77-85.11-159.28-149.55t-127.67-114.29q-57.15-49.83-108.19-91.19,40.11-36.45,101.52-96.64t133.12-137.38q71.73-77.2,139.83-162.32l28,15.79q-55.93,115.53-103.35,211t-88.74,169.6q34,51.09,88.13,139.84t122.2,195.72Z" transform="translate(-99.42 -35.33)"/>
</svg>
