<svg id="Latin" xmlns="http://www.w3.org/2000/svg" xmlns:xlink="http://www.w3.org/1999/xlink" viewBox="0 0 1643.73 1771.86">
  <defs>
    <style>
      .cls-1 {
        fill: #6e6e6e;
      }

      .cls-2 {
        fill: url(#Безымянный_градиент_683);
      }

      .cls-3 {
        fill: url(#Безымянный_градиент_272);
      }

      .cls-4 {
        fill: url(#Безымянный_градиент_272-2);
      }

      .cls-5 {
        fill: url(#Безымянный_градиент_511);
      }

      .cls-6 {
        fill: url(#Безымянный_градиент_421);
      }

      .cls-7 {
        fill: url(#Безымянный_градиент_691);
      }
    </style>
    <linearGradient id="Безымянный_градиент_683" data-name="Безымянный градиент 683" x1="99.42" y1="914.43" x2="1743.1" y2="914.43" gradientUnits="userSpaceOnUse">
      <stop offset="0.29" stop-color="#ffd403"/>
      <stop offset="1" stop-color="#632f1e"/>
    </linearGradient>
    <linearGradient id="Безымянный_градиент_272" data-name="Безымянный градиент 272" x1="1277.5" y1="1364.52" x2="1772.86" y2="1364.52" gradientTransform="matrix(1.04, -0.63, 0.52, 0.85, -838.29, 1215.41)" gradientUnits="userSpaceOnUse">
      <stop offset="0.1" stop-color="#181716" stop-opacity="0"/>
      <stop offset="0.5" stop-color="#181716" stop-opacity="0.3"/>
      <stop offset="0.85" stop-color="#181716" stop-opacity="0"/>
    </linearGradient>
    <linearGradient id="Безымянный_градиент_272-2" x1="635.59" y1="889.42" x2="1130.95" y2="889.42" gradientTransform="matrix(-1.04, -0.63, -0.52, 0.85, 1768.54, 1215.41)" xlink:href="#Безымянный_градиент_272"/>
    <linearGradient id="Безымянный_градиент_511" data-name="Безымянный градиент 511" x1="188.64" y1="769.67" x2="1653.89" y2="769.67" gradientUnits="userSpaceOnUse">
      <stop offset="0" stop-color="#ff6e6e"/>
      <stop offset="1" stop-color="#540001"/>
    </linearGradient>
    <linearGradient id="Безымянный_градиент_421" data-name="Безымянный градиент 421" x1="101.44" y1="720.4" x2="1542.24" y2="720.4" gradientUnits="userSpaceOnUse">
      <stop offset="0" stop-color="#e03644"/>
      <stop offset="1" stop-color="#732425"/>
    </linearGradient>
    <linearGradient id="Безымянный_градиент_691" data-name="Безымянный градиент 691" x1="318.56" y1="759.87" x2="1523.97" y2="759.87" gradientUnits="userSpaceOnUse">
      <stop offset="0.45" stop-color="#ffd403"/>
      <stop offset="0.95" stop-color="#bd5200"/>
    </linearGradient>
  </defs>
  <path class="cls-1" d="M1743.1,452.13v1055c0,165.74-134.35,300.09-300.09,300.09H399.51c-165.73,0-300.09-134.35-300.09-300.09v-1055c0-165.74,247.12-423.57,404.44-382.42h834.8C1496,28.56,1743.1,286.39,1743.1,452.13Z" transform="translate(-99.42 -35.33)"/>
  <path class="cls-2" d="M1743.1,430.3v1055c0,165.74-134.35,300.1-300.09,300.1H399.51c-165.73,0-300.09-134.36-300.09-300.1V430.3c0-165.73,247.12-423.57,404.44-382.42h834.8C1496,6.73,1743.1,264.57,1743.1,430.3Z" transform="translate(-99.42 -35.33)"/>
  <path class="cls-3" d="M1743.05,1490.86c.1,4.29.17,10.75,0,18.58,0,0-.23,8.27-1.21,20.22,0,0-1.93,23.07-5.72,42.28-3.41,17.29-15,61.61-47.59,107.81a302.32,302.32,0,0,1-47.3,52.69c-10.42,9.8-85.86,78.33-197.43,65.49-110.59-12.72-168.37-95.2-176.48-107.22q-82.17-248.87-164.35-497.73L1576,1042.71Q1659.54,1266.79,1743.05,1490.86Z" transform="translate(-99.42 -35.33)"/>
  <path class="cls-4" d="M99.51,1490.86c-.09,4.29-.16,10.75,0,18.58,0,0,.22,8.27,1.2,20.22,0,0,1.94,23.07,5.73,42.28,3.41,17.29,15.05,61.61,47.59,107.81a302.2,302.2,0,0,0,47.29,52.69c10.43,9.8,85.87,78.33,197.44,65.49,110.58-12.72,168.37-95.2,176.48-107.22Q657.46,1441.84,739.64,1193L266.55,1042.71Z" transform="translate(-99.42 -35.33)"/>
  <path class="cls-5" d="M1653.89,346v847.36c0,167.06-136.64,302.49-305.19,302.49H493.82c-168.55,0-305.18-135.43-305.18-302.49V346c0-167.06,136.63-302.49,305.18-302.49H1348.7C1517.25,43.5,1653.89,178.93,1653.89,346Z" transform="translate(-99.42 -35.33)"/>
  <rect class="cls-6" x="101.44" width="1440.8" height="1440.8" rx="300.09"/>
  <path class="cls-7" d="M1204.38,292.26v55h30.13q86.45,0,86.44,64.18,0,10.47-3.28,25.54a296.06,296.06,0,0,1-8.51,30.77L1165.09,884.32q-21,60.26-35.37,113.94-8,30-14.87,57.93-5.38,22.1-10,42.92Q1094.36,1052,1080,997t-34.06-112.63L967.06,651.41,901.81,458.62A206.1,206.1,0,0,1,894,432.41a102,102,0,0,1-2.62-22.27q0-62.85,78.59-62.86h30.13v-55H639.85v55h17q32.53,0,52.57,10.09L443,1070.3q-23.58,62.88-42.57,82.52t-57,19.65H318.56v55H638.15v-55H608q-86.44,0-86.45-64.19,0-24.85,11.79-56.31l49.78-137.54H927.63l52.4,146.7a218.44,218.44,0,0,1,7.85,26.2,108.53,108.53,0,0,1,2.54,18.72c.05,1.2.08,2.38.08,3.54q0,62.88-78.58,62.88H881.78v55H1242v-55h-17q-38,0-58.29-14.4a60.85,60.85,0,0,1-10.65-9.82l243.53-698.81q22.28-64.17,41.91-83.16t57.63-19H1524v-55ZM608,848.94l89.07-241q22.26-61.54,36.68-104.79a712.32,712.32,0,0,0,20.29-74.4q1.73-7.92,3.28-16A985.72,985.72,0,0,0,784.86,511q17,51.07,38,108.71l81.21,229.22Z" transform="translate(-99.42 -35.33)"/>
</svg>
