<svg xmlns="http://www.w3.org/2000/svg" viewBox="0 0 765.29 1154.76">
  <defs>
    <style>
      .cls-1 {
        fill: #333;
      }
    </style>
  </defs>
  <g id="Слой_2" data-name="Слой 2">
    <g id="SouthArabian">
      <path class="cls-1" d="M765.29,70.67V488.76c0,39-31.07,70.67-69.42,70.67H539.26a87.19,87.19,0,0,0-87.19,87.19v437.47c0,39-31.08,70.67-69.42,70.67s-69.43-31.64-69.43-70.67V646.62A87.19,87.19,0,0,0,226,559.43H69.42C31.07,559.43,0,527.79,0,488.76V70.67C0,31.64,31.07,0,69.42,0s69.42,31.64,69.42,70.67V330.9A87.19,87.19,0,0,0,226,418.09h0a87.19,87.19,0,0,0,87.19-87.19V80.84c0-39,31.08-70.67,69.42-70.67s69.43,31.64,69.43,70.67V330.9a87.19,87.19,0,0,0,87.19,87.19h0a87.19,87.19,0,0,0,87.19-87.19V70.67c0-39,31.08-70.67,69.42-70.67S765.29,31.64,765.29,70.67Z"/>
    </g>
  </g>
</svg>
