<svg xmlns="http://www.w3.org/2000/svg" viewBox="0 0 1230.47 904.84">
  <defs>
    <style>
      .cls-1 {
        fill: #333;
      }
    </style>
  </defs>
  <g id="Слой_2" data-name="Слой 2">
    <g id="Glagolitic">
      <path class="cls-1" d="M405.71,401.7c-100.09,0-201.52-9.34-273.59-41.37C54.72,328.3,0,269.58,0,158.81,25.36,85.41,93.42,28,177.5,10.68,217.53,4,254.9,0,288.27,0,315,0,371,0,377.68,13.35c49.38,97.42,104.1,201.52,156.15,293.6,45.37,0,77.4,17.35,98.76,40,4,5.34,8,8,9.34,8s2.67-2.66,4-6.67c0-80.07,12-126.78,32-188.17C708.66,57.39,816.76,1.33,948.88,1.33c114.77,0,201.52,42.71,244.22,116.11,14.68,26.69,22.69,57.39,22.69,93.42v13.35c0,4,0,9.34-1.33,13.34H1063.65c-10.68-74.73-45.38-134.79-126.78-134.79-60.06,0-100.1,37.37-124.12,82.74-16,29.37-17.35,89.42-17.35,141.47V407h258.91V524.48H794.07c0,30.7-2.67,62.73-2.67,96.09,0,122.78,37.37,200.19,162.82,200.19,85.41,0,117.44-89.42,117.44-174.83h157.48c1.33,5.34,1.33,10.68,1.33,18.68v20c0,44-6.67,97.43-25.35,122.78-41.38,64.06-126.79,92.09-232.22,92.09-144.13,0-229.55-38.7-285.6-126.79-4-4-6.67-13.34-10.67-29.36C667.28,690,653.94,617.9,653.94,559.18c0-4-1.34-5.33-2.67-5.33s-4,2.66-8,8c-16,25.36-52,42.71-96.09,42.71-22.69,92.08-69.4,166.82-134.79,225.54-30.69,29.36-70.73,52-117.44,68.06-16,2.67-32,6.68-50.71,6.68C126.78,904.84,36,856.79,8,762,8,639.26,70.73,572.53,172.16,547.17c69.4-16,152.14-22.69,232.21-22.69-12-2.66-14.68-44-14.68-61.39C389.69,443.08,391,404.37,405.71,401.7Zm-16-98.75V292.27c0-69.4-34.7-136.13-76.07-169.49-20-16-44-24-74.73-24-54.72,0-104.1,34.7-104.1,90.75,0,74.73,89.42,100.09,154.81,109.43a441.6,441.6,0,0,0,66.73,5.34C368.34,304.28,377.68,303,389.69,303ZM226.88,806.08c114.77,0,160.14-105.43,170.82-205.52-88.08,0-177.5,18.68-226.88,62.72-17.34,16-26.69,37.37-26.69,64.06C144.13,778.05,168.16,806.08,226.88,806.08ZM456.42,453.75c0,41.37,37.37,82.75,78.74,82.75,44,0,76.07-24,88.08-54.72,4-9.34,5.34-16,5.34-22.69,0-33.36-24-62.72-45.37-77.4a57.17,57.17,0,0,0-29.36-8C501.8,373.68,456.42,407,456.42,453.75Z"/>
    </g>
  </g>
</svg>
