<svg xmlns="http://www.w3.org/2000/svg" viewBox="0 0 1116.1 1067.48">
  <defs>
    <style>
      .cls-1 {
        fill: #333;
      }
    </style>
  </defs>
  <g id="Слой_2" data-name="Слой 2">
    <g id="Persian">
      <path class="cls-1" d="M395.14,1067.48q-88.78-85.11-158.67-149.55T109.41,803.64Q52.26,753.81,0,712.46,40.13,676,101.51,615.82T234.64,478.43q71.72-77.21,139.83-162.32l29.18,15.8q-55.93,115.51-104,210.94T210.33,712.46q35.25,51.07,89.36,139.83t121,195.72ZM75.38,260.18q4.84-30.37,7.3-60.78t2.43-60.81q0-31.59-3-65A568.37,568.37,0,0,0,71.74,6.08Q113.08,32.86,191.5,61.4t200,45.58q-1.22-24.28-4.25-49.22a517.11,517.11,0,0,0-9.12-51.68Q420.65,32.86,499.69,61.4T700.31,107q-1.23-25.51-3-52.27A534,534,0,0,0,690.58,0q51.06,30.39,159.87,57.13T1116.1,97.27v29.18q-166.56,28-266.87,59.56T695.44,254.1q2.43-29.17,3.65-59T700.31,135q-130.11,29.19-201.84,61.4T384.2,260.18q3.65-30.37,6.08-61.4t2.43-62.62q-130.11,28-201.84,60.2T75.38,260.18Zm668.7,807.3q-87.54-85.11-157.46-149.55t-127-114.29q-57.15-49.83-108.21-91.18,40.1-36.47,101.52-96.64T586,478.43q71.72-77.21,139.83-162.32l28,15.8Q697.85,447.43,650.45,542.85T561.7,712.46q32.82,51.07,86.93,139.83t121,195.72Zm345.29,0q-88.77-85.11-159.28-149.55T802.42,803.64q-57.15-49.83-108.19-91.18Q734.34,676,795.75,615.82T928.87,478.43q71.73-77.21,139.83-162.32l28,15.8q-55.94,115.51-103.35,210.94T904.57,712.46q34,51.07,88.13,139.83T1114.9,1048Z"/>
    </g>
  </g>
</svg>
