<svg xmlns="http://www.w3.org/2000/svg" viewBox="0 0 1205.67 1125.02">
  <defs>
    <style>
      .cls-1 {
        fill: #333;
        stroke: #333;
        stroke-miterlimit: 10;
        stroke-width: 20px;
      }
    </style>
  </defs>
  <g id="Слой_2" data-name="Слой 2">
    <g id="Hungarian">
      <path class="cls-1" d="M544.26,1114q-45.5-36.37-85.77-72.75t-74-72.76L267.51,1112.74,12.85,998.4l39-97.43L235,989.32l80.56-107.85A589.78,589.78,0,0,1,241.52,732.7q-26-78.6-26-169.56,0-92.24,26-170.85t74.06-150.07L235,135.69,51.82,224l-39-98.75,254.66-113L384.45,156.47a992.58,992.58,0,0,1,74-74.06Q498.77,46,543,11H665.09Q710.56,46,749.54,81.11a964.17,964.17,0,0,1,72.76,72.76l113-141.62,257.26,113L1151,224l-181.9-88.35-78,103.93A582.51,582.51,0,0,1,966.53,391q26,79.92,26,172.15t-26,171.52q-26,79.25-75.36,150.71l78,104L1151,901l41.57,97.43L935.34,1112.74l-113-141.61q-33.78,36.38-72.76,72.11T665.09,1114Zm57.17-93.55h5.19q89.64-78,148.11-147.45t87.7-144.23q29.24-74.71,29.25-165.67,0-92.24-29.25-166.95t-87.7-144.87Q696.26,181.17,606.62,103.2h-5.19q-88.36,78-147.48,148.12T365.6,396.19q-29.24,74.71-29.23,167,0,91,29.23,165.67T454,873Q513.07,942.55,601.43,1020.49Z"/>
    </g>
  </g>
</svg>
